<?xml version="1.0" encoding="UTF-8" standalone="no"?>
<!DOCTYPE svg PUBLIC "-//W3C//DTD SVG 1.1//EN"
 "http://www.w3.org/Graphics/SVG/1.1/DTD/svg11.dtd">
<!-- Generated by graphviz version 2.40.1 (20161225.0304)
 -->
<!-- Title: workflow Pages: 1 -->
<svg width="3233pt" height="742pt"
 viewBox="0.00 0.00 3233.42 741.52" xmlns="http://www.w3.org/2000/svg" xmlns:xlink="http://www.w3.org/1999/xlink">
<g id="graph0" class="graph" transform="scale(1 1) rotate(0) translate(4 737.525)">
<title>workflow</title>
<polygon fill="#ffffff" stroke="transparent" points="-4,4 -4,-737.525 3229.416,-737.525 3229.416,4 -4,4"/>
<!-- place_2b020927d3c6eb407223a1baa3d6ce3597a3f88d -->
<g id="node1" class="node">
<title>place_2b020927d3c6eb407223a1baa3d6ce3597a3f88d</title>
<ellipse fill="#add8e6" stroke="#333333" cx="48.025" cy="-583.5" rx="36" ry="36"/>
<text text-anchor="middle" x="48.025" y="-581.3" font-family="Arial" font-size="9.00" fill="#000000">start</text>
</g>
<!-- transition_b6589fc6ab0dc82cf12099d1c2d40ab994e8410c -->
<g id="node16" class="node">
<title>transition_b6589fc6ab0dc82cf12099d1c2d40ab994e8410c</title>
<polygon fill="none" stroke="#333333" points="204.05,-619.5 132.05,-619.5 132.05,-547.5 204.05,-547.5 204.05,-619.5"/>
<text text-anchor="middle" x="168.05" y="-581.3" font-family="Arial" font-size="9.00" fill="#000000">manifest</text>
</g>
<!-- place_2b020927d3c6eb407223a1baa3d6ce3597a3f88d&#45;&gt;transition_b6589fc6ab0dc82cf12099d1c2d40ab994e8410c -->
<g id="edge1" class="edge">
<title>place_2b020927d3c6eb407223a1baa3d6ce3597a3f88d&#45;&gt;transition_b6589fc6ab0dc82cf12099d1c2d40ab994e8410c</title>
<path fill="none" stroke="#333333" d="M84.0364,-583.5C97.4431,-583.5 112.7631,-583.5 126.6175,-583.5"/>
<polygon fill="#333333" stroke="#333333" points="126.6491,-585.2501 131.6491,-583.5 126.6491,-581.7501 126.6491,-585.2501"/>
</g>
<!-- place_c5beef2de776a9eb64b6a612abeac7157e1e00a4 -->
<g id="node2" class="node">
<title>place_c5beef2de776a9eb64b6a612abeac7157e1e00a4</title>
<ellipse fill="none" stroke="#333333" cx="276.05" cy="-583.5" rx="36" ry="36"/>
<text text-anchor="middle" x="276.05" y="-581.3" font-family="Arial" font-size="9.00" fill="#000000">manifest</text>
</g>
<!-- transition_356a192b7913b04c54574d18c28d46e6395428ab -->
<g id="node17" class="node">
<title>transition_356a192b7913b04c54574d18c28d46e6395428ab</title>
<polygon fill="none" stroke="#333333" points="434.05,-625 351.05,-625 351.05,-542 434.05,-542 434.05,-625"/>
<text text-anchor="middle" x="392.55" y="-581.3" font-family="Arial" font-size="9.00" fill="#000000">manifest_modify</text>
</g>
<!-- place_c5beef2de776a9eb64b6a612abeac7157e1e00a4&#45;&gt;transition_356a192b7913b04c54574d18c28d46e6395428ab -->
<g id="edge3" class="edge">
<title>place_c5beef2de776a9eb64b6a612abeac7157e1e00a4&#45;&gt;transition_356a192b7913b04c54574d18c28d46e6395428ab</title>
<path fill="none" stroke="#333333" d="M311.6369,-577.2263C322.314,-576.7548 334.1947,-576.6334 345.4918,-576.862"/>
<polygon fill="#333333" stroke="#333333" points="345.5923,-578.615 350.6348,-576.9917 345.6806,-575.1161 345.5923,-578.615"/>
</g>
<!-- transition_da4b9237bacccdf19c0760cab7aec4a8359010b0 -->
<g id="node18" class="node">
<title>transition_da4b9237bacccdf19c0760cab7aec4a8359010b0</title>
<polygon fill="none" stroke="#333333" points="437.05,-524 348.05,-524 348.05,-435 437.05,-435 437.05,-524"/>
<text text-anchor="middle" x="392.55" y="-477.3" font-family="Arial" font-size="9.00" fill="#000000">manifest_validate</text>
</g>
<!-- place_c5beef2de776a9eb64b6a612abeac7157e1e00a4&#45;&gt;transition_da4b9237bacccdf19c0760cab7aec4a8359010b0 -->
<g id="edge5" class="edge">
<title>place_c5beef2de776a9eb64b6a612abeac7157e1e00a4&#45;&gt;transition_da4b9237bacccdf19c0760cab7aec4a8359010b0</title>
<path fill="none" stroke="#333333" d="M303.0703,-559.3789C315.2355,-548.5189 329.981,-535.3556 343.9624,-522.8743"/>
<polygon fill="#333333" stroke="#333333" points="345.3183,-524.0098 347.8828,-519.3745 342.9874,-521.3988 345.3183,-524.0098"/>
</g>
<!-- place_6d9041765a1d8e9fc026cfdef0ab886eda677112 -->
<g id="node3" class="node">
<title>place_6d9041765a1d8e9fc026cfdef0ab886eda677112</title>
<ellipse fill="none" stroke="#333333" cx="520.5586" cy="-479.5" rx="47.5172" ry="47.5172"/>
<text text-anchor="middle" x="520.5586" y="-477.3" font-family="Arial" font-size="9.00" fill="#000000">manifest&#45;validated</text>
</g>
<!-- transition_77de68daecd823babbb58edb1c8e14d7106e83bb -->
<g id="node19" class="node">
<title>transition_77de68daecd823babbb58edb1c8e14d7106e83bb</title>
<polygon fill="none" stroke="#333333" points="676.0672,-515.5 604.0672,-515.5 604.0672,-443.5 676.0672,-443.5 676.0672,-515.5"/>
<text text-anchor="middle" x="640.0672" y="-477.3" font-family="Arial" font-size="9.00" fill="#000000">config</text>
</g>
<!-- place_6d9041765a1d8e9fc026cfdef0ab886eda677112&#45;&gt;transition_77de68daecd823babbb58edb1c8e14d7106e83bb -->
<g id="edge7" class="edge">
<title>place_6d9041765a1d8e9fc026cfdef0ab886eda677112&#45;&gt;transition_77de68daecd823babbb58edb1c8e14d7106e83bb</title>
<path fill="none" stroke="#333333" d="M568.1349,-479.5C578.2232,-479.5 588.795,-479.5 598.6334,-479.5"/>
<polygon fill="#333333" stroke="#333333" points="598.7049,-481.2501 603.7049,-479.5 598.7048,-477.7501 598.7049,-481.2501"/>
</g>
<!-- place_dfba7aade0868074c2861c98e2a9a92f3178a51b -->
<g id="node4" class="node">
<title>place_dfba7aade0868074c2861c98e2a9a92f3178a51b</title>
<ellipse fill="none" stroke="#333333" cx="748.0672" cy="-479.5" rx="36" ry="36"/>
<text text-anchor="middle" x="748.0672" y="-477.3" font-family="Arial" font-size="9.00" fill="#000000">config</text>
</g>
<!-- transition_1b6453892473a467d07372d45eb05abc2031647a -->
<g id="node20" class="node">
<title>transition_1b6453892473a467d07372d45eb05abc2031647a</title>
<polygon fill="none" stroke="#333333" points="896.5672,-516.5 822.5672,-516.5 822.5672,-442.5 896.5672,-442.5 896.5672,-516.5"/>
<text text-anchor="middle" x="859.5672" y="-477.3" font-family="Arial" font-size="9.00" fill="#000000">config_modify</text>
</g>
<!-- place_dfba7aade0868074c2861c98e2a9a92f3178a51b&#45;&gt;transition_1b6453892473a467d07372d45eb05abc2031647a -->
<g id="edge9" class="edge">
<title>place_dfba7aade0868074c2861c98e2a9a92f3178a51b&#45;&gt;transition_1b6453892473a467d07372d45eb05abc2031647a</title>
<path fill="none" stroke="#333333" d="M783.653,-473.1588C794.3751,-472.7054 806.2472,-472.6291 817.3559,-472.9301"/>
<polygon fill="#333333" stroke="#333333" points="817.3448,-474.6806 822.3993,-473.0949 817.4592,-471.1825 817.3448,-474.6806"/>
</g>
<!-- transition_ac3478d69a3c81fa62e60f5c3696165a4e5e6ac4 -->
<g id="node21" class="node">
<title>transition_ac3478d69a3c81fa62e60f5c3696165a4e5e6ac4</title>
<polygon fill="none" stroke="#333333" points="899.0672,-424 820.0672,-424 820.0672,-345 899.0672,-345 899.0672,-424"/>
<text text-anchor="middle" x="859.5672" y="-382.3" font-family="Arial" font-size="9.00" fill="#000000">config_validate</text>
</g>
<!-- place_dfba7aade0868074c2861c98e2a9a92f3178a51b&#45;&gt;transition_ac3478d69a3c81fa62e60f5c3696165a4e5e6ac4 -->
<g id="edge11" class="edge">
<title>place_dfba7aade0868074c2861c98e2a9a92f3178a51b&#45;&gt;transition_ac3478d69a3c81fa62e60f5c3696165a4e5e6ac4</title>
<path fill="none" stroke="#333333" d="M775.629,-456.0168C787.6683,-445.7592 802.0876,-433.4737 815.5506,-422.0029"/>
<polygon fill="#333333" stroke="#333333" points="817.0235,-423.0471 819.6944,-418.4723 814.7535,-420.383 817.0235,-423.0471"/>
</g>
<!-- place_cb1ab6a46c030653a17b1532d44f095081fb0f46 -->
<g id="node5" class="node">
<title>place_cb1ab6a46c030653a17b1532d44f095081fb0f46</title>
<ellipse fill="none" stroke="#333333" cx="977.4118" cy="-384.5" rx="42.1898" ry="42.1898"/>
<text text-anchor="middle" x="977.4118" y="-382.3" font-family="Arial" font-size="9.00" fill="#000000">config&#45;validated</text>
</g>
<!-- transition_c1dfd96eea8cc2b62785275bca38ac261256e278 -->
<g id="node22" class="node">
<title>transition_c1dfd96eea8cc2b62785275bca38ac261256e278</title>
<polygon fill="none" stroke="#333333" points="1127.7564,-420.5 1055.7564,-420.5 1055.7564,-348.5 1127.7564,-348.5 1127.7564,-420.5"/>
<text text-anchor="middle" x="1091.7564" y="-382.3" font-family="Arial" font-size="9.00" fill="#000000">translation</text>
</g>
<!-- place_cb1ab6a46c030653a17b1532d44f095081fb0f46&#45;&gt;transition_c1dfd96eea8cc2b62785275bca38ac261256e278 -->
<g id="edge13" class="edge">
<title>place_cb1ab6a46c030653a17b1532d44f095081fb0f46&#45;&gt;transition_c1dfd96eea8cc2b62785275bca38ac261256e278</title>
<path fill="none" stroke="#333333" d="M1019.9895,-384.5C1029.9385,-384.5 1040.5194,-384.5 1050.4137,-384.5"/>
<polygon fill="#333333" stroke="#333333" points="1050.5182,-386.2501 1055.5182,-384.5 1050.5181,-382.7501 1050.5182,-386.2501"/>
</g>
<!-- place_efd7fd7f2954713c1ee7facf9750fe53e8cf589c -->
<g id="node6" class="node">
<title>place_efd7fd7f2954713c1ee7facf9750fe53e8cf589c</title>
<ellipse fill="none" stroke="#333333" cx="1199.7564" cy="-384.5" rx="36" ry="36"/>
<text text-anchor="middle" x="1199.7564" y="-382.3" font-family="Arial" font-size="9.00" fill="#000000">translation</text>
</g>
<!-- transition_902ba3cda1883801594b6e1b452790cc53948fda -->
<g id="node23" class="node">
<title>transition_902ba3cda1883801594b6e1b452790cc53948fda</title>
<polygon fill="none" stroke="#333333" points="1366.2564,-430.5 1274.2564,-430.5 1274.2564,-338.5 1366.2564,-338.5 1366.2564,-430.5"/>
<text text-anchor="middle" x="1320.2564" y="-382.3" font-family="Arial" font-size="9.00" fill="#000000">translation_modify</text>
</g>
<!-- place_efd7fd7f2954713c1ee7facf9750fe53e8cf589c&#45;&gt;transition_902ba3cda1883801594b6e1b452790cc53948fda -->
<g id="edge15" class="edge">
<title>place_efd7fd7f2954713c1ee7facf9750fe53e8cf589c&#45;&gt;transition_902ba3cda1883801594b6e1b452790cc53948fda</title>
<path fill="none" stroke="#333333" d="M1235.2586,-378.2839C1245.7339,-377.806 1257.4172,-377.6489 1268.6866,-377.8127"/>
<polygon fill="#333333" stroke="#333333" points="1268.7972,-379.565 1273.8296,-377.9104 1268.8638,-376.0656 1268.7972,-379.565"/>
</g>
<!-- transition_fe5dbbcea5ce7e2988b8c69bcfdfde8904aabc1f -->
<g id="node24" class="node">
<title>transition_fe5dbbcea5ce7e2988b8c69bcfdfde8904aabc1f</title>
<polygon fill="none" stroke="#333333" points="1368.7564,-320 1271.7564,-320 1271.7564,-223 1368.7564,-223 1368.7564,-320"/>
<text text-anchor="middle" x="1320.2564" y="-269.3" font-family="Arial" font-size="9.00" fill="#000000">translation_validate</text>
</g>
<!-- place_efd7fd7f2954713c1ee7facf9750fe53e8cf589c&#45;&gt;transition_fe5dbbcea5ce7e2988b8c69bcfdfde8904aabc1f -->
<g id="edge17" class="edge">
<title>place_efd7fd7f2954713c1ee7facf9750fe53e8cf589c&#45;&gt;transition_fe5dbbcea5ce7e2988b8c69bcfdfde8904aabc1f</title>
<path fill="none" stroke="#333333" d="M1226.2007,-359.7017C1238.4631,-348.2024 1253.4879,-334.1128 1267.8997,-320.598"/>
<polygon fill="#333333" stroke="#333333" points="1269.0982,-321.8732 1271.5484,-317.1764 1266.7041,-319.3201 1269.0982,-321.8732"/>
</g>
<!-- place_b64ed577f69ecadabeb6723a1dc32b85be0ca8c9 -->
<g id="node7" class="node">
<title>place_b64ed577f69ecadabeb6723a1dc32b85be0ca8c9</title>
<ellipse fill="none" stroke="#333333" cx="1456.3962" cy="-271.5" rx="51.7799" ry="51.7799"/>
<text text-anchor="middle" x="1456.3962" y="-269.3" font-family="Arial" font-size="9.00" fill="#000000">translation&#45;validated</text>
</g>
<!-- transition_0ade7c2cf97f75d009975f4d720d1fa6c19f4897 -->
<g id="node25" class="node">
<title>transition_0ade7c2cf97f75d009975f4d720d1fa6c19f4897</title>
<polygon fill="none" stroke="#333333" points="1616.036,-307.5 1544.036,-307.5 1544.036,-235.5 1616.036,-235.5 1616.036,-307.5"/>
<text text-anchor="middle" x="1580.036" y="-269.3" font-family="Arial" font-size="9.00" fill="#000000">openapi</text>
</g>
<!-- place_b64ed577f69ecadabeb6723a1dc32b85be0ca8c9&#45;&gt;transition_0ade7c2cf97f75d009975f4d720d1fa6c19f4897 -->
<g id="edge19" class="edge">
<title>place_b64ed577f69ecadabeb6723a1dc32b85be0ca8c9&#45;&gt;transition_0ade7c2cf97f75d009975f4d720d1fa6c19f4897</title>
<path fill="none" stroke="#333333" d="M1508.1142,-271.5C1518.37,-271.5 1529.007,-271.5 1538.8547,-271.5"/>
<polygon fill="#333333" stroke="#333333" points="1538.9263,-273.2501 1543.9263,-271.5 1538.9262,-269.7501 1538.9263,-273.2501"/>
</g>
<!-- place_3101a69a049ac6abaa9e79f841734c3fde77190f -->
<g id="node8" class="node">
<title>place_3101a69a049ac6abaa9e79f841734c3fde77190f</title>
<ellipse fill="none" stroke="#333333" cx="1688.036" cy="-271.5" rx="36" ry="36"/>
<text text-anchor="middle" x="1688.036" y="-269.3" font-family="Arial" font-size="9.00" fill="#000000">openapi</text>
</g>
<!-- transition_b1d5781111d84f7b3fe45a0852e59758cd7a87e5 -->
<g id="node26" class="node">
<title>transition_b1d5781111d84f7b3fe45a0852e59758cd7a87e5</title>
<polygon fill="none" stroke="#333333" points="1845.536,-313 1762.536,-313 1762.536,-230 1845.536,-230 1845.536,-313"/>
<text text-anchor="middle" x="1804.036" y="-269.3" font-family="Arial" font-size="9.00" fill="#000000">openapi_modify</text>
</g>
<!-- place_3101a69a049ac6abaa9e79f841734c3fde77190f&#45;&gt;transition_b1d5781111d84f7b3fe45a0852e59758cd7a87e5 -->
<g id="edge21" class="edge">
<title>place_3101a69a049ac6abaa9e79f841734c3fde77190f&#45;&gt;transition_b1d5781111d84f7b3fe45a0852e59758cd7a87e5</title>
<path fill="none" stroke="#333333" d="M1723.7863,-265.2124C1734.4083,-264.7493 1746.2038,-264.634 1757.4097,-264.8667"/>
<polygon fill="#333333" stroke="#333333" points="1757.4671,-266.6187 1762.5105,-264.9981 1757.5573,-263.1198 1757.4671,-266.6187"/>
</g>
<!-- transition_17ba0791499db908433b80f37c5fbc89b870084b -->
<g id="node27" class="node">
<title>transition_17ba0791499db908433b80f37c5fbc89b870084b</title>
<polygon fill="none" stroke="#333333" points="1848.036,-211.5 1760.036,-211.5 1760.036,-123.5 1848.036,-123.5 1848.036,-211.5"/>
<text text-anchor="middle" x="1804.036" y="-165.3" font-family="Arial" font-size="9.00" fill="#000000">openapi_validate</text>
</g>
<!-- place_3101a69a049ac6abaa9e79f841734c3fde77190f&#45;&gt;transition_17ba0791499db908433b80f37c5fbc89b870084b -->
<g id="edge23" class="edge">
<title>place_3101a69a049ac6abaa9e79f841734c3fde77190f&#45;&gt;transition_17ba0791499db908433b80f37c5fbc89b870084b</title>
<path fill="none" stroke="#333333" d="M1714.9403,-247.3789C1727.1757,-236.4092 1742.0324,-223.0894 1756.0785,-210.4963"/>
<polygon fill="#333333" stroke="#333333" points="1757.4613,-211.607 1760.0159,-206.9662 1755.1249,-209.001 1757.4613,-211.607"/>
</g>
<!-- place_28a4143c6cf6a51a2b50b25061da23121d1ade49 -->
<g id="node9" class="node">
<title>place_28a4143c6cf6a51a2b50b25061da23121d1ade49</title>
<ellipse fill="none" stroke="#333333" cx="1931.0282" cy="-167.5" rx="46.9844" ry="46.9844"/>
<text text-anchor="middle" x="1931.0282" y="-165.3" font-family="Arial" font-size="9.00" fill="#000000">openapi&#45;validated</text>
</g>
<!-- transition_7b52009b64fd0a2a49e6d8a939753077792b0554 -->
<g id="node28" class="node">
<title>transition_7b52009b64fd0a2a49e6d8a939753077792b0554</title>
<polygon fill="none" stroke="#333333" points="2086.0204,-203.5 2014.0204,-203.5 2014.0204,-131.5 2086.0204,-131.5 2086.0204,-203.5"/>
<text text-anchor="middle" x="2050.0204" y="-165.3" font-family="Arial" font-size="9.00" fill="#000000">asyncapi</text>
</g>
<!-- place_28a4143c6cf6a51a2b50b25061da23121d1ade49&#45;&gt;transition_7b52009b64fd0a2a49e6d8a939753077792b0554 -->
<g id="edge25" class="edge">
<title>place_28a4143c6cf6a51a2b50b25061da23121d1ade49&#45;&gt;transition_7b52009b64fd0a2a49e6d8a939753077792b0554</title>
<path fill="none" stroke="#333333" d="M1978.057,-167.5C1988.2357,-167.5 1998.9241,-167.5 2008.857,-167.5"/>
<polygon fill="#333333" stroke="#333333" points="2008.9757,-169.2501 2013.9757,-167.5 2008.9756,-165.7501 2008.9757,-169.2501"/>
</g>
<!-- place_62eaf9d719558cab721db86619620e14f62fdfa3 -->
<g id="node10" class="node">
<title>place_62eaf9d719558cab721db86619620e14f62fdfa3</title>
<ellipse fill="none" stroke="#333333" cx="2158.0204" cy="-167.5" rx="36" ry="36"/>
<text text-anchor="middle" x="2158.0204" y="-165.3" font-family="Arial" font-size="9.00" fill="#000000">asyncapi</text>
</g>
<!-- transition_bd307a3ec329e10a2cff8fb87480823da114f8f4 -->
<g id="node29" class="node">
<title>transition_bd307a3ec329e10a2cff8fb87480823da114f8f4</title>
<polygon fill="none" stroke="#333333" points="2318.5204,-210.5 2232.5204,-210.5 2232.5204,-124.5 2318.5204,-124.5 2318.5204,-210.5"/>
<text text-anchor="middle" x="2275.5204" y="-165.3" font-family="Arial" font-size="9.00" fill="#000000">asyncapi_modify</text>
</g>
<!-- place_62eaf9d719558cab721db86619620e14f62fdfa3&#45;&gt;transition_bd307a3ec329e10a2cff8fb87480823da114f8f4 -->
<g id="edge27" class="edge">
<title>place_62eaf9d719558cab721db86619620e14f62fdfa3&#45;&gt;transition_bd307a3ec329e10a2cff8fb87480823da114f8f4</title>
<path fill="none" stroke="#333333" d="M2193.5931,-161.2404C2204.1365,-160.7709 2215.866,-160.6385 2227.0784,-160.8432"/>
<polygon fill="#333333" stroke="#333333" points="2227.1485,-162.5952 2232.1875,-160.961 2227.2292,-159.0961 2227.1485,-162.5952"/>
</g>
<!-- transition_fa35e192121eabf3dabf9f5ea6abdbcbc107ac3b -->
<g id="node30" class="node">
<title>transition_fa35e192121eabf3dabf9f5ea6abdbcbc107ac3b</title>
<polygon fill="none" stroke="#333333" points="2321.0204,-106 2230.0204,-106 2230.0204,-15 2321.0204,-15 2321.0204,-106"/>
<text text-anchor="middle" x="2275.5204" y="-58.3" font-family="Arial" font-size="9.00" fill="#000000">asyncapi_validate</text>
</g>
<!-- place_62eaf9d719558cab721db86619620e14f62fdfa3&#45;&gt;transition_fa35e192121eabf3dabf9f5ea6abdbcbc107ac3b -->
<g id="edge29" class="edge">
<title>place_62eaf9d719558cab721db86619620e14f62fdfa3&#45;&gt;transition_fa35e192121eabf3dabf9f5ea6abdbcbc107ac3b</title>
<path fill="none" stroke="#333333" d="M2184.6829,-143.22C2196.8136,-132.1734 2211.577,-118.7293 2225.6454,-105.918"/>
<polygon fill="#333333" stroke="#333333" points="2227.0736,-106.9843 2229.5922,-102.3239 2224.7171,-104.3965 2227.0736,-106.9843"/>
</g>
<!-- place_f15ff37c44db3a66773086032d26303622a26114 -->
<g id="node11" class="node">
<title>place_f15ff37c44db3a66773086032d26303622a26114</title>
<ellipse fill="none" stroke="#333333" cx="2405.5618" cy="-60.5" rx="48.5828" ry="48.5828"/>
<text text-anchor="middle" x="2405.5618" y="-58.3" font-family="Arial" font-size="9.00" fill="#000000">asyncapi&#45;validated</text>
</g>
<!-- transition_f1abd670358e036c31296e66b3b66c382ac00812 -->
<g id="node31" class="node">
<title>transition_f1abd670358e036c31296e66b3b66c382ac00812</title>
<polygon fill="none" stroke="#333333" points="2611.1031,-121 2490.1031,-121 2490.1031,0 2611.1031,0 2611.1031,-121"/>
<text text-anchor="middle" x="2550.6031" y="-58.3" font-family="Arial" font-size="9.00" fill="#000000">asyncapi_generate_code</text>
</g>
<!-- place_f15ff37c44db3a66773086032d26303622a26114&#45;&gt;transition_f1abd670358e036c31296e66b3b66c382ac00812 -->
<g id="edge31" class="edge">
<title>place_f15ff37c44db3a66773086032d26303622a26114&#45;&gt;transition_f1abd670358e036c31296e66b3b66c382ac00812</title>
<path fill="none" stroke="#333333" d="M2454.2619,-60.5C2464.0926,-60.5 2474.5801,-60.5 2484.883,-60.5"/>
<polygon fill="#333333" stroke="#333333" points="2484.9223,-62.2501 2489.9223,-60.5 2484.9222,-58.7501 2484.9223,-62.2501"/>
</g>
<!-- place_d3116a051d01a12785250aa160d80030fe53a00f -->
<g id="node12" class="node">
<title>place_d3116a051d01a12785250aa160d80030fe53a00f</title>
<ellipse fill="none" stroke="#333333" cx="48.025" cy="-685.5" rx="48.05" ry="48.05"/>
<text text-anchor="middle" x="48.025" y="-683.3" font-family="Arial" font-size="9.00" fill="#000000">asyncapi&#45;generate</text>
</g>
<!-- place_85f0932b50f25300dc3748b637ebc4e620662ade -->
<g id="node13" class="node">
<title>place_85f0932b50f25300dc3748b637ebc4e620662ade</title>
<ellipse fill="none" stroke="#333333" cx="2693.5789" cy="-60.5" rx="46.4516" ry="46.4516"/>
<text text-anchor="middle" x="2693.5789" y="-58.3" font-family="Arial" font-size="9.00" fill="#000000">openapi&#45;generate</text>
</g>
<!-- transition_1574bddb75c78a6fd2251d61e2993b5146201319 -->
<g id="node32" class="node">
<title>transition_1574bddb75c78a6fd2251d61e2993b5146201319</title>
<polygon fill="none" stroke="#333333" points="2894.0547,-119.5 2776.0547,-119.5 2776.0547,-1.5 2894.0547,-1.5 2894.0547,-119.5"/>
<text text-anchor="middle" x="2835.0547" y="-58.3" font-family="Arial" font-size="9.00" fill="#000000">openapi_generate_code</text>
</g>
<!-- place_85f0932b50f25300dc3748b637ebc4e620662ade&#45;&gt;transition_1574bddb75c78a6fd2251d61e2993b5146201319 -->
<g id="edge33" class="edge">
<title>place_85f0932b50f25300dc3748b637ebc4e620662ade&#45;&gt;transition_1574bddb75c78a6fd2251d61e2993b5146201319</title>
<path fill="none" stroke="#333333" d="M2740.2955,-60.5C2750.1173,-60.5 2760.6402,-60.5 2770.972,-60.5"/>
<polygon fill="#333333" stroke="#333333" points="2771.0248,-62.2501 2776.0248,-60.5 2771.0247,-58.7501 2771.0248,-62.2501"/>
</g>
<!-- place_4fee5c45437e00ac97c799bd8b0030c0bc3001a7 -->
<g id="node14" class="node">
<title>place_4fee5c45437e00ac97c799bd8b0030c0bc3001a7</title>
<ellipse fill="none" stroke="#333333" cx="2966.0547" cy="-60.5" rx="36" ry="36"/>
<text text-anchor="middle" x="2966.0547" y="-58.3" font-family="Arial" font-size="9.00" fill="#000000">pbc&#45;validate</text>
</g>
<!-- transition_0716d9708d321ffb6a00818614779e779925365c -->
<g id="node33" class="node">
<title>transition_0716d9708d321ffb6a00818614779e779925365c</title>
<polygon fill="none" stroke="#333333" points="3115.0547,-99 3038.0547,-99 3038.0547,-22 3115.0547,-22 3115.0547,-99"/>
<text text-anchor="middle" x="3076.5547" y="-58.3" font-family="Arial" font-size="9.00" fill="#000000">pbc_validation</text>
</g>
<!-- place_4fee5c45437e00ac97c799bd8b0030c0bc3001a7&#45;&gt;transition_0716d9708d321ffb6a00818614779e779925365c -->
<g id="edge35" class="edge">
<title>place_4fee5c45437e00ac97c799bd8b0030c0bc3001a7&#45;&gt;transition_0716d9708d321ffb6a00818614779e779925365c</title>
<path fill="none" stroke="#333333" d="M3002.2366,-60.5C3011.9917,-60.5 3022.6507,-60.5 3032.7725,-60.5"/>
<polygon fill="#333333" stroke="#333333" points="3033.0091,-62.2501 3038.009,-60.5 3033.009,-58.7501 3033.0091,-62.2501"/>
</g>
<!-- place_691e1af3c33128ebc6d96a79495c445c116459a4 -->
<g id="node15" class="node">
<title>place_691e1af3c33128ebc6d96a79495c445c116459a4</title>
<ellipse fill="none" stroke="#333333" cx="3188.2354" cy="-60.5" rx="37.3622" ry="37.3622"/>
<text text-anchor="middle" x="3188.2354" y="-58.3" font-family="Arial" font-size="9.00" fill="#000000">pbc&#45;validated</text>
</g>
<!-- transition_b6589fc6ab0dc82cf12099d1c2d40ab994e8410c&#45;&gt;place_c5beef2de776a9eb64b6a612abeac7157e1e00a4 -->
<g id="edge2" class="edge">
<title>transition_b6589fc6ab0dc82cf12099d1c2d40ab994e8410c&#45;&gt;place_c5beef2de776a9eb64b6a612abeac7157e1e00a4</title>
<path fill="none" stroke="#333333" d="M204.3129,-583.5C214.019,-583.5 224.5851,-583.5 234.5503,-583.5"/>
<polygon fill="#333333" stroke="#333333" points="234.699,-585.2501 239.699,-583.5 234.6989,-581.7501 234.699,-585.2501"/>
</g>
<!-- transition_356a192b7913b04c54574d18c28d46e6395428ab&#45;&gt;place_c5beef2de776a9eb64b6a612abeac7157e1e00a4 -->
<g id="edge4" class="edge">
<title>transition_356a192b7913b04c54574d18c28d46e6395428ab&#45;&gt;place_c5beef2de776a9eb64b6a612abeac7157e1e00a4</title>
<path fill="none" stroke="#333333" d="M350.6348,-590.0083C339.6582,-590.3412 327.8397,-590.3302 316.9185,-589.9755"/>
<polygon fill="#333333" stroke="#333333" points="316.7,-588.216 311.6369,-589.7737 316.5664,-591.7134 316.7,-588.216"/>
</g>
<!-- transition_da4b9237bacccdf19c0760cab7aec4a8359010b0&#45;&gt;place_6d9041765a1d8e9fc026cfdef0ab886eda677112 -->
<g id="edge6" class="edge">
<title>transition_da4b9237bacccdf19c0760cab7aec4a8359010b0&#45;&gt;place_6d9041765a1d8e9fc026cfdef0ab886eda677112</title>
<path fill="none" stroke="#333333" d="M437.3212,-479.5C447.1445,-479.5 457.6341,-479.5 467.7398,-479.5"/>
<polygon fill="#333333" stroke="#333333" points="467.9839,-481.2501 472.9839,-479.5 467.9838,-477.7501 467.9839,-481.2501"/>
</g>
<!-- transition_77de68daecd823babbb58edb1c8e14d7106e83bb&#45;&gt;place_dfba7aade0868074c2861c98e2a9a92f3178a51b -->
<g id="edge8" class="edge">
<title>transition_77de68daecd823babbb58edb1c8e14d7106e83bb&#45;&gt;place_dfba7aade0868074c2861c98e2a9a92f3178a51b</title>
<path fill="none" stroke="#333333" d="M676.3301,-479.5C686.0362,-479.5 696.6023,-479.5 706.5675,-479.5"/>
<polygon fill="#333333" stroke="#333333" points="706.7162,-481.2501 711.7162,-479.5 706.7161,-477.7501 706.7162,-481.2501"/>
</g>
<!-- transition_1b6453892473a467d07372d45eb05abc2031647a&#45;&gt;place_dfba7aade0868074c2861c98e2a9a92f3178a51b -->
<g id="edge10" class="edge">
<title>transition_1b6453892473a467d07372d45eb05abc2031647a&#45;&gt;place_dfba7aade0868074c2861c98e2a9a92f3178a51b</title>
<path fill="none" stroke="#333333" d="M822.3993,-485.9051C811.5693,-486.3216 799.6829,-486.3609 788.6534,-486.023"/>
<polygon fill="#333333" stroke="#333333" points="788.7133,-484.2741 783.653,-485.8412 788.5861,-487.7718 788.7133,-484.2741"/>
</g>
<!-- transition_ac3478d69a3c81fa62e60f5c3696165a4e5e6ac4&#45;&gt;place_cb1ab6a46c030653a17b1532d44f095081fb0f46 -->
<g id="edge12" class="edge">
<title>transition_ac3478d69a3c81fa62e60f5c3696165a4e5e6ac4&#45;&gt;place_cb1ab6a46c030653a17b1532d44f095081fb0f46</title>
<path fill="none" stroke="#333333" d="M899.1356,-384.5C908.9293,-384.5 919.5254,-384.5 929.6635,-384.5"/>
<polygon fill="#333333" stroke="#333333" points="929.9167,-386.2501 934.9166,-384.5 929.9166,-382.7501 929.9167,-386.2501"/>
</g>
<!-- transition_c1dfd96eea8cc2b62785275bca38ac261256e278&#45;&gt;place_efd7fd7f2954713c1ee7facf9750fe53e8cf589c -->
<g id="edge14" class="edge">
<title>transition_c1dfd96eea8cc2b62785275bca38ac261256e278&#45;&gt;place_efd7fd7f2954713c1ee7facf9750fe53e8cf589c</title>
<path fill="none" stroke="#333333" d="M1128.0193,-384.5C1137.7254,-384.5 1148.2916,-384.5 1158.2568,-384.5"/>
<polygon fill="#333333" stroke="#333333" points="1158.4054,-386.2501 1163.4054,-384.5 1158.4054,-382.7501 1158.4054,-386.2501"/>
</g>
<!-- transition_902ba3cda1883801594b6e1b452790cc53948fda&#45;&gt;place_efd7fd7f2954713c1ee7facf9750fe53e8cf589c -->
<g id="edge16" class="edge">
<title>transition_902ba3cda1883801594b6e1b452790cc53948fda&#45;&gt;place_efd7fd7f2954713c1ee7facf9750fe53e8cf589c</title>
<path fill="none" stroke="#333333" d="M1273.8296,-391.0896C1262.8249,-391.3492 1251.17,-391.2937 1240.4431,-390.9232"/>
<polygon fill="#333333" stroke="#333333" points="1240.3246,-389.1672 1235.2586,-390.7161 1240.1847,-392.6644 1240.3246,-389.1672"/>
</g>
<!-- transition_fe5dbbcea5ce7e2988b8c69bcfdfde8904aabc1f&#45;&gt;place_b64ed577f69ecadabeb6723a1dc32b85be0ca8c9 -->
<g id="edge18" class="edge">
<title>transition_fe5dbbcea5ce7e2988b8c69bcfdfde8904aabc1f&#45;&gt;place_b64ed577f69ecadabeb6723a1dc32b85be0ca8c9</title>
<path fill="none" stroke="#333333" d="M1369.0215,-271.5C1378.8971,-271.5 1389.3637,-271.5 1399.4914,-271.5"/>
<polygon fill="#333333" stroke="#333333" points="1399.7517,-273.2501 1404.7517,-271.5 1399.7516,-269.7501 1399.7517,-273.2501"/>
</g>
<!-- transition_0ade7c2cf97f75d009975f4d720d1fa6c19f4897&#45;&gt;place_3101a69a049ac6abaa9e79f841734c3fde77190f -->
<g id="edge20" class="edge">
<title>transition_0ade7c2cf97f75d009975f4d720d1fa6c19f4897&#45;&gt;place_3101a69a049ac6abaa9e79f841734c3fde77190f</title>
<path fill="none" stroke="#333333" d="M1616.2988,-271.5C1626.005,-271.5 1636.5711,-271.5 1646.5363,-271.5"/>
<polygon fill="#333333" stroke="#333333" points="1646.685,-273.2501 1651.685,-271.5 1646.6849,-269.7501 1646.685,-273.2501"/>
</g>
<!-- transition_b1d5781111d84f7b3fe45a0852e59758cd7a87e5&#45;&gt;place_3101a69a049ac6abaa9e79f841734c3fde77190f -->
<g id="edge22" class="edge">
<title>transition_b1d5781111d84f7b3fe45a0852e59758cd7a87e5&#45;&gt;place_3101a69a049ac6abaa9e79f841734c3fde77190f</title>
<path fill="none" stroke="#333333" d="M1762.5105,-278.0019C1751.6255,-278.3381 1739.8963,-278.3326 1729.0388,-277.9855"/>
<polygon fill="#333333" stroke="#333333" points="1728.8487,-276.2272 1723.7863,-277.7876 1728.7169,-279.7247 1728.8487,-276.2272"/>
</g>
<!-- transition_17ba0791499db908433b80f37c5fbc89b870084b&#45;&gt;place_28a4143c6cf6a51a2b50b25061da23121d1ade49 -->
<g id="edge24" class="edge">
<title>transition_17ba0791499db908433b80f37c5fbc89b870084b&#45;&gt;place_28a4143c6cf6a51a2b50b25061da23121d1ade49</title>
<path fill="none" stroke="#333333" d="M1848.0953,-167.5C1858.0686,-167.5 1868.7499,-167.5 1879.0168,-167.5"/>
<polygon fill="#333333" stroke="#333333" points="1879.0187,-169.2501 1884.0187,-167.5 1879.0186,-165.7501 1879.0187,-169.2501"/>
</g>
<!-- transition_7b52009b64fd0a2a49e6d8a939753077792b0554&#45;&gt;place_62eaf9d719558cab721db86619620e14f62fdfa3 -->
<g id="edge26" class="edge">
<title>transition_7b52009b64fd0a2a49e6d8a939753077792b0554&#45;&gt;place_62eaf9d719558cab721db86619620e14f62fdfa3</title>
<path fill="none" stroke="#333333" d="M2086.2832,-167.5C2095.9894,-167.5 2106.5555,-167.5 2116.5207,-167.5"/>
<polygon fill="#333333" stroke="#333333" points="2116.6694,-169.2501 2121.6694,-167.5 2116.6693,-165.7501 2116.6694,-169.2501"/>
</g>
<!-- transition_bd307a3ec329e10a2cff8fb87480823da114f8f4&#45;&gt;place_62eaf9d719558cab721db86619620e14f62fdfa3 -->
<g id="edge28" class="edge">
<title>transition_bd307a3ec329e10a2cff8fb87480823da114f8f4&#45;&gt;place_62eaf9d719558cab721db86619620e14f62fdfa3</title>
<path fill="none" stroke="#333333" d="M2232.1875,-174.039C2221.2727,-174.3442 2209.5939,-174.3183 2198.8086,-173.9614"/>
<polygon fill="#333333" stroke="#333333" points="2198.6571,-172.2043 2193.5931,-173.7596 2198.5217,-175.7017 2198.6571,-172.2043"/>
</g>
<!-- transition_fa35e192121eabf3dabf9f5ea6abdbcbc107ac3b&#45;&gt;place_f15ff37c44db3a66773086032d26303622a26114 -->
<g id="edge30" class="edge">
<title>transition_fa35e192121eabf3dabf9f5ea6abdbcbc107ac3b&#45;&gt;place_f15ff37c44db3a66773086032d26303622a26114</title>
<path fill="none" stroke="#333333" d="M2321.3681,-60.5C2331.0822,-60.5 2341.4234,-60.5 2351.4122,-60.5"/>
<polygon fill="#333333" stroke="#333333" points="2351.5985,-62.2501 2356.5985,-60.5 2351.5984,-58.7501 2351.5985,-62.2501"/>
</g>
<!-- transition_f1abd670358e036c31296e66b3b66c382ac00812&#45;&gt;place_85f0932b50f25300dc3748b637ebc4e620662ade -->
<g id="edge32" class="edge">
<title>transition_f1abd670358e036c31296e66b3b66c382ac00812&#45;&gt;place_85f0932b50f25300dc3748b637ebc4e620662ade</title>
<path fill="none" stroke="#333333" d="M2611.2378,-60.5C2621.3484,-60.5 2631.7556,-60.5 2641.6249,-60.5"/>
<polygon fill="#333333" stroke="#333333" points="2641.7324,-62.2501 2646.7324,-60.5 2641.7324,-58.7501 2641.7324,-62.2501"/>
</g>
<!-- transition_1574bddb75c78a6fd2251d61e2993b5146201319&#45;&gt;place_4fee5c45437e00ac97c799bd8b0030c0bc3001a7 -->
<g id="edge34" class="edge">
<title>transition_1574bddb75c78a6fd2251d61e2993b5146201319&#45;&gt;place_4fee5c45437e00ac97c799bd8b0030c0bc3001a7</title>
<path fill="none" stroke="#333333" d="M2894.4221,-60.5C2904.5894,-60.5 2914.9555,-60.5 2924.5289,-60.5"/>
<polygon fill="#333333" stroke="#333333" points="2924.7597,-62.2501 2929.7596,-60.5 2924.7596,-58.7501 2924.7597,-62.2501"/>
</g>
<!-- transition_0716d9708d321ffb6a00818614779e779925365c&#45;&gt;place_691e1af3c33128ebc6d96a79495c445c116459a4 -->
<g id="edge36" class="edge">
<title>transition_0716d9708d321ffb6a00818614779e779925365c&#45;&gt;place_691e1af3c33128ebc6d96a79495c445c116459a4</title>
<path fill="none" stroke="#333333" d="M3115.3018,-60.5C3125.0658,-60.5 3135.6015,-60.5 3145.547,-60.5"/>
<polygon fill="#333333" stroke="#333333" points="3145.6869,-62.2501 3150.6869,-60.5 3145.6868,-58.7501 3145.6869,-62.2501"/>
</g>
</g>
</svg>
