<?xml version="1.0" encoding="UTF-8" standalone="no"?>
<!DOCTYPE svg PUBLIC "-//W3C//DTD SVG 1.1//EN"
 "http://www.w3.org/Graphics/SVG/1.1/DTD/svg11.dtd">
<!-- Generated by graphviz version 2.40.1 (20161225.0304)
 -->
<!-- Title: workflow Pages: 1 -->
<svg width="513pt" height="170pt"
 viewBox="0.00 0.00 513.33 170.00" xmlns="http://www.w3.org/2000/svg" xmlns:xlink="http://www.w3.org/1999/xlink">
<g id="graph0" class="graph" transform="scale(1 1) rotate(0) translate(4 166)">
<title>workflow</title>
<polygon fill="#ffffff" stroke="transparent" points="-4,4 -4,-166 509.3285,-166 509.3285,4 -4,4"/>
<!-- place_cf5dc6d0c647e827aec7dbe5b9341f9cdf05b8e2 -->
<g id="node1" class="node">
<title>place_cf5dc6d0c647e827aec7dbe5b9341f9cdf05b8e2</title>
<ellipse fill="#add8e6" stroke="#333333" cx="36" cy="-81" rx="36" ry="36"/>
<text text-anchor="middle" x="36" y="-78.8" font-family="Arial" font-size="9.00" fill="#000000">codestyle</text>
</g>
<!-- transition_b6589fc6ab0dc82cf12099d1c2d40ab994e8410c -->
<g id="node4" class="node">
<title>transition_b6589fc6ab0dc82cf12099d1c2d40ab994e8410c</title>
<polygon fill="none" stroke="#333333" points="180,-162 108,-162 108,-90 180,-90 180,-162"/>
<text text-anchor="middle" x="144" y="-123.8" font-family="Arial" font-size="9.00" fill="#000000">check</text>
</g>
<!-- place_cf5dc6d0c647e827aec7dbe5b9341f9cdf05b8e2&#45;&gt;transition_b6589fc6ab0dc82cf12099d1c2d40ab994e8410c -->
<g id="edge1" class="edge">
<title>place_cf5dc6d0c647e827aec7dbe5b9341f9cdf05b8e2&#45;&gt;transition_b6589fc6ab0dc82cf12099d1c2d40ab994e8410c</title>
<path fill="none" stroke="#333333" d="M69.2848,-94.8687C79.9141,-99.2975 91.8056,-104.2523 102.921,-108.8838"/>
<polygon fill="#333333" stroke="#333333" points="102.3429,-110.5387 107.6314,-110.8464 103.6891,-107.3079 102.3429,-110.5387"/>
</g>
<!-- transition_356a192b7913b04c54574d18c28d46e6395428ab -->
<g id="node5" class="node">
<title>transition_356a192b7913b04c54574d18c28d46e6395428ab</title>
<polygon fill="none" stroke="#333333" points="180,-72 108,-72 108,0 180,0 180,-72"/>
<text text-anchor="middle" x="144" y="-33.8" font-family="Arial" font-size="9.00" fill="#000000">fix</text>
</g>
<!-- place_cf5dc6d0c647e827aec7dbe5b9341f9cdf05b8e2&#45;&gt;transition_356a192b7913b04c54574d18c28d46e6395428ab -->
<g id="edge3" class="edge">
<title>place_cf5dc6d0c647e827aec7dbe5b9341f9cdf05b8e2&#45;&gt;transition_356a192b7913b04c54574d18c28d46e6395428ab</title>
<path fill="none" stroke="#333333" d="M69.2848,-67.1313C79.9141,-62.7025 91.8056,-57.7477 102.921,-53.1162"/>
<polygon fill="#333333" stroke="#333333" points="103.6891,-54.6921 107.6314,-51.1536 102.3429,-51.4613 103.6891,-54.6921"/>
</g>
<!-- place_682fbe823482c67714ea1ca2840b7ee470e4560f -->
<g id="node2" class="node">
<title>place_682fbe823482c67714ea1ca2840b7ee470e4560f</title>
<ellipse fill="none" stroke="#333333" cx="252.6642" cy="-81" rx="36.8292" ry="36.8292"/>
<text text-anchor="middle" x="252.6642" y="-78.8" font-family="Arial" font-size="9.00" fill="#000000">phstan&#45;check</text>
</g>
<!-- transition_da4b9237bacccdf19c0760cab7aec4a8359010b0 -->
<g id="node6" class="node">
<title>transition_da4b9237bacccdf19c0760cab7aec4a8359010b0</title>
<polygon fill="none" stroke="#333333" points="397.3285,-117 325.3285,-117 325.3285,-45 397.3285,-45 397.3285,-117"/>
<text text-anchor="middle" x="361.3285" y="-78.8" font-family="Arial" font-size="9.00" fill="#000000">phpstan</text>
</g>
<!-- place_682fbe823482c67714ea1ca2840b7ee470e4560f&#45;&gt;transition_da4b9237bacccdf19c0760cab7aec4a8359010b0 -->
<g id="edge5" class="edge">
<title>place_682fbe823482c67714ea1ca2840b7ee470e4560f&#45;&gt;transition_da4b9237bacccdf19c0760cab7aec4a8359010b0</title>
<path fill="none" stroke="#333333" d="M289.453,-81C299.3101,-81 310.0303,-81 320.11,-81"/>
<polygon fill="#333333" stroke="#333333" points="320.3147,-82.7501 325.3147,-81 320.3146,-79.2501 320.3147,-82.7501"/>
</g>
<!-- place_e5fd9cfe0e8039111d54b588e77b2bb0cad41c3a -->
<g id="node3" class="node">
<title>place_e5fd9cfe0e8039111d54b588e77b2bb0cad41c3a</title>
<ellipse fill="none" stroke="#333333" cx="469.3285" cy="-81" rx="36" ry="36"/>
<text text-anchor="middle" x="469.3285" y="-78.8" font-family="Arial" font-size="9.00" fill="#000000">done</text>
</g>
<!-- transition_b6589fc6ab0dc82cf12099d1c2d40ab994e8410c&#45;&gt;place_682fbe823482c67714ea1ca2840b7ee470e4560f -->
<g id="edge2" class="edge">
<title>transition_b6589fc6ab0dc82cf12099d1c2d40ab994e8410c&#45;&gt;place_682fbe823482c67714ea1ca2840b7ee470e4560f</title>
<path fill="none" stroke="#333333" d="M180.1836,-111.0157C190.988,-106.5414 202.8741,-101.6191 213.8403,-97.0778"/>
<polygon fill="#333333" stroke="#333333" points="214.528,-98.6872 218.4779,-95.1572 213.1888,-95.4535 214.528,-98.6872"/>
</g>
<!-- transition_356a192b7913b04c54574d18c28d46e6395428ab&#45;&gt;place_682fbe823482c67714ea1ca2840b7ee470e4560f -->
<g id="edge4" class="edge">
<title>transition_356a192b7913b04c54574d18c28d46e6395428ab&#45;&gt;place_682fbe823482c67714ea1ca2840b7ee470e4560f</title>
<path fill="none" stroke="#333333" d="M180.1836,-50.9843C190.988,-55.4586 202.8741,-60.3809 213.8403,-64.9222"/>
<polygon fill="#333333" stroke="#333333" points="213.1888,-66.5465 218.4779,-66.8428 214.528,-63.3128 213.1888,-66.5465"/>
</g>
<!-- transition_da4b9237bacccdf19c0760cab7aec4a8359010b0&#45;&gt;place_e5fd9cfe0e8039111d54b588e77b2bb0cad41c3a -->
<g id="edge6" class="edge">
<title>transition_da4b9237bacccdf19c0760cab7aec4a8359010b0&#45;&gt;place_e5fd9cfe0e8039111d54b588e77b2bb0cad41c3a</title>
<path fill="none" stroke="#333333" d="M397.5914,-81C407.2975,-81 417.8636,-81 427.8288,-81"/>
<polygon fill="#333333" stroke="#333333" points="427.9775,-82.7501 432.9775,-81 427.9774,-79.2501 427.9775,-82.7501"/>
</g>
</g>
</svg>
