<?xml version="1.0" encoding="UTF-8" standalone="no"?>
<!DOCTYPE svg PUBLIC "-//W3C//DTD SVG 1.1//EN"
 "http://www.w3.org/Graphics/SVG/1.1/DTD/svg11.dtd">
<!-- Generated by graphviz version 2.40.1 (20161225.0304)
 -->
<!-- Title: workflow Pages: 1 -->
<svg width="2846pt" height="204pt"
 viewBox="0.00 0.00 2845.87 204.00" xmlns="http://www.w3.org/2000/svg" xmlns:xlink="http://www.w3.org/1999/xlink">
<g id="graph0" class="graph" transform="scale(1 1) rotate(0) translate(4 200)">
<title>workflow</title>
<polygon fill="#ffffff" stroke="transparent" points="-4,4 -4,-200 2841.8725,-200 2841.8725,4 -4,4"/>
<!-- place_2b020927d3c6eb407223a1baa3d6ce3597a3f88d -->
<g id="node1" class="node">
<title>place_2b020927d3c6eb407223a1baa3d6ce3597a3f88d</title>
<ellipse fill="#add8e6" stroke="#333333" cx="36" cy="-84.5" rx="36" ry="36"/>
<text text-anchor="middle" x="36" y="-82.3" font-family="Arial" font-size="9.00" fill="#000000">start</text>
</g>
<!-- transition_b6589fc6ab0dc82cf12099d1c2d40ab994e8410c -->
<g id="node13" class="node">
<title>transition_b6589fc6ab0dc82cf12099d1c2d40ab994e8410c</title>
<polygon fill="none" stroke="#333333" points="180,-120.5 108,-120.5 108,-48.5 180,-48.5 180,-120.5"/>
<text text-anchor="middle" x="144" y="-82.3" font-family="Arial" font-size="9.00" fill="#000000">manifest</text>
</g>
<!-- place_2b020927d3c6eb407223a1baa3d6ce3597a3f88d&#45;&gt;transition_b6589fc6ab0dc82cf12099d1c2d40ab994e8410c -->
<g id="edge1" class="edge">
<title>place_2b020927d3c6eb407223a1baa3d6ce3597a3f88d&#45;&gt;transition_b6589fc6ab0dc82cf12099d1c2d40ab994e8410c</title>
<path fill="none" stroke="#333333" d="M72.2629,-84.5C81.969,-84.5 92.5352,-84.5 102.5004,-84.5"/>
<polygon fill="#333333" stroke="#333333" points="102.649,-86.2501 107.649,-84.5 102.649,-82.7501 102.649,-86.2501"/>
</g>
<!-- place_c5beef2de776a9eb64b6a612abeac7157e1e00a4 -->
<g id="node2" class="node">
<title>place_c5beef2de776a9eb64b6a612abeac7157e1e00a4</title>
<ellipse fill="none" stroke="#333333" cx="252" cy="-84.5" rx="36" ry="36"/>
<text text-anchor="middle" x="252" y="-82.3" font-family="Arial" font-size="9.00" fill="#000000">manifest</text>
</g>
<!-- transition_356a192b7913b04c54574d18c28d46e6395428ab -->
<g id="node14" class="node">
<title>transition_356a192b7913b04c54574d18c28d46e6395428ab</title>
<polygon fill="none" stroke="#333333" points="396,-120.5 324,-120.5 324,-48.5 396,-48.5 396,-120.5"/>
<text text-anchor="middle" x="360" y="-82.3" font-family="Arial" font-size="9.00" fill="#000000">config</text>
</g>
<!-- place_c5beef2de776a9eb64b6a612abeac7157e1e00a4&#45;&gt;transition_356a192b7913b04c54574d18c28d46e6395428ab -->
<g id="edge3" class="edge">
<title>place_c5beef2de776a9eb64b6a612abeac7157e1e00a4&#45;&gt;transition_356a192b7913b04c54574d18c28d46e6395428ab</title>
<path fill="none" stroke="#333333" d="M288.2629,-84.5C297.969,-84.5 308.5352,-84.5 318.5004,-84.5"/>
<polygon fill="#333333" stroke="#333333" points="318.649,-86.2501 323.649,-84.5 318.649,-82.7501 318.649,-86.2501"/>
</g>
<!-- place_dfba7aade0868074c2861c98e2a9a92f3178a51b -->
<g id="node3" class="node">
<title>place_dfba7aade0868074c2861c98e2a9a92f3178a51b</title>
<ellipse fill="none" stroke="#333333" cx="468" cy="-84.5" rx="36" ry="36"/>
<text text-anchor="middle" x="468" y="-82.3" font-family="Arial" font-size="9.00" fill="#000000">config</text>
</g>
<!-- transition_da4b9237bacccdf19c0760cab7aec4a8359010b0 -->
<g id="node15" class="node">
<title>transition_da4b9237bacccdf19c0760cab7aec4a8359010b0</title>
<polygon fill="none" stroke="#333333" points="612,-120.5 540,-120.5 540,-48.5 612,-48.5 612,-120.5"/>
<text text-anchor="middle" x="576" y="-82.3" font-family="Arial" font-size="9.00" fill="#000000">translation</text>
</g>
<!-- place_dfba7aade0868074c2861c98e2a9a92f3178a51b&#45;&gt;transition_da4b9237bacccdf19c0760cab7aec4a8359010b0 -->
<g id="edge5" class="edge">
<title>place_dfba7aade0868074c2861c98e2a9a92f3178a51b&#45;&gt;transition_da4b9237bacccdf19c0760cab7aec4a8359010b0</title>
<path fill="none" stroke="#333333" d="M504.2629,-84.5C513.969,-84.5 524.5352,-84.5 534.5004,-84.5"/>
<polygon fill="#333333" stroke="#333333" points="534.649,-86.2501 539.649,-84.5 534.649,-82.7501 534.649,-86.2501"/>
</g>
<!-- place_efd7fd7f2954713c1ee7facf9750fe53e8cf589c -->
<g id="node4" class="node">
<title>place_efd7fd7f2954713c1ee7facf9750fe53e8cf589c</title>
<ellipse fill="none" stroke="#333333" cx="684" cy="-84.5" rx="36" ry="36"/>
<text text-anchor="middle" x="684" y="-82.3" font-family="Arial" font-size="9.00" fill="#000000">translation</text>
</g>
<!-- transition_77de68daecd823babbb58edb1c8e14d7106e83bb -->
<g id="node16" class="node">
<title>transition_77de68daecd823babbb58edb1c8e14d7106e83bb</title>
<polygon fill="none" stroke="#333333" points="828,-120.5 756,-120.5 756,-48.5 828,-48.5 828,-120.5"/>
<text text-anchor="middle" x="792" y="-82.3" font-family="Arial" font-size="9.00" fill="#000000">aop_validate</text>
</g>
<!-- place_efd7fd7f2954713c1ee7facf9750fe53e8cf589c&#45;&gt;transition_77de68daecd823babbb58edb1c8e14d7106e83bb -->
<g id="edge7" class="edge">
<title>place_efd7fd7f2954713c1ee7facf9750fe53e8cf589c&#45;&gt;transition_77de68daecd823babbb58edb1c8e14d7106e83bb</title>
<path fill="none" stroke="#333333" d="M720.2629,-84.5C729.969,-84.5 740.5352,-84.5 750.5004,-84.5"/>
<polygon fill="#333333" stroke="#333333" points="750.649,-86.2501 755.649,-84.5 750.649,-82.7501 750.649,-86.2501"/>
</g>
<!-- place_2dac4fc321f1087d189806b2f225701ceaf4278c -->
<g id="node5" class="node">
<title>place_2dac4fc321f1087d189806b2f225701ceaf4278c</title>
<ellipse fill="none" stroke="#333333" cx="901.697" cy="-84.5" rx="37.8951" ry="37.8951"/>
<text text-anchor="middle" x="901.697" y="-82.3" font-family="Arial" font-size="9.00" fill="#000000">aop&#45;validated</text>
</g>
<!-- transition_1b6453892473a467d07372d45eb05abc2031647a -->
<g id="node17" class="node">
<title>transition_1b6453892473a467d07372d45eb05abc2031647a</title>
<polygon fill="none" stroke="#333333" points="1047.3941,-120.5 975.3941,-120.5 975.3941,-48.5 1047.3941,-48.5 1047.3941,-120.5"/>
<text text-anchor="middle" x="1011.3941" y="-82.3" font-family="Arial" font-size="9.00" fill="#000000">openapi</text>
</g>
<!-- place_2dac4fc321f1087d189806b2f225701ceaf4278c&#45;&gt;transition_1b6453892473a467d07372d45eb05abc2031647a -->
<g id="edge9" class="edge">
<title>place_2dac4fc321f1087d189806b2f225701ceaf4278c&#45;&gt;transition_1b6453892473a467d07372d45eb05abc2031647a</title>
<path fill="none" stroke="#333333" d="M939.4485,-84.5C949.2649,-84.5 959.893,-84.5 969.8912,-84.5"/>
<polygon fill="#333333" stroke="#333333" points="970.0546,-86.2501 975.0546,-84.5 970.0546,-82.7501 970.0546,-86.2501"/>
</g>
<!-- place_3101a69a049ac6abaa9e79f841734c3fde77190f -->
<g id="node6" class="node">
<title>place_3101a69a049ac6abaa9e79f841734c3fde77190f</title>
<ellipse fill="none" stroke="#333333" cx="1119.3941" cy="-84.5" rx="36" ry="36"/>
<text text-anchor="middle" x="1119.3941" y="-82.3" font-family="Arial" font-size="9.00" fill="#000000">openapi</text>
</g>
<!-- transition_ac3478d69a3c81fa62e60f5c3696165a4e5e6ac4 -->
<g id="node18" class="node">
<title>transition_ac3478d69a3c81fa62e60f5c3696165a4e5e6ac4</title>
<polygon fill="none" stroke="#333333" points="1279.3941,-128.5 1191.3941,-128.5 1191.3941,-40.5 1279.3941,-40.5 1279.3941,-128.5"/>
<text text-anchor="middle" x="1235.3941" y="-82.3" font-family="Arial" font-size="9.00" fill="#000000">openapi_validate</text>
</g>
<!-- place_3101a69a049ac6abaa9e79f841734c3fde77190f&#45;&gt;transition_ac3478d69a3c81fa62e60f5c3696165a4e5e6ac4 -->
<g id="edge11" class="edge">
<title>place_3101a69a049ac6abaa9e79f841734c3fde77190f&#45;&gt;transition_ac3478d69a3c81fa62e60f5c3696165a4e5e6ac4</title>
<path fill="none" stroke="#333333" d="M1155.4613,-84.5C1165.1777,-84.5 1175.8572,-84.5 1186.159,-84.5"/>
<polygon fill="#333333" stroke="#333333" points="1186.1801,-86.2501 1191.1801,-84.5 1186.18,-82.7501 1186.1801,-86.2501"/>
</g>
<!-- place_28a4143c6cf6a51a2b50b25061da23121d1ade49 -->
<g id="node7" class="node">
<title>place_28a4143c6cf6a51a2b50b25061da23121d1ade49</title>
<ellipse fill="none" stroke="#333333" cx="1362.3863" cy="-84.5" rx="46.9844" ry="46.9844"/>
<text text-anchor="middle" x="1362.3863" y="-82.3" font-family="Arial" font-size="9.00" fill="#000000">openapi&#45;validated</text>
</g>
<!-- transition_c1dfd96eea8cc2b62785275bca38ac261256e278 -->
<g id="node19" class="node">
<title>transition_c1dfd96eea8cc2b62785275bca38ac261256e278</title>
<polygon fill="none" stroke="#333333" points="1563.3785,-143.5 1445.3785,-143.5 1445.3785,-25.5 1563.3785,-25.5 1563.3785,-143.5"/>
<text text-anchor="middle" x="1504.3785" y="-82.3" font-family="Arial" font-size="9.00" fill="#000000">openapi_generate_code</text>
</g>
<!-- place_28a4143c6cf6a51a2b50b25061da23121d1ade49&#45;&gt;transition_c1dfd96eea8cc2b62785275bca38ac261256e278 -->
<g id="edge13" class="edge">
<title>place_28a4143c6cf6a51a2b50b25061da23121d1ade49&#45;&gt;transition_c1dfd96eea8cc2b62785275bca38ac261256e278</title>
<path fill="none" stroke="#333333" d="M1409.6676,-84.5C1419.4432,-84.5 1429.8964,-84.5 1440.159,-84.5"/>
<polygon fill="#333333" stroke="#333333" points="1440.178,-86.2501 1445.178,-84.5 1440.1779,-82.7501 1440.178,-86.2501"/>
</g>
<!-- place_62eaf9d719558cab721db86619620e14f62fdfa3 -->
<g id="node8" class="node">
<title>place_62eaf9d719558cab721db86619620e14f62fdfa3</title>
<ellipse fill="none" stroke="#333333" cx="1853.8785" cy="-131.5" rx="36" ry="36"/>
<text text-anchor="middle" x="1853.8785" y="-129.3" font-family="Arial" font-size="9.00" fill="#000000">asyncapi</text>
</g>
<!-- transition_fe5dbbcea5ce7e2988b8c69bcfdfde8904aabc1f -->
<g id="node21" class="node">
<title>transition_fe5dbbcea5ce7e2988b8c69bcfdfde8904aabc1f</title>
<polygon fill="none" stroke="#333333" points="2019.3785,-177 1928.3785,-177 1928.3785,-86 2019.3785,-86 2019.3785,-177"/>
<text text-anchor="middle" x="1973.8785" y="-129.3" font-family="Arial" font-size="9.00" fill="#000000">asyncapi_validate</text>
</g>
<!-- place_62eaf9d719558cab721db86619620e14f62fdfa3&#45;&gt;transition_fe5dbbcea5ce7e2988b8c69bcfdfde8904aabc1f -->
<g id="edge17" class="edge">
<title>place_62eaf9d719558cab721db86619620e14f62fdfa3&#45;&gt;transition_fe5dbbcea5ce7e2988b8c69bcfdfde8904aabc1f</title>
<path fill="none" stroke="#333333" d="M1889.8824,-131.5C1900.2994,-131.5 1911.8718,-131.5 1923.0137,-131.5"/>
<polygon fill="#333333" stroke="#333333" points="1923.0971,-133.2501 1928.097,-131.5 1923.097,-129.7501 1923.0971,-133.2501"/>
</g>
<!-- place_f15ff37c44db3a66773086032d26303622a26114 -->
<g id="node9" class="node">
<title>place_f15ff37c44db3a66773086032d26303622a26114</title>
<ellipse fill="none" stroke="#333333" cx="2103.9199" cy="-131.5" rx="48.5828" ry="48.5828"/>
<text text-anchor="middle" x="2103.9199" y="-129.3" font-family="Arial" font-size="9.00" fill="#000000">asyncapi&#45;validated</text>
</g>
<!-- transition_0ade7c2cf97f75d009975f4d720d1fa6c19f4897 -->
<g id="node22" class="node">
<title>transition_0ade7c2cf97f75d009975f4d720d1fa6c19f4897</title>
<polygon fill="none" stroke="#333333" points="2309.4613,-192 2188.4613,-192 2188.4613,-71 2309.4613,-71 2309.4613,-192"/>
<text text-anchor="middle" x="2248.9613" y="-129.3" font-family="Arial" font-size="9.00" fill="#000000">asyncapi_generate_code</text>
</g>
<!-- place_f15ff37c44db3a66773086032d26303622a26114&#45;&gt;transition_0ade7c2cf97f75d009975f4d720d1fa6c19f4897 -->
<g id="edge19" class="edge">
<title>place_f15ff37c44db3a66773086032d26303622a26114&#45;&gt;transition_0ade7c2cf97f75d009975f4d720d1fa6c19f4897</title>
<path fill="none" stroke="#333333" d="M2152.62,-131.5C2162.4507,-131.5 2172.9382,-131.5 2183.2411,-131.5"/>
<polygon fill="#333333" stroke="#333333" points="2183.2804,-133.2501 2188.2804,-131.5 2183.2803,-129.7501 2183.2804,-133.2501"/>
</g>
<!-- place_d3116a051d01a12785250aa160d80030fe53a00f -->
<g id="node10" class="node">
<title>place_d3116a051d01a12785250aa160d80030fe53a00f</title>
<ellipse fill="none" stroke="#333333" cx="2393.4862" cy="-131.5" rx="48.05" ry="48.05"/>
<text text-anchor="middle" x="2393.4862" y="-129.3" font-family="Arial" font-size="9.00" fill="#000000">asyncapi&#45;generate</text>
</g>
<!-- transition_17ba0791499db908433b80f37c5fbc89b870084b -->
<g id="node24" class="node">
<title>transition_17ba0791499db908433b80f37c5fbc89b870084b</title>
<polygon fill="none" stroke="#333333" points="2606.5112,-196 2477.5112,-196 2477.5112,-67 2606.5112,-67 2606.5112,-196"/>
<text text-anchor="middle" x="2542.0112" y="-129.3" font-family="Arial" font-size="9.00" fill="#000000">pbc_validation_from_async</text>
</g>
<!-- place_d3116a051d01a12785250aa160d80030fe53a00f&#45;&gt;transition_17ba0791499db908433b80f37c5fbc89b870084b -->
<g id="edge23" class="edge">
<title>place_d3116a051d01a12785250aa160d80030fe53a00f&#45;&gt;transition_17ba0791499db908433b80f37c5fbc89b870084b</title>
<path fill="none" stroke="#333333" d="M2441.7081,-131.5C2451.4622,-131.5 2461.9027,-131.5 2472.2273,-131.5"/>
<polygon fill="#333333" stroke="#333333" points="2472.2829,-133.2501 2477.2829,-131.5 2472.2829,-129.7501 2472.2829,-133.2501"/>
</g>
<!-- place_4fee5c45437e00ac97c799bd8b0030c0bc3001a7 -->
<g id="node11" class="node">
<title>place_4fee5c45437e00ac97c799bd8b0030c0bc3001a7</title>
<ellipse fill="none" stroke="#333333" cx="1635.3785" cy="-84.5" rx="36" ry="36"/>
<text text-anchor="middle" x="1635.3785" y="-82.3" font-family="Arial" font-size="9.00" fill="#000000">pbc&#45;validate</text>
</g>
<!-- transition_902ba3cda1883801594b6e1b452790cc53948fda -->
<g id="node20" class="node">
<title>transition_902ba3cda1883801594b6e1b452790cc53948fda</title>
<polygon fill="none" stroke="#333333" points="1779.3785,-159.5 1707.3785,-159.5 1707.3785,-87.5 1779.3785,-87.5 1779.3785,-159.5"/>
<text text-anchor="middle" x="1743.3785" y="-121.3" font-family="Arial" font-size="9.00" fill="#000000">asyncapi</text>
</g>
<!-- place_4fee5c45437e00ac97c799bd8b0030c0bc3001a7&#45;&gt;transition_902ba3cda1883801594b6e1b452790cc53948fda -->
<g id="edge15" class="edge">
<title>place_4fee5c45437e00ac97c799bd8b0030c0bc3001a7&#45;&gt;transition_902ba3cda1883801594b6e1b452790cc53948fda</title>
<path fill="none" stroke="#333333" d="M1669.254,-96.7328C1679.6612,-100.491 1691.2321,-104.6694 1702.0783,-108.5861"/>
<polygon fill="#333333" stroke="#333333" points="1701.7068,-110.3124 1707.004,-110.3648 1702.8956,-107.0205 1701.7068,-110.3124"/>
</g>
<!-- transition_b1d5781111d84f7b3fe45a0852e59758cd7a87e5 -->
<g id="node23" class="node">
<title>transition_b1d5781111d84f7b3fe45a0852e59758cd7a87e5</title>
<polygon fill="none" stroke="#333333" points="1892.3785,-77 1815.3785,-77 1815.3785,0 1892.3785,0 1892.3785,-77"/>
<text text-anchor="middle" x="1853.8785" y="-36.3" font-family="Arial" font-size="9.00" fill="#000000">pbc_validation</text>
</g>
<!-- place_4fee5c45437e00ac97c799bd8b0030c0bc3001a7&#45;&gt;transition_b1d5781111d84f7b3fe45a0852e59758cd7a87e5 -->
<g id="edge21" class="edge">
<title>place_4fee5c45437e00ac97c799bd8b0030c0bc3001a7&#45;&gt;transition_b1d5781111d84f7b3fe45a0852e59758cd7a87e5</title>
<path fill="none" stroke="#333333" d="M1670.9706,-77.0069C1708.9303,-69.0154 1769.0971,-56.3487 1809.972,-47.7435"/>
<polygon fill="#333333" stroke="#333333" points="1810.825,-49.3523 1815.3572,-46.6097 1810.1039,-45.9274 1810.825,-49.3523"/>
</g>
<!-- place_691e1af3c33128ebc6d96a79495c445c116459a4 -->
<g id="node12" class="node">
<title>place_691e1af3c33128ebc6d96a79495c445c116459a4</title>
<ellipse fill="none" stroke="#333333" cx="2679.6919" cy="-84.5" rx="37.3622" ry="37.3622"/>
<text text-anchor="middle" x="2679.6919" y="-82.3" font-family="Arial" font-size="9.00" fill="#000000">pbc&#45;validated</text>
</g>
<!-- transition_7b52009b64fd0a2a49e6d8a939753077792b0554 -->
<g id="node25" class="node">
<title>transition_7b52009b64fd0a2a49e6d8a939753077792b0554</title>
<polygon fill="none" stroke="#333333" points="2837.8725,-127 2752.8725,-127 2752.8725,-42 2837.8725,-42 2837.8725,-127"/>
<text text-anchor="middle" x="2795.3725" y="-82.3" font-family="Arial" font-size="9.00" fill="#000000">pbc_revalidation</text>
</g>
<!-- place_691e1af3c33128ebc6d96a79495c445c116459a4&#45;&gt;transition_7b52009b64fd0a2a49e6d8a939753077792b0554 -->
<g id="edge25" class="edge">
<title>place_691e1af3c33128ebc6d96a79495c445c116459a4&#45;&gt;transition_7b52009b64fd0a2a49e6d8a939753077792b0554</title>
<path fill="none" stroke="#333333" d="M2716.612,-78.1588C2726.4994,-77.7558 2737.3294,-77.6508 2747.708,-77.8437"/>
<polygon fill="#333333" stroke="#333333" points="2747.7209,-79.5944 2752.7607,-77.9624 2747.8032,-76.0954 2747.7209,-79.5944"/>
</g>
<!-- transition_b6589fc6ab0dc82cf12099d1c2d40ab994e8410c&#45;&gt;place_c5beef2de776a9eb64b6a612abeac7157e1e00a4 -->
<g id="edge2" class="edge">
<title>transition_b6589fc6ab0dc82cf12099d1c2d40ab994e8410c&#45;&gt;place_c5beef2de776a9eb64b6a612abeac7157e1e00a4</title>
<path fill="none" stroke="#333333" d="M180.2629,-84.5C189.969,-84.5 200.5352,-84.5 210.5004,-84.5"/>
<polygon fill="#333333" stroke="#333333" points="210.649,-86.2501 215.649,-84.5 210.649,-82.7501 210.649,-86.2501"/>
</g>
<!-- transition_356a192b7913b04c54574d18c28d46e6395428ab&#45;&gt;place_dfba7aade0868074c2861c98e2a9a92f3178a51b -->
<g id="edge4" class="edge">
<title>transition_356a192b7913b04c54574d18c28d46e6395428ab&#45;&gt;place_dfba7aade0868074c2861c98e2a9a92f3178a51b</title>
<path fill="none" stroke="#333333" d="M396.2629,-84.5C405.969,-84.5 416.5352,-84.5 426.5004,-84.5"/>
<polygon fill="#333333" stroke="#333333" points="426.649,-86.2501 431.649,-84.5 426.649,-82.7501 426.649,-86.2501"/>
</g>
<!-- transition_da4b9237bacccdf19c0760cab7aec4a8359010b0&#45;&gt;place_efd7fd7f2954713c1ee7facf9750fe53e8cf589c -->
<g id="edge6" class="edge">
<title>transition_da4b9237bacccdf19c0760cab7aec4a8359010b0&#45;&gt;place_efd7fd7f2954713c1ee7facf9750fe53e8cf589c</title>
<path fill="none" stroke="#333333" d="M612.2629,-84.5C621.969,-84.5 632.5352,-84.5 642.5004,-84.5"/>
<polygon fill="#333333" stroke="#333333" points="642.649,-86.2501 647.649,-84.5 642.649,-82.7501 642.649,-86.2501"/>
</g>
<!-- transition_77de68daecd823babbb58edb1c8e14d7106e83bb&#45;&gt;place_2dac4fc321f1087d189806b2f225701ceaf4278c -->
<g id="edge8" class="edge">
<title>transition_77de68daecd823babbb58edb1c8e14d7106e83bb&#45;&gt;place_2dac4fc321f1087d189806b2f225701ceaf4278c</title>
<path fill="none" stroke="#333333" d="M828.2229,-84.5C837.895,-84.5 848.444,-84.5 858.4526,-84.5"/>
<polygon fill="#333333" stroke="#333333" points="858.6298,-86.2501 863.6298,-84.5 858.6298,-82.7501 858.6298,-86.2501"/>
</g>
<!-- transition_1b6453892473a467d07372d45eb05abc2031647a&#45;&gt;place_3101a69a049ac6abaa9e79f841734c3fde77190f -->
<g id="edge10" class="edge">
<title>transition_1b6453892473a467d07372d45eb05abc2031647a&#45;&gt;place_3101a69a049ac6abaa9e79f841734c3fde77190f</title>
<path fill="none" stroke="#333333" d="M1047.657,-84.5C1057.3631,-84.5 1067.9292,-84.5 1077.8944,-84.5"/>
<polygon fill="#333333" stroke="#333333" points="1078.0431,-86.2501 1083.0431,-84.5 1078.043,-82.7501 1078.0431,-86.2501"/>
</g>
<!-- transition_ac3478d69a3c81fa62e60f5c3696165a4e5e6ac4&#45;&gt;place_28a4143c6cf6a51a2b50b25061da23121d1ade49 -->
<g id="edge12" class="edge">
<title>transition_ac3478d69a3c81fa62e60f5c3696165a4e5e6ac4&#45;&gt;place_28a4143c6cf6a51a2b50b25061da23121d1ade49</title>
<path fill="none" stroke="#333333" d="M1279.4534,-84.5C1289.4267,-84.5 1300.108,-84.5 1310.3749,-84.5"/>
<polygon fill="#333333" stroke="#333333" points="1310.3768,-86.2501 1315.3768,-84.5 1310.3767,-82.7501 1310.3768,-86.2501"/>
</g>
<!-- transition_c1dfd96eea8cc2b62785275bca38ac261256e278&#45;&gt;place_4fee5c45437e00ac97c799bd8b0030c0bc3001a7 -->
<g id="edge14" class="edge">
<title>transition_c1dfd96eea8cc2b62785275bca38ac261256e278&#45;&gt;place_4fee5c45437e00ac97c799bd8b0030c0bc3001a7</title>
<path fill="none" stroke="#333333" d="M1563.7458,-84.5C1573.9131,-84.5 1584.2792,-84.5 1593.8526,-84.5"/>
<polygon fill="#333333" stroke="#333333" points="1594.0834,-86.2501 1599.0834,-84.5 1594.0833,-82.7501 1594.0834,-86.2501"/>
</g>
<!-- transition_902ba3cda1883801594b6e1b452790cc53948fda&#45;&gt;place_62eaf9d719558cab721db86619620e14f62fdfa3 -->
<g id="edge16" class="edge">
<title>transition_902ba3cda1883801594b6e1b452790cc53948fda&#45;&gt;place_62eaf9d719558cab721db86619620e14f62fdfa3</title>
<path fill="none" stroke="#333333" d="M1779.5603,-126.1195C1790.054,-126.8792 1801.5936,-127.7147 1812.3855,-128.496"/>
<polygon fill="#333333" stroke="#333333" points="1812.502,-130.2589 1817.6154,-128.8746 1812.7548,-126.768 1812.502,-130.2589"/>
</g>
<!-- transition_fe5dbbcea5ce7e2988b8c69bcfdfde8904aabc1f&#45;&gt;place_f15ff37c44db3a66773086032d26303622a26114 -->
<g id="edge18" class="edge">
<title>transition_fe5dbbcea5ce7e2988b8c69bcfdfde8904aabc1f&#45;&gt;place_f15ff37c44db3a66773086032d26303622a26114</title>
<path fill="none" stroke="#333333" d="M2019.7262,-131.5C2029.4403,-131.5 2039.7815,-131.5 2049.7703,-131.5"/>
<polygon fill="#333333" stroke="#333333" points="2049.9566,-133.2501 2054.9566,-131.5 2049.9565,-129.7501 2049.9566,-133.2501"/>
</g>
<!-- transition_0ade7c2cf97f75d009975f4d720d1fa6c19f4897&#45;&gt;place_d3116a051d01a12785250aa160d80030fe53a00f -->
<g id="edge20" class="edge">
<title>transition_0ade7c2cf97f75d009975f4d720d1fa6c19f4897&#45;&gt;place_d3116a051d01a12785250aa160d80030fe53a00f</title>
<path fill="none" stroke="#333333" d="M2309.834,-131.5C2319.9507,-131.5 2330.3729,-131.5 2340.2804,-131.5"/>
<polygon fill="#333333" stroke="#333333" points="2340.4102,-133.2501 2345.4102,-131.5 2340.4101,-129.7501 2340.4102,-133.2501"/>
</g>
<!-- transition_b1d5781111d84f7b3fe45a0852e59758cd7a87e5&#45;&gt;place_691e1af3c33128ebc6d96a79495c445c116459a4 -->
<g id="edge22" class="edge">
<title>transition_b1d5781111d84f7b3fe45a0852e59758cd7a87e5&#45;&gt;place_691e1af3c33128ebc6d96a79495c445c116459a4</title>
<path fill="none" stroke="#333333" d="M1892.4298,-38.5C1941.5411,-38.5 2029.0377,-38.5 2103.9199,-38.5 2103.9199,-38.5 2103.9199,-38.5 2393.4862,-38.5 2488.5399,-38.5 2513.7737,-36.6446 2606.5112,-57.5 2617.7395,-60.0251 2629.5777,-63.8492 2640.3834,-67.8315"/>
<polygon fill="#333333" stroke="#333333" points="2639.9736,-69.547 2645.2697,-69.6683 2641.2052,-66.2708 2639.9736,-69.547"/>
</g>
<!-- transition_17ba0791499db908433b80f37c5fbc89b870084b&#45;&gt;place_691e1af3c33128ebc6d96a79495c445c116459a4 -->
<g id="edge24" class="edge">
<title>transition_17ba0791499db908433b80f37c5fbc89b870084b&#45;&gt;place_691e1af3c33128ebc6d96a79495c445c116459a4</title>
<path fill="none" stroke="#333333" d="M2606.82,-109.3763C2617.9685,-105.5705 2629.2585,-101.7164 2639.5151,-98.2151"/>
<polygon fill="#333333" stroke="#333333" points="2640.2954,-99.798 2644.4619,-96.5264 2639.1647,-96.4857 2640.2954,-99.798"/>
</g>
<!-- transition_7b52009b64fd0a2a49e6d8a939753077792b0554&#45;&gt;place_691e1af3c33128ebc6d96a79495c445c116459a4 -->
<g id="edge26" class="edge">
<title>transition_7b52009b64fd0a2a49e6d8a939753077792b0554&#45;&gt;place_691e1af3c33128ebc6d96a79495c445c116459a4</title>
<path fill="none" stroke="#333333" d="M2752.7607,-91.0376C2742.6597,-91.3255 2731.8916,-91.3207 2721.8127,-91.0234"/>
<polygon fill="#333333" stroke="#333333" points="2721.6702,-89.2674 2716.612,-90.8412 2721.5477,-92.7653 2721.6702,-89.2674"/>
</g>
</g>
</svg>
