<?xml version="1.0" encoding="UTF-8" standalone="no"?>
<!DOCTYPE svg PUBLIC "-//W3C//DTD SVG 1.1//EN"
 "http://www.w3.org/Graphics/SVG/1.1/DTD/svg11.dtd">
<!-- Generated by graphviz version 2.40.1 (20161225.0304)
 -->
<!-- Title: workflow Pages: 1 -->
<svg width="2789pt" height="179pt"
 viewBox="0.00 0.00 2788.87 178.50" xmlns="http://www.w3.org/2000/svg" xmlns:xlink="http://www.w3.org/1999/xlink">
<g id="graph0" class="graph" transform="scale(1 1) rotate(0) translate(4 174.5)">
<title>workflow</title>
<polygon fill="#ffffff" stroke="transparent" points="-4,4 -4,-174.5 2784.8725,-174.5 2784.8725,4 -4,4"/>
<!-- place_2b020927d3c6eb407223a1baa3d6ce3597a3f88d -->
<g id="node1" class="node">
<title>place_2b020927d3c6eb407223a1baa3d6ce3597a3f88d</title>
<ellipse fill="#add8e6" stroke="#333333" cx="36" cy="-53" rx="36" ry="36"/>
<text text-anchor="middle" x="36" y="-50.8" font-family="Arial" font-size="9.00" fill="#000000">start</text>
</g>
<!-- transition_b6589fc6ab0dc82cf12099d1c2d40ab994e8410c -->
<g id="node13" class="node">
<title>transition_b6589fc6ab0dc82cf12099d1c2d40ab994e8410c</title>
<polygon fill="none" stroke="#333333" points="180,-89 108,-89 108,-17 180,-17 180,-89"/>
<text text-anchor="middle" x="144" y="-50.8" font-family="Arial" font-size="9.00" fill="#000000">manifest</text>
</g>
<!-- place_2b020927d3c6eb407223a1baa3d6ce3597a3f88d&#45;&gt;transition_b6589fc6ab0dc82cf12099d1c2d40ab994e8410c -->
<g id="edge1" class="edge">
<title>place_2b020927d3c6eb407223a1baa3d6ce3597a3f88d&#45;&gt;transition_b6589fc6ab0dc82cf12099d1c2d40ab994e8410c</title>
<path fill="none" stroke="#333333" d="M72.2629,-53C81.969,-53 92.5352,-53 102.5004,-53"/>
<polygon fill="#333333" stroke="#333333" points="102.649,-54.7501 107.649,-53 102.649,-51.2501 102.649,-54.7501"/>
</g>
<!-- place_c5beef2de776a9eb64b6a612abeac7157e1e00a4 -->
<g id="node2" class="node">
<title>place_c5beef2de776a9eb64b6a612abeac7157e1e00a4</title>
<ellipse fill="none" stroke="#333333" cx="252" cy="-53" rx="36" ry="36"/>
<text text-anchor="middle" x="252" y="-50.8" font-family="Arial" font-size="9.00" fill="#000000">manifest</text>
</g>
<!-- transition_356a192b7913b04c54574d18c28d46e6395428ab -->
<g id="node14" class="node">
<title>transition_356a192b7913b04c54574d18c28d46e6395428ab</title>
<polygon fill="none" stroke="#333333" points="396,-89 324,-89 324,-17 396,-17 396,-89"/>
<text text-anchor="middle" x="360" y="-50.8" font-family="Arial" font-size="9.00" fill="#000000">config</text>
</g>
<!-- place_c5beef2de776a9eb64b6a612abeac7157e1e00a4&#45;&gt;transition_356a192b7913b04c54574d18c28d46e6395428ab -->
<g id="edge3" class="edge">
<title>place_c5beef2de776a9eb64b6a612abeac7157e1e00a4&#45;&gt;transition_356a192b7913b04c54574d18c28d46e6395428ab</title>
<path fill="none" stroke="#333333" d="M288.2629,-53C297.969,-53 308.5352,-53 318.5004,-53"/>
<polygon fill="#333333" stroke="#333333" points="318.649,-54.7501 323.649,-53 318.649,-51.2501 318.649,-54.7501"/>
</g>
<!-- place_dfba7aade0868074c2861c98e2a9a92f3178a51b -->
<g id="node3" class="node">
<title>place_dfba7aade0868074c2861c98e2a9a92f3178a51b</title>
<ellipse fill="none" stroke="#333333" cx="468" cy="-53" rx="36" ry="36"/>
<text text-anchor="middle" x="468" y="-50.8" font-family="Arial" font-size="9.00" fill="#000000">config</text>
</g>
<!-- transition_da4b9237bacccdf19c0760cab7aec4a8359010b0 -->
<g id="node15" class="node">
<title>transition_da4b9237bacccdf19c0760cab7aec4a8359010b0</title>
<polygon fill="none" stroke="#333333" points="612,-89 540,-89 540,-17 612,-17 612,-89"/>
<text text-anchor="middle" x="576" y="-50.8" font-family="Arial" font-size="9.00" fill="#000000">translation</text>
</g>
<!-- place_dfba7aade0868074c2861c98e2a9a92f3178a51b&#45;&gt;transition_da4b9237bacccdf19c0760cab7aec4a8359010b0 -->
<g id="edge5" class="edge">
<title>place_dfba7aade0868074c2861c98e2a9a92f3178a51b&#45;&gt;transition_da4b9237bacccdf19c0760cab7aec4a8359010b0</title>
<path fill="none" stroke="#333333" d="M504.2629,-53C513.969,-53 524.5352,-53 534.5004,-53"/>
<polygon fill="#333333" stroke="#333333" points="534.649,-54.7501 539.649,-53 534.649,-51.2501 534.649,-54.7501"/>
</g>
<!-- place_efd7fd7f2954713c1ee7facf9750fe53e8cf589c -->
<g id="node4" class="node">
<title>place_efd7fd7f2954713c1ee7facf9750fe53e8cf589c</title>
<ellipse fill="none" stroke="#333333" cx="684" cy="-53" rx="36" ry="36"/>
<text text-anchor="middle" x="684" y="-50.8" font-family="Arial" font-size="9.00" fill="#000000">translation</text>
</g>
<!-- transition_77de68daecd823babbb58edb1c8e14d7106e83bb -->
<g id="node16" class="node">
<title>transition_77de68daecd823babbb58edb1c8e14d7106e83bb</title>
<polygon fill="none" stroke="#333333" points="828,-89 756,-89 756,-17 828,-17 828,-89"/>
<text text-anchor="middle" x="792" y="-50.8" font-family="Arial" font-size="9.00" fill="#000000">aop_validate</text>
</g>
<!-- place_efd7fd7f2954713c1ee7facf9750fe53e8cf589c&#45;&gt;transition_77de68daecd823babbb58edb1c8e14d7106e83bb -->
<g id="edge7" class="edge">
<title>place_efd7fd7f2954713c1ee7facf9750fe53e8cf589c&#45;&gt;transition_77de68daecd823babbb58edb1c8e14d7106e83bb</title>
<path fill="none" stroke="#333333" d="M720.2629,-53C729.969,-53 740.5352,-53 750.5004,-53"/>
<polygon fill="#333333" stroke="#333333" points="750.649,-54.7501 755.649,-53 750.649,-51.2501 750.649,-54.7501"/>
</g>
<!-- place_2dac4fc321f1087d189806b2f225701ceaf4278c -->
<g id="node5" class="node">
<title>place_2dac4fc321f1087d189806b2f225701ceaf4278c</title>
<ellipse fill="none" stroke="#333333" cx="901.697" cy="-53" rx="37.8951" ry="37.8951"/>
<text text-anchor="middle" x="901.697" y="-50.8" font-family="Arial" font-size="9.00" fill="#000000">aop&#45;validated</text>
</g>
<!-- transition_1b6453892473a467d07372d45eb05abc2031647a -->
<g id="node17" class="node">
<title>transition_1b6453892473a467d07372d45eb05abc2031647a</title>
<polygon fill="none" stroke="#333333" points="1047.3941,-89 975.3941,-89 975.3941,-17 1047.3941,-17 1047.3941,-89"/>
<text text-anchor="middle" x="1011.3941" y="-50.8" font-family="Arial" font-size="9.00" fill="#000000">openapi</text>
</g>
<!-- place_2dac4fc321f1087d189806b2f225701ceaf4278c&#45;&gt;transition_1b6453892473a467d07372d45eb05abc2031647a -->
<g id="edge9" class="edge">
<title>place_2dac4fc321f1087d189806b2f225701ceaf4278c&#45;&gt;transition_1b6453892473a467d07372d45eb05abc2031647a</title>
<path fill="none" stroke="#333333" d="M939.4485,-53C949.2649,-53 959.893,-53 969.8912,-53"/>
<polygon fill="#333333" stroke="#333333" points="970.0546,-54.7501 975.0546,-53 970.0546,-51.2501 970.0546,-54.7501"/>
</g>
<!-- place_3101a69a049ac6abaa9e79f841734c3fde77190f -->
<g id="node6" class="node">
<title>place_3101a69a049ac6abaa9e79f841734c3fde77190f</title>
<ellipse fill="none" stroke="#333333" cx="1119.3941" cy="-53" rx="36" ry="36"/>
<text text-anchor="middle" x="1119.3941" y="-50.8" font-family="Arial" font-size="9.00" fill="#000000">openapi</text>
</g>
<!-- transition_ac3478d69a3c81fa62e60f5c3696165a4e5e6ac4 -->
<g id="node18" class="node">
<title>transition_ac3478d69a3c81fa62e60f5c3696165a4e5e6ac4</title>
<polygon fill="none" stroke="#333333" points="1279.3941,-97 1191.3941,-97 1191.3941,-9 1279.3941,-9 1279.3941,-97"/>
<text text-anchor="middle" x="1235.3941" y="-50.8" font-family="Arial" font-size="9.00" fill="#000000">openapi_validate</text>
</g>
<!-- place_3101a69a049ac6abaa9e79f841734c3fde77190f&#45;&gt;transition_ac3478d69a3c81fa62e60f5c3696165a4e5e6ac4 -->
<g id="edge11" class="edge">
<title>place_3101a69a049ac6abaa9e79f841734c3fde77190f&#45;&gt;transition_ac3478d69a3c81fa62e60f5c3696165a4e5e6ac4</title>
<path fill="none" stroke="#333333" d="M1155.4613,-53C1165.1777,-53 1175.8572,-53 1186.159,-53"/>
<polygon fill="#333333" stroke="#333333" points="1186.1801,-54.7501 1191.1801,-53 1186.18,-51.2501 1186.1801,-54.7501"/>
</g>
<!-- place_28a4143c6cf6a51a2b50b25061da23121d1ade49 -->
<g id="node7" class="node">
<title>place_28a4143c6cf6a51a2b50b25061da23121d1ade49</title>
<ellipse fill="none" stroke="#333333" cx="1362.3863" cy="-53" rx="46.9844" ry="46.9844"/>
<text text-anchor="middle" x="1362.3863" y="-50.8" font-family="Arial" font-size="9.00" fill="#000000">openapi&#45;validated</text>
</g>
<!-- transition_c1dfd96eea8cc2b62785275bca38ac261256e278 -->
<g id="node19" class="node">
<title>transition_c1dfd96eea8cc2b62785275bca38ac261256e278</title>
<polygon fill="none" stroke="#333333" points="1517.3785,-121 1445.3785,-121 1445.3785,-49 1517.3785,-49 1517.3785,-121"/>
<text text-anchor="middle" x="1481.3785" y="-82.8" font-family="Arial" font-size="9.00" fill="#000000">asyncapi</text>
</g>
<!-- place_28a4143c6cf6a51a2b50b25061da23121d1ade49&#45;&gt;transition_c1dfd96eea8cc2b62785275bca38ac261256e278 -->
<g id="edge13" class="edge">
<title>place_28a4143c6cf6a51a2b50b25061da23121d1ade49&#45;&gt;transition_c1dfd96eea8cc2b62785275bca38ac261256e278</title>
<path fill="none" stroke="#333333" d="M1408.0515,-65.2805C1418.6402,-68.1281 1429.8478,-71.1421 1440.2293,-73.9339"/>
<polygon fill="#333333" stroke="#333333" points="1439.97,-75.6763 1445.2529,-75.2849 1440.879,-72.2964 1439.97,-75.6763"/>
</g>
<!-- transition_0ade7c2cf97f75d009975f4d720d1fa6c19f4897 -->
<g id="node22" class="node">
<title>transition_0ade7c2cf97f75d009975f4d720d1fa6c19f4897</title>
<polygon fill="none" stroke="#333333" points="2328.5112,-118 2210.5112,-118 2210.5112,0 2328.5112,0 2328.5112,-118"/>
<text text-anchor="middle" x="2269.5112" y="-56.8" font-family="Arial" font-size="9.00" fill="#000000">openapi_generate_code</text>
</g>
<!-- place_28a4143c6cf6a51a2b50b25061da23121d1ade49&#45;&gt;transition_0ade7c2cf97f75d009975f4d720d1fa6c19f4897 -->
<g id="edge19" class="edge">
<title>place_28a4143c6cf6a51a2b50b25061da23121d1ade49&#45;&gt;transition_0ade7c2cf97f75d009975f4d720d1fa6c19f4897</title>
<path fill="none" stroke="#333333" d="M1408.6342,-42.6105C1454.3153,-33.2667 1526.2986,-21 1589.3785,-21 1589.3785,-21 1589.3785,-21 1981.9613,-21 2059.1926,-21 2147.0942,-34.6393 2205.1603,-45.5751"/>
<polygon fill="#333333" stroke="#333333" points="2205.0964,-47.3441 2210.3351,-46.5574 2205.7492,-43.9055 2205.0964,-47.3441"/>
</g>
<!-- place_62eaf9d719558cab721db86619620e14f62fdfa3 -->
<g id="node8" class="node">
<title>place_62eaf9d719558cab721db86619620e14f62fdfa3</title>
<ellipse fill="none" stroke="#333333" cx="1589.3785" cy="-92" rx="36" ry="36"/>
<text text-anchor="middle" x="1589.3785" y="-89.8" font-family="Arial" font-size="9.00" fill="#000000">asyncapi</text>
</g>
<!-- transition_902ba3cda1883801594b6e1b452790cc53948fda -->
<g id="node20" class="node">
<title>transition_902ba3cda1883801594b6e1b452790cc53948fda</title>
<polygon fill="none" stroke="#333333" points="1752.3785,-144.5 1661.3785,-144.5 1661.3785,-53.5 1752.3785,-53.5 1752.3785,-144.5"/>
<text text-anchor="middle" x="1706.8785" y="-96.8" font-family="Arial" font-size="9.00" fill="#000000">asyncapi_validate</text>
</g>
<!-- place_62eaf9d719558cab721db86619620e14f62fdfa3&#45;&gt;transition_902ba3cda1883801594b6e1b452790cc53948fda -->
<g id="edge15" class="edge">
<title>place_62eaf9d719558cab721db86619620e14f62fdfa3&#45;&gt;transition_902ba3cda1883801594b6e1b452790cc53948fda</title>
<path fill="none" stroke="#333333" d="M1625.5911,-94.1573C1635.2105,-94.7304 1645.7799,-95.3601 1656.0233,-95.9703"/>
<polygon fill="#333333" stroke="#333333" points="1655.9248,-97.7175 1661.0201,-96.268 1656.133,-94.2237 1655.9248,-97.7175"/>
</g>
<!-- place_f15ff37c44db3a66773086032d26303622a26114 -->
<g id="node9" class="node">
<title>place_f15ff37c44db3a66773086032d26303622a26114</title>
<ellipse fill="none" stroke="#333333" cx="1836.9199" cy="-104" rx="48.5828" ry="48.5828"/>
<text text-anchor="middle" x="1836.9199" y="-101.8" font-family="Arial" font-size="9.00" fill="#000000">asyncapi&#45;validated</text>
</g>
<!-- transition_fe5dbbcea5ce7e2988b8c69bcfdfde8904aabc1f -->
<g id="node21" class="node">
<title>transition_fe5dbbcea5ce7e2988b8c69bcfdfde8904aabc1f</title>
<polygon fill="none" stroke="#333333" points="2042.4613,-170.5 1921.4613,-170.5 1921.4613,-49.5 2042.4613,-49.5 2042.4613,-170.5"/>
<text text-anchor="middle" x="1981.9613" y="-107.8" font-family="Arial" font-size="9.00" fill="#000000">asyncapi_generate_code</text>
</g>
<!-- place_f15ff37c44db3a66773086032d26303622a26114&#45;&gt;transition_fe5dbbcea5ce7e2988b8c69bcfdfde8904aabc1f -->
<g id="edge17" class="edge">
<title>place_f15ff37c44db3a66773086032d26303622a26114&#45;&gt;transition_fe5dbbcea5ce7e2988b8c69bcfdfde8904aabc1f</title>
<path fill="none" stroke="#333333" d="M1885.62,-106.0146C1895.4507,-106.4213 1905.9382,-106.8551 1916.2411,-107.2813"/>
<polygon fill="#333333" stroke="#333333" points="1916.2123,-109.0315 1921.2804,-107.4898 1916.357,-105.5345 1916.2123,-109.0315"/>
</g>
<!-- place_d3116a051d01a12785250aa160d80030fe53a00f -->
<g id="node10" class="node">
<title>place_d3116a051d01a12785250aa160d80030fe53a00f</title>
<ellipse fill="none" stroke="#333333" cx="2126.4862" cy="-103" rx="48.05" ry="48.05"/>
<text text-anchor="middle" x="2126.4862" y="-100.8" font-family="Arial" font-size="9.00" fill="#000000">asyncapi&#45;generate</text>
</g>
<!-- place_d3116a051d01a12785250aa160d80030fe53a00f&#45;&gt;transition_0ade7c2cf97f75d009975f4d720d1fa6c19f4897 -->
<g id="edge20" class="edge">
<title>place_d3116a051d01a12785250aa160d80030fe53a00f&#45;&gt;transition_0ade7c2cf97f75d009975f4d720d1fa6c19f4897</title>
<path fill="none" stroke="#333333" d="M2172.5275,-88.8359C2183.0083,-85.6116 2194.3287,-82.1291 2205.4092,-78.7203"/>
<polygon fill="#333333" stroke="#333333" points="2206.2151,-80.3033 2210.4795,-77.1604 2205.1859,-76.9581 2206.2151,-80.3033"/>
</g>
<!-- place_4fee5c45437e00ac97c799bd8b0030c0bc3001a7 -->
<g id="node11" class="node">
<title>place_4fee5c45437e00ac97c799bd8b0030c0bc3001a7</title>
<ellipse fill="none" stroke="#333333" cx="2400.5112" cy="-59" rx="36" ry="36"/>
<text text-anchor="middle" x="2400.5112" y="-56.8" font-family="Arial" font-size="9.00" fill="#000000">pbc&#45;validate</text>
</g>
<!-- transition_b1d5781111d84f7b3fe45a0852e59758cd7a87e5 -->
<g id="node23" class="node">
<title>transition_b1d5781111d84f7b3fe45a0852e59758cd7a87e5</title>
<polygon fill="none" stroke="#333333" points="2549.5112,-97.5 2472.5112,-97.5 2472.5112,-20.5 2549.5112,-20.5 2549.5112,-97.5"/>
<text text-anchor="middle" x="2511.0112" y="-56.8" font-family="Arial" font-size="9.00" fill="#000000">pbc_validation</text>
</g>
<!-- place_4fee5c45437e00ac97c799bd8b0030c0bc3001a7&#45;&gt;transition_b1d5781111d84f7b3fe45a0852e59758cd7a87e5 -->
<g id="edge22" class="edge">
<title>place_4fee5c45437e00ac97c799bd8b0030c0bc3001a7&#45;&gt;transition_b1d5781111d84f7b3fe45a0852e59758cd7a87e5</title>
<path fill="none" stroke="#333333" d="M2436.6931,-59C2446.4481,-59 2457.1072,-59 2467.229,-59"/>
<polygon fill="#333333" stroke="#333333" points="2467.4656,-60.7501 2472.4655,-59 2467.4655,-57.2501 2467.4656,-60.7501"/>
</g>
<!-- place_691e1af3c33128ebc6d96a79495c445c116459a4 -->
<g id="node12" class="node">
<title>place_691e1af3c33128ebc6d96a79495c445c116459a4</title>
<ellipse fill="none" stroke="#333333" cx="2622.6919" cy="-59" rx="37.3622" ry="37.3622"/>
<text text-anchor="middle" x="2622.6919" y="-56.8" font-family="Arial" font-size="9.00" fill="#000000">pbc&#45;validated</text>
</g>
<!-- transition_17ba0791499db908433b80f37c5fbc89b870084b -->
<g id="node24" class="node">
<title>transition_17ba0791499db908433b80f37c5fbc89b870084b</title>
<polygon fill="none" stroke="#333333" points="2780.8725,-101.5 2695.8725,-101.5 2695.8725,-16.5 2780.8725,-16.5 2780.8725,-101.5"/>
<text text-anchor="middle" x="2738.3725" y="-56.8" font-family="Arial" font-size="9.00" fill="#000000">pbc_revalidation</text>
</g>
<!-- place_691e1af3c33128ebc6d96a79495c445c116459a4&#45;&gt;transition_17ba0791499db908433b80f37c5fbc89b870084b -->
<g id="edge24" class="edge">
<title>place_691e1af3c33128ebc6d96a79495c445c116459a4&#45;&gt;transition_17ba0791499db908433b80f37c5fbc89b870084b</title>
<path fill="none" stroke="#333333" d="M2659.612,-52.6588C2669.4994,-52.2558 2680.3294,-52.1508 2690.708,-52.3437"/>
<polygon fill="#333333" stroke="#333333" points="2690.7209,-54.0944 2695.7607,-52.4624 2690.8032,-50.5954 2690.7209,-54.0944"/>
</g>
<!-- transition_b6589fc6ab0dc82cf12099d1c2d40ab994e8410c&#45;&gt;place_c5beef2de776a9eb64b6a612abeac7157e1e00a4 -->
<g id="edge2" class="edge">
<title>transition_b6589fc6ab0dc82cf12099d1c2d40ab994e8410c&#45;&gt;place_c5beef2de776a9eb64b6a612abeac7157e1e00a4</title>
<path fill="none" stroke="#333333" d="M180.2629,-53C189.969,-53 200.5352,-53 210.5004,-53"/>
<polygon fill="#333333" stroke="#333333" points="210.649,-54.7501 215.649,-53 210.649,-51.2501 210.649,-54.7501"/>
</g>
<!-- transition_356a192b7913b04c54574d18c28d46e6395428ab&#45;&gt;place_dfba7aade0868074c2861c98e2a9a92f3178a51b -->
<g id="edge4" class="edge">
<title>transition_356a192b7913b04c54574d18c28d46e6395428ab&#45;&gt;place_dfba7aade0868074c2861c98e2a9a92f3178a51b</title>
<path fill="none" stroke="#333333" d="M396.2629,-53C405.969,-53 416.5352,-53 426.5004,-53"/>
<polygon fill="#333333" stroke="#333333" points="426.649,-54.7501 431.649,-53 426.649,-51.2501 426.649,-54.7501"/>
</g>
<!-- transition_da4b9237bacccdf19c0760cab7aec4a8359010b0&#45;&gt;place_efd7fd7f2954713c1ee7facf9750fe53e8cf589c -->
<g id="edge6" class="edge">
<title>transition_da4b9237bacccdf19c0760cab7aec4a8359010b0&#45;&gt;place_efd7fd7f2954713c1ee7facf9750fe53e8cf589c</title>
<path fill="none" stroke="#333333" d="M612.2629,-53C621.969,-53 632.5352,-53 642.5004,-53"/>
<polygon fill="#333333" stroke="#333333" points="642.649,-54.7501 647.649,-53 642.649,-51.2501 642.649,-54.7501"/>
</g>
<!-- transition_77de68daecd823babbb58edb1c8e14d7106e83bb&#45;&gt;place_2dac4fc321f1087d189806b2f225701ceaf4278c -->
<g id="edge8" class="edge">
<title>transition_77de68daecd823babbb58edb1c8e14d7106e83bb&#45;&gt;place_2dac4fc321f1087d189806b2f225701ceaf4278c</title>
<path fill="none" stroke="#333333" d="M828.2229,-53C837.895,-53 848.444,-53 858.4526,-53"/>
<polygon fill="#333333" stroke="#333333" points="858.6298,-54.7501 863.6298,-53 858.6298,-51.2501 858.6298,-54.7501"/>
</g>
<!-- transition_1b6453892473a467d07372d45eb05abc2031647a&#45;&gt;place_3101a69a049ac6abaa9e79f841734c3fde77190f -->
<g id="edge10" class="edge">
<title>transition_1b6453892473a467d07372d45eb05abc2031647a&#45;&gt;place_3101a69a049ac6abaa9e79f841734c3fde77190f</title>
<path fill="none" stroke="#333333" d="M1047.657,-53C1057.3631,-53 1067.9292,-53 1077.8944,-53"/>
<polygon fill="#333333" stroke="#333333" points="1078.0431,-54.7501 1083.0431,-53 1078.043,-51.2501 1078.0431,-54.7501"/>
</g>
<!-- transition_ac3478d69a3c81fa62e60f5c3696165a4e5e6ac4&#45;&gt;place_28a4143c6cf6a51a2b50b25061da23121d1ade49 -->
<g id="edge12" class="edge">
<title>transition_ac3478d69a3c81fa62e60f5c3696165a4e5e6ac4&#45;&gt;place_28a4143c6cf6a51a2b50b25061da23121d1ade49</title>
<path fill="none" stroke="#333333" d="M1279.4534,-53C1289.4267,-53 1300.108,-53 1310.3749,-53"/>
<polygon fill="#333333" stroke="#333333" points="1310.3768,-54.7501 1315.3768,-53 1310.3767,-51.2501 1310.3768,-54.7501"/>
</g>
<!-- transition_c1dfd96eea8cc2b62785275bca38ac261256e278&#45;&gt;place_62eaf9d719558cab721db86619620e14f62fdfa3 -->
<g id="edge14" class="edge">
<title>transition_c1dfd96eea8cc2b62785275bca38ac261256e278&#45;&gt;place_62eaf9d719558cab721db86619620e14f62fdfa3</title>
<path fill="none" stroke="#333333" d="M1517.6414,-87.3504C1527.4518,-87.9862 1538.141,-88.679 1548.2001,-89.331"/>
<polygon fill="#333333" stroke="#333333" points="1548.2922,-91.0906 1553.3949,-89.6677 1548.5186,-87.5979 1548.2922,-91.0906"/>
</g>
<!-- transition_902ba3cda1883801594b6e1b452790cc53948fda&#45;&gt;place_f15ff37c44db3a66773086032d26303622a26114 -->
<g id="edge16" class="edge">
<title>transition_902ba3cda1883801594b6e1b452790cc53948fda&#45;&gt;place_f15ff37c44db3a66773086032d26303622a26114</title>
<path fill="none" stroke="#333333" d="M1752.7262,-100.7628C1762.5649,-101.1411 1773.0467,-101.5441 1783.1543,-101.9328"/>
<polygon fill="#333333" stroke="#333333" points="1783.3369,-103.691 1788.4005,-102.1345 1783.4714,-100.1936 1783.3369,-103.691"/>
</g>
<!-- transition_fe5dbbcea5ce7e2988b8c69bcfdfde8904aabc1f&#45;&gt;place_d3116a051d01a12785250aa160d80030fe53a00f -->
<g id="edge18" class="edge">
<title>transition_fe5dbbcea5ce7e2988b8c69bcfdfde8904aabc1f&#45;&gt;place_d3116a051d01a12785250aa160d80030fe53a00f</title>
<path fill="none" stroke="#333333" d="M2042.834,-107.0517C2052.9507,-106.5617 2063.3729,-106.0569 2073.2804,-105.577"/>
<polygon fill="#333333" stroke="#333333" points="2073.5007,-107.3185 2078.4102,-105.3285 2073.3313,-103.8226 2073.5007,-107.3185"/>
</g>
<!-- transition_0ade7c2cf97f75d009975f4d720d1fa6c19f4897&#45;&gt;place_4fee5c45437e00ac97c799bd8b0030c0bc3001a7 -->
<g id="edge21" class="edge">
<title>transition_0ade7c2cf97f75d009975f4d720d1fa6c19f4897&#45;&gt;place_4fee5c45437e00ac97c799bd8b0030c0bc3001a7</title>
<path fill="none" stroke="#333333" d="M2328.8786,-59C2339.0459,-59 2349.412,-59 2358.9854,-59"/>
<polygon fill="#333333" stroke="#333333" points="2359.2162,-60.7501 2364.2161,-59 2359.2161,-57.2501 2359.2162,-60.7501"/>
</g>
<!-- transition_b1d5781111d84f7b3fe45a0852e59758cd7a87e5&#45;&gt;place_691e1af3c33128ebc6d96a79495c445c116459a4 -->
<g id="edge23" class="edge">
<title>transition_b1d5781111d84f7b3fe45a0852e59758cd7a87e5&#45;&gt;place_691e1af3c33128ebc6d96a79495c445c116459a4</title>
<path fill="none" stroke="#333333" d="M2549.7583,-59C2559.5223,-59 2570.058,-59 2580.0035,-59"/>
<polygon fill="#333333" stroke="#333333" points="2580.1434,-60.7501 2585.1434,-59 2580.1433,-57.2501 2580.1434,-60.7501"/>
</g>
<!-- transition_17ba0791499db908433b80f37c5fbc89b870084b&#45;&gt;place_691e1af3c33128ebc6d96a79495c445c116459a4 -->
<g id="edge25" class="edge">
<title>transition_17ba0791499db908433b80f37c5fbc89b870084b&#45;&gt;place_691e1af3c33128ebc6d96a79495c445c116459a4</title>
<path fill="none" stroke="#333333" d="M2695.7607,-65.5376C2685.6597,-65.8255 2674.8916,-65.8207 2664.8127,-65.5234"/>
<polygon fill="#333333" stroke="#333333" points="2664.6702,-63.7674 2659.612,-65.3412 2664.5477,-67.2653 2664.6702,-63.7674"/>
</g>
</g>
</svg>
