<?xml version="1.0" encoding="UTF-8" standalone="no"?>
<!DOCTYPE svg PUBLIC "-//W3C//DTD SVG 1.1//EN"
 "http://www.w3.org/Graphics/SVG/1.1/DTD/svg11.dtd">
<!-- Generated by graphviz version 2.40.1 (20161225.0304)
 -->
<!-- Title: workflow Pages: 1 -->
<svg width="2789pt" height="185pt"
 viewBox="0.00 0.00 2788.87 184.50" xmlns="http://www.w3.org/2000/svg" xmlns:xlink="http://www.w3.org/1999/xlink">
<g id="graph0" class="graph" transform="scale(1 1) rotate(0) translate(4 180.5)">
<title>workflow</title>
<polygon fill="#ffffff" stroke="transparent" points="-4,4 -4,-180.5 2784.8725,-180.5 2784.8725,4 -4,4"/>
<!-- place_2b020927d3c6eb407223a1baa3d6ce3597a3f88d -->
<g id="node1" class="node">
<title>place_2b020927d3c6eb407223a1baa3d6ce3597a3f88d</title>
<ellipse fill="#add8e6" stroke="#333333" cx="36" cy="-59" rx="36" ry="36"/>
<text text-anchor="middle" x="36" y="-56.8" font-family="Arial" font-size="9.00" fill="#000000">start</text>
</g>
<!-- transition_b6589fc6ab0dc82cf12099d1c2d40ab994e8410c -->
<g id="node13" class="node">
<title>transition_b6589fc6ab0dc82cf12099d1c2d40ab994e8410c</title>
<polygon fill="none" stroke="#333333" points="180,-95 108,-95 108,-23 180,-23 180,-95"/>
<text text-anchor="middle" x="144" y="-56.8" font-family="Arial" font-size="9.00" fill="#000000">manifest</text>
</g>
<!-- place_2b020927d3c6eb407223a1baa3d6ce3597a3f88d&#45;&gt;transition_b6589fc6ab0dc82cf12099d1c2d40ab994e8410c -->
<g id="edge1" class="edge">
<title>place_2b020927d3c6eb407223a1baa3d6ce3597a3f88d&#45;&gt;transition_b6589fc6ab0dc82cf12099d1c2d40ab994e8410c</title>
<path fill="none" stroke="#333333" d="M72.2629,-59C81.969,-59 92.5352,-59 102.5004,-59"/>
<polygon fill="#333333" stroke="#333333" points="102.649,-60.7501 107.649,-59 102.649,-57.2501 102.649,-60.7501"/>
</g>
<!-- place_c5beef2de776a9eb64b6a612abeac7157e1e00a4 -->
<g id="node2" class="node">
<title>place_c5beef2de776a9eb64b6a612abeac7157e1e00a4</title>
<ellipse fill="none" stroke="#333333" cx="252" cy="-59" rx="36" ry="36"/>
<text text-anchor="middle" x="252" y="-56.8" font-family="Arial" font-size="9.00" fill="#000000">manifest</text>
</g>
<!-- transition_356a192b7913b04c54574d18c28d46e6395428ab -->
<g id="node14" class="node">
<title>transition_356a192b7913b04c54574d18c28d46e6395428ab</title>
<polygon fill="none" stroke="#333333" points="396,-95 324,-95 324,-23 396,-23 396,-95"/>
<text text-anchor="middle" x="360" y="-56.8" font-family="Arial" font-size="9.00" fill="#000000">config</text>
</g>
<!-- place_c5beef2de776a9eb64b6a612abeac7157e1e00a4&#45;&gt;transition_356a192b7913b04c54574d18c28d46e6395428ab -->
<g id="edge3" class="edge">
<title>place_c5beef2de776a9eb64b6a612abeac7157e1e00a4&#45;&gt;transition_356a192b7913b04c54574d18c28d46e6395428ab</title>
<path fill="none" stroke="#333333" d="M288.2629,-59C297.969,-59 308.5352,-59 318.5004,-59"/>
<polygon fill="#333333" stroke="#333333" points="318.649,-60.7501 323.649,-59 318.649,-57.2501 318.649,-60.7501"/>
</g>
<!-- place_dfba7aade0868074c2861c98e2a9a92f3178a51b -->
<g id="node3" class="node">
<title>place_dfba7aade0868074c2861c98e2a9a92f3178a51b</title>
<ellipse fill="none" stroke="#333333" cx="468" cy="-59" rx="36" ry="36"/>
<text text-anchor="middle" x="468" y="-56.8" font-family="Arial" font-size="9.00" fill="#000000">config</text>
</g>
<!-- transition_da4b9237bacccdf19c0760cab7aec4a8359010b0 -->
<g id="node15" class="node">
<title>transition_da4b9237bacccdf19c0760cab7aec4a8359010b0</title>
<polygon fill="none" stroke="#333333" points="612,-95 540,-95 540,-23 612,-23 612,-95"/>
<text text-anchor="middle" x="576" y="-56.8" font-family="Arial" font-size="9.00" fill="#000000">translation</text>
</g>
<!-- place_dfba7aade0868074c2861c98e2a9a92f3178a51b&#45;&gt;transition_da4b9237bacccdf19c0760cab7aec4a8359010b0 -->
<g id="edge5" class="edge">
<title>place_dfba7aade0868074c2861c98e2a9a92f3178a51b&#45;&gt;transition_da4b9237bacccdf19c0760cab7aec4a8359010b0</title>
<path fill="none" stroke="#333333" d="M504.2629,-59C513.969,-59 524.5352,-59 534.5004,-59"/>
<polygon fill="#333333" stroke="#333333" points="534.649,-60.7501 539.649,-59 534.649,-57.2501 534.649,-60.7501"/>
</g>
<!-- place_efd7fd7f2954713c1ee7facf9750fe53e8cf589c -->
<g id="node4" class="node">
<title>place_efd7fd7f2954713c1ee7facf9750fe53e8cf589c</title>
<ellipse fill="none" stroke="#333333" cx="684" cy="-59" rx="36" ry="36"/>
<text text-anchor="middle" x="684" y="-56.8" font-family="Arial" font-size="9.00" fill="#000000">translation</text>
</g>
<!-- transition_77de68daecd823babbb58edb1c8e14d7106e83bb -->
<g id="node16" class="node">
<title>transition_77de68daecd823babbb58edb1c8e14d7106e83bb</title>
<polygon fill="none" stroke="#333333" points="828,-95 756,-95 756,-23 828,-23 828,-95"/>
<text text-anchor="middle" x="792" y="-56.8" font-family="Arial" font-size="9.00" fill="#000000">aop_validate</text>
</g>
<!-- place_efd7fd7f2954713c1ee7facf9750fe53e8cf589c&#45;&gt;transition_77de68daecd823babbb58edb1c8e14d7106e83bb -->
<g id="edge7" class="edge">
<title>place_efd7fd7f2954713c1ee7facf9750fe53e8cf589c&#45;&gt;transition_77de68daecd823babbb58edb1c8e14d7106e83bb</title>
<path fill="none" stroke="#333333" d="M720.2629,-59C729.969,-59 740.5352,-59 750.5004,-59"/>
<polygon fill="#333333" stroke="#333333" points="750.649,-60.7501 755.649,-59 750.649,-57.2501 750.649,-60.7501"/>
</g>
<!-- place_2dac4fc321f1087d189806b2f225701ceaf4278c -->
<g id="node5" class="node">
<title>place_2dac4fc321f1087d189806b2f225701ceaf4278c</title>
<ellipse fill="none" stroke="#333333" cx="901.697" cy="-59" rx="37.8951" ry="37.8951"/>
<text text-anchor="middle" x="901.697" y="-56.8" font-family="Arial" font-size="9.00" fill="#000000">aop&#45;validated</text>
</g>
<!-- transition_1b6453892473a467d07372d45eb05abc2031647a -->
<g id="node17" class="node">
<title>transition_1b6453892473a467d07372d45eb05abc2031647a</title>
<polygon fill="none" stroke="#333333" points="1047.3941,-95 975.3941,-95 975.3941,-23 1047.3941,-23 1047.3941,-95"/>
<text text-anchor="middle" x="1011.3941" y="-56.8" font-family="Arial" font-size="9.00" fill="#000000">openapi</text>
</g>
<!-- place_2dac4fc321f1087d189806b2f225701ceaf4278c&#45;&gt;transition_1b6453892473a467d07372d45eb05abc2031647a -->
<g id="edge9" class="edge">
<title>place_2dac4fc321f1087d189806b2f225701ceaf4278c&#45;&gt;transition_1b6453892473a467d07372d45eb05abc2031647a</title>
<path fill="none" stroke="#333333" d="M939.4485,-59C949.2649,-59 959.893,-59 969.8912,-59"/>
<polygon fill="#333333" stroke="#333333" points="970.0546,-60.7501 975.0546,-59 970.0546,-57.2501 970.0546,-60.7501"/>
</g>
<!-- place_3101a69a049ac6abaa9e79f841734c3fde77190f -->
<g id="node6" class="node">
<title>place_3101a69a049ac6abaa9e79f841734c3fde77190f</title>
<ellipse fill="none" stroke="#333333" cx="1119.3941" cy="-59" rx="36" ry="36"/>
<text text-anchor="middle" x="1119.3941" y="-56.8" font-family="Arial" font-size="9.00" fill="#000000">openapi</text>
</g>
<!-- transition_ac3478d69a3c81fa62e60f5c3696165a4e5e6ac4 -->
<g id="node18" class="node">
<title>transition_ac3478d69a3c81fa62e60f5c3696165a4e5e6ac4</title>
<polygon fill="none" stroke="#333333" points="1279.3941,-103 1191.3941,-103 1191.3941,-15 1279.3941,-15 1279.3941,-103"/>
<text text-anchor="middle" x="1235.3941" y="-56.8" font-family="Arial" font-size="9.00" fill="#000000">openapi_validate</text>
</g>
<!-- place_3101a69a049ac6abaa9e79f841734c3fde77190f&#45;&gt;transition_ac3478d69a3c81fa62e60f5c3696165a4e5e6ac4 -->
<g id="edge11" class="edge">
<title>place_3101a69a049ac6abaa9e79f841734c3fde77190f&#45;&gt;transition_ac3478d69a3c81fa62e60f5c3696165a4e5e6ac4</title>
<path fill="none" stroke="#333333" d="M1155.4613,-59C1165.1777,-59 1175.8572,-59 1186.159,-59"/>
<polygon fill="#333333" stroke="#333333" points="1186.1801,-60.7501 1191.1801,-59 1186.18,-57.2501 1186.1801,-60.7501"/>
</g>
<!-- place_28a4143c6cf6a51a2b50b25061da23121d1ade49 -->
<g id="node7" class="node">
<title>place_28a4143c6cf6a51a2b50b25061da23121d1ade49</title>
<ellipse fill="none" stroke="#333333" cx="1362.3863" cy="-59" rx="46.9844" ry="46.9844"/>
<text text-anchor="middle" x="1362.3863" y="-56.8" font-family="Arial" font-size="9.00" fill="#000000">openapi&#45;validated</text>
</g>
<!-- transition_c1dfd96eea8cc2b62785275bca38ac261256e278 -->
<g id="node19" class="node">
<title>transition_c1dfd96eea8cc2b62785275bca38ac261256e278</title>
<polygon fill="none" stroke="#333333" points="1563.3785,-118 1445.3785,-118 1445.3785,0 1563.3785,0 1563.3785,-118"/>
<text text-anchor="middle" x="1504.3785" y="-56.8" font-family="Arial" font-size="9.00" fill="#000000">openapi_generate_code</text>
</g>
<!-- place_28a4143c6cf6a51a2b50b25061da23121d1ade49&#45;&gt;transition_c1dfd96eea8cc2b62785275bca38ac261256e278 -->
<g id="edge13" class="edge">
<title>place_28a4143c6cf6a51a2b50b25061da23121d1ade49&#45;&gt;transition_c1dfd96eea8cc2b62785275bca38ac261256e278</title>
<path fill="none" stroke="#333333" d="M1409.6676,-59C1419.4432,-59 1429.8964,-59 1440.159,-59"/>
<polygon fill="#333333" stroke="#333333" points="1440.178,-60.7501 1445.178,-59 1440.1779,-57.2501 1440.178,-60.7501"/>
</g>
<!-- place_62eaf9d719558cab721db86619620e14f62fdfa3 -->
<g id="node8" class="node">
<title>place_62eaf9d719558cab721db86619620e14f62fdfa3</title>
<ellipse fill="none" stroke="#333333" cx="1851.3785" cy="-98" rx="36" ry="36"/>
<text text-anchor="middle" x="1851.3785" y="-95.8" font-family="Arial" font-size="9.00" fill="#000000">asyncapi</text>
</g>
<!-- transition_fe5dbbcea5ce7e2988b8c69bcfdfde8904aabc1f -->
<g id="node21" class="node">
<title>transition_fe5dbbcea5ce7e2988b8c69bcfdfde8904aabc1f</title>
<polygon fill="none" stroke="#333333" points="2014.3785,-150.5 1923.3785,-150.5 1923.3785,-59.5 2014.3785,-59.5 2014.3785,-150.5"/>
<text text-anchor="middle" x="1968.8785" y="-102.8" font-family="Arial" font-size="9.00" fill="#000000">asyncapi_validate</text>
</g>
<!-- place_62eaf9d719558cab721db86619620e14f62fdfa3&#45;&gt;transition_fe5dbbcea5ce7e2988b8c69bcfdfde8904aabc1f -->
<g id="edge17" class="edge">
<title>place_62eaf9d719558cab721db86619620e14f62fdfa3&#45;&gt;transition_fe5dbbcea5ce7e2988b8c69bcfdfde8904aabc1f</title>
<path fill="none" stroke="#333333" d="M1887.5911,-100.1573C1897.2105,-100.7304 1907.7799,-101.3601 1918.0233,-101.9703"/>
<polygon fill="#333333" stroke="#333333" points="1917.9248,-103.7175 1923.0201,-102.268 1918.133,-100.2237 1917.9248,-103.7175"/>
</g>
<!-- place_f15ff37c44db3a66773086032d26303622a26114 -->
<g id="node9" class="node">
<title>place_f15ff37c44db3a66773086032d26303622a26114</title>
<ellipse fill="none" stroke="#333333" cx="2098.9199" cy="-110" rx="48.5828" ry="48.5828"/>
<text text-anchor="middle" x="2098.9199" y="-107.8" font-family="Arial" font-size="9.00" fill="#000000">asyncapi&#45;validated</text>
</g>
<!-- transition_0ade7c2cf97f75d009975f4d720d1fa6c19f4897 -->
<g id="node22" class="node">
<title>transition_0ade7c2cf97f75d009975f4d720d1fa6c19f4897</title>
<polygon fill="none" stroke="#333333" points="2304.4613,-176.5 2183.4613,-176.5 2183.4613,-55.5 2304.4613,-55.5 2304.4613,-176.5"/>
<text text-anchor="middle" x="2243.9613" y="-113.8" font-family="Arial" font-size="9.00" fill="#000000">asyncapi_generate_code</text>
</g>
<!-- place_f15ff37c44db3a66773086032d26303622a26114&#45;&gt;transition_0ade7c2cf97f75d009975f4d720d1fa6c19f4897 -->
<g id="edge19" class="edge">
<title>place_f15ff37c44db3a66773086032d26303622a26114&#45;&gt;transition_0ade7c2cf97f75d009975f4d720d1fa6c19f4897</title>
<path fill="none" stroke="#333333" d="M2147.62,-112.0146C2157.4507,-112.4213 2167.9382,-112.8551 2178.2411,-113.2813"/>
<polygon fill="#333333" stroke="#333333" points="2178.2123,-115.0315 2183.2804,-113.4898 2178.357,-111.5345 2178.2123,-115.0315"/>
</g>
<!-- place_d3116a051d01a12785250aa160d80030fe53a00f -->
<g id="node10" class="node">
<title>place_d3116a051d01a12785250aa160d80030fe53a00f</title>
<ellipse fill="none" stroke="#333333" cx="2388.4862" cy="-109" rx="48.05" ry="48.05"/>
<text text-anchor="middle" x="2388.4862" y="-106.8" font-family="Arial" font-size="9.00" fill="#000000">asyncapi&#45;generate</text>
</g>
<!-- transition_b1d5781111d84f7b3fe45a0852e59758cd7a87e5 -->
<g id="node23" class="node">
<title>transition_b1d5781111d84f7b3fe45a0852e59758cd7a87e5</title>
<polygon fill="none" stroke="#333333" points="2549.5112,-103.5 2472.5112,-103.5 2472.5112,-26.5 2549.5112,-26.5 2549.5112,-103.5"/>
<text text-anchor="middle" x="2511.0112" y="-62.8" font-family="Arial" font-size="9.00" fill="#000000">pbc_validation</text>
</g>
<!-- place_d3116a051d01a12785250aa160d80030fe53a00f&#45;&gt;transition_b1d5781111d84f7b3fe45a0852e59758cd7a87e5 -->
<g id="edge22" class="edge">
<title>place_d3116a051d01a12785250aa160d80030fe53a00f&#45;&gt;transition_b1d5781111d84f7b3fe45a0852e59758cd7a87e5</title>
<path fill="none" stroke="#333333" d="M2433.7619,-92.741C2444.7575,-88.7924 2456.4917,-84.5785 2467.4081,-80.6584"/>
<polygon fill="#333333" stroke="#333333" points="2468.2462,-82.2169 2472.3605,-78.8799 2467.0633,-78.9228 2468.2462,-82.2169"/>
</g>
<!-- place_4fee5c45437e00ac97c799bd8b0030c0bc3001a7 -->
<g id="node11" class="node">
<title>place_4fee5c45437e00ac97c799bd8b0030c0bc3001a7</title>
<ellipse fill="none" stroke="#333333" cx="1635.3785" cy="-59" rx="36" ry="36"/>
<text text-anchor="middle" x="1635.3785" y="-56.8" font-family="Arial" font-size="9.00" fill="#000000">pbc&#45;validate</text>
</g>
<!-- transition_902ba3cda1883801594b6e1b452790cc53948fda -->
<g id="node20" class="node">
<title>transition_902ba3cda1883801594b6e1b452790cc53948fda</title>
<polygon fill="none" stroke="#333333" points="1779.3785,-127 1707.3785,-127 1707.3785,-55 1779.3785,-55 1779.3785,-127"/>
<text text-anchor="middle" x="1743.3785" y="-88.8" font-family="Arial" font-size="9.00" fill="#000000">asyncapi</text>
</g>
<!-- place_4fee5c45437e00ac97c799bd8b0030c0bc3001a7&#45;&gt;transition_902ba3cda1883801594b6e1b452790cc53948fda -->
<g id="edge15" class="edge">
<title>place_4fee5c45437e00ac97c799bd8b0030c0bc3001a7&#45;&gt;transition_902ba3cda1883801594b6e1b452790cc53948fda</title>
<path fill="none" stroke="#333333" d="M1670.1448,-69.3011C1680.4118,-72.3432 1691.7459,-75.7015 1702.3672,-78.8485"/>
<polygon fill="#333333" stroke="#333333" points="1701.8996,-80.5351 1707.1908,-80.2777 1702.8939,-77.1793 1701.8996,-80.5351"/>
</g>
<!-- place_4fee5c45437e00ac97c799bd8b0030c0bc3001a7&#45;&gt;transition_b1d5781111d84f7b3fe45a0852e59758cd7a87e5 -->
<g id="edge21" class="edge">
<title>place_4fee5c45437e00ac97c799bd8b0030c0bc3001a7&#45;&gt;transition_b1d5781111d84f7b3fe45a0852e59758cd7a87e5</title>
<path fill="none" stroke="#333333" d="M1670.687,-50.5086C1713.2633,-41.0284 1787.1222,-27 1851.3785,-27 1851.3785,-27 1851.3785,-27 2243.9613,-27 2323.3525,-27 2414.7079,-43.6649 2467.3643,-54.9227"/>
<polygon fill="#333333" stroke="#333333" points="2467.0811,-56.6518 2472.3376,-55.9945 2467.8185,-53.2303 2467.0811,-56.6518"/>
</g>
<!-- place_691e1af3c33128ebc6d96a79495c445c116459a4 -->
<g id="node12" class="node">
<title>place_691e1af3c33128ebc6d96a79495c445c116459a4</title>
<ellipse fill="none" stroke="#333333" cx="2622.6919" cy="-65" rx="37.3622" ry="37.3622"/>
<text text-anchor="middle" x="2622.6919" y="-62.8" font-family="Arial" font-size="9.00" fill="#000000">pbc&#45;validated</text>
</g>
<!-- transition_17ba0791499db908433b80f37c5fbc89b870084b -->
<g id="node24" class="node">
<title>transition_17ba0791499db908433b80f37c5fbc89b870084b</title>
<polygon fill="none" stroke="#333333" points="2780.8725,-107.5 2695.8725,-107.5 2695.8725,-22.5 2780.8725,-22.5 2780.8725,-107.5"/>
<text text-anchor="middle" x="2738.3725" y="-62.8" font-family="Arial" font-size="9.00" fill="#000000">pbc_revalidation</text>
</g>
<!-- place_691e1af3c33128ebc6d96a79495c445c116459a4&#45;&gt;transition_17ba0791499db908433b80f37c5fbc89b870084b -->
<g id="edge24" class="edge">
<title>place_691e1af3c33128ebc6d96a79495c445c116459a4&#45;&gt;transition_17ba0791499db908433b80f37c5fbc89b870084b</title>
<path fill="none" stroke="#333333" d="M2659.612,-58.6588C2669.4994,-58.2558 2680.3294,-58.1508 2690.708,-58.3437"/>
<polygon fill="#333333" stroke="#333333" points="2690.7209,-60.0944 2695.7607,-58.4624 2690.8032,-56.5954 2690.7209,-60.0944"/>
</g>
<!-- transition_b6589fc6ab0dc82cf12099d1c2d40ab994e8410c&#45;&gt;place_c5beef2de776a9eb64b6a612abeac7157e1e00a4 -->
<g id="edge2" class="edge">
<title>transition_b6589fc6ab0dc82cf12099d1c2d40ab994e8410c&#45;&gt;place_c5beef2de776a9eb64b6a612abeac7157e1e00a4</title>
<path fill="none" stroke="#333333" d="M180.2629,-59C189.969,-59 200.5352,-59 210.5004,-59"/>
<polygon fill="#333333" stroke="#333333" points="210.649,-60.7501 215.649,-59 210.649,-57.2501 210.649,-60.7501"/>
</g>
<!-- transition_356a192b7913b04c54574d18c28d46e6395428ab&#45;&gt;place_dfba7aade0868074c2861c98e2a9a92f3178a51b -->
<g id="edge4" class="edge">
<title>transition_356a192b7913b04c54574d18c28d46e6395428ab&#45;&gt;place_dfba7aade0868074c2861c98e2a9a92f3178a51b</title>
<path fill="none" stroke="#333333" d="M396.2629,-59C405.969,-59 416.5352,-59 426.5004,-59"/>
<polygon fill="#333333" stroke="#333333" points="426.649,-60.7501 431.649,-59 426.649,-57.2501 426.649,-60.7501"/>
</g>
<!-- transition_da4b9237bacccdf19c0760cab7aec4a8359010b0&#45;&gt;place_efd7fd7f2954713c1ee7facf9750fe53e8cf589c -->
<g id="edge6" class="edge">
<title>transition_da4b9237bacccdf19c0760cab7aec4a8359010b0&#45;&gt;place_efd7fd7f2954713c1ee7facf9750fe53e8cf589c</title>
<path fill="none" stroke="#333333" d="M612.2629,-59C621.969,-59 632.5352,-59 642.5004,-59"/>
<polygon fill="#333333" stroke="#333333" points="642.649,-60.7501 647.649,-59 642.649,-57.2501 642.649,-60.7501"/>
</g>
<!-- transition_77de68daecd823babbb58edb1c8e14d7106e83bb&#45;&gt;place_2dac4fc321f1087d189806b2f225701ceaf4278c -->
<g id="edge8" class="edge">
<title>transition_77de68daecd823babbb58edb1c8e14d7106e83bb&#45;&gt;place_2dac4fc321f1087d189806b2f225701ceaf4278c</title>
<path fill="none" stroke="#333333" d="M828.2229,-59C837.895,-59 848.444,-59 858.4526,-59"/>
<polygon fill="#333333" stroke="#333333" points="858.6298,-60.7501 863.6298,-59 858.6298,-57.2501 858.6298,-60.7501"/>
</g>
<!-- transition_1b6453892473a467d07372d45eb05abc2031647a&#45;&gt;place_3101a69a049ac6abaa9e79f841734c3fde77190f -->
<g id="edge10" class="edge">
<title>transition_1b6453892473a467d07372d45eb05abc2031647a&#45;&gt;place_3101a69a049ac6abaa9e79f841734c3fde77190f</title>
<path fill="none" stroke="#333333" d="M1047.657,-59C1057.3631,-59 1067.9292,-59 1077.8944,-59"/>
<polygon fill="#333333" stroke="#333333" points="1078.0431,-60.7501 1083.0431,-59 1078.043,-57.2501 1078.0431,-60.7501"/>
</g>
<!-- transition_ac3478d69a3c81fa62e60f5c3696165a4e5e6ac4&#45;&gt;place_28a4143c6cf6a51a2b50b25061da23121d1ade49 -->
<g id="edge12" class="edge">
<title>transition_ac3478d69a3c81fa62e60f5c3696165a4e5e6ac4&#45;&gt;place_28a4143c6cf6a51a2b50b25061da23121d1ade49</title>
<path fill="none" stroke="#333333" d="M1279.4534,-59C1289.4267,-59 1300.108,-59 1310.3749,-59"/>
<polygon fill="#333333" stroke="#333333" points="1310.3768,-60.7501 1315.3768,-59 1310.3767,-57.2501 1310.3768,-60.7501"/>
</g>
<!-- transition_c1dfd96eea8cc2b62785275bca38ac261256e278&#45;&gt;place_4fee5c45437e00ac97c799bd8b0030c0bc3001a7 -->
<g id="edge14" class="edge">
<title>transition_c1dfd96eea8cc2b62785275bca38ac261256e278&#45;&gt;place_4fee5c45437e00ac97c799bd8b0030c0bc3001a7</title>
<path fill="none" stroke="#333333" d="M1563.7458,-59C1573.9131,-59 1584.2792,-59 1593.8526,-59"/>
<polygon fill="#333333" stroke="#333333" points="1594.0834,-60.7501 1599.0834,-59 1594.0833,-57.2501 1594.0834,-60.7501"/>
</g>
<!-- transition_902ba3cda1883801594b6e1b452790cc53948fda&#45;&gt;place_62eaf9d719558cab721db86619620e14f62fdfa3 -->
<g id="edge16" class="edge">
<title>transition_902ba3cda1883801594b6e1b452790cc53948fda&#45;&gt;place_62eaf9d719558cab721db86619620e14f62fdfa3</title>
<path fill="none" stroke="#333333" d="M1779.6414,-93.3504C1789.4518,-93.9862 1800.141,-94.679 1810.2001,-95.331"/>
<polygon fill="#333333" stroke="#333333" points="1810.2922,-97.0906 1815.3949,-95.6677 1810.5186,-93.5979 1810.2922,-97.0906"/>
</g>
<!-- transition_fe5dbbcea5ce7e2988b8c69bcfdfde8904aabc1f&#45;&gt;place_f15ff37c44db3a66773086032d26303622a26114 -->
<g id="edge18" class="edge">
<title>transition_fe5dbbcea5ce7e2988b8c69bcfdfde8904aabc1f&#45;&gt;place_f15ff37c44db3a66773086032d26303622a26114</title>
<path fill="none" stroke="#333333" d="M2014.7262,-106.7628C2024.5649,-107.1411 2035.0467,-107.5441 2045.1543,-107.9328"/>
<polygon fill="#333333" stroke="#333333" points="2045.3369,-109.691 2050.4005,-108.1345 2045.4714,-106.1936 2045.3369,-109.691"/>
</g>
<!-- transition_0ade7c2cf97f75d009975f4d720d1fa6c19f4897&#45;&gt;place_d3116a051d01a12785250aa160d80030fe53a00f -->
<g id="edge20" class="edge">
<title>transition_0ade7c2cf97f75d009975f4d720d1fa6c19f4897&#45;&gt;place_d3116a051d01a12785250aa160d80030fe53a00f</title>
<path fill="none" stroke="#333333" d="M2304.834,-113.0517C2314.9507,-112.5617 2325.3729,-112.0569 2335.2804,-111.577"/>
<polygon fill="#333333" stroke="#333333" points="2335.5007,-113.3185 2340.4102,-111.3285 2335.3313,-109.8226 2335.5007,-113.3185"/>
</g>
<!-- transition_b1d5781111d84f7b3fe45a0852e59758cd7a87e5&#45;&gt;place_691e1af3c33128ebc6d96a79495c445c116459a4 -->
<g id="edge23" class="edge">
<title>transition_b1d5781111d84f7b3fe45a0852e59758cd7a87e5&#45;&gt;place_691e1af3c33128ebc6d96a79495c445c116459a4</title>
<path fill="none" stroke="#333333" d="M2549.7583,-65C2559.5223,-65 2570.058,-65 2580.0035,-65"/>
<polygon fill="#333333" stroke="#333333" points="2580.1434,-66.7501 2585.1434,-65 2580.1433,-63.2501 2580.1434,-66.7501"/>
</g>
<!-- transition_17ba0791499db908433b80f37c5fbc89b870084b&#45;&gt;place_691e1af3c33128ebc6d96a79495c445c116459a4 -->
<g id="edge25" class="edge">
<title>transition_17ba0791499db908433b80f37c5fbc89b870084b&#45;&gt;place_691e1af3c33128ebc6d96a79495c445c116459a4</title>
<path fill="none" stroke="#333333" d="M2695.7607,-71.5376C2685.6597,-71.8255 2674.8916,-71.8207 2664.8127,-71.5234"/>
<polygon fill="#333333" stroke="#333333" points="2664.6702,-69.7674 2659.612,-71.3412 2664.5477,-73.2653 2664.6702,-69.7674"/>
</g>
</g>
</svg>
