<?xml version="1.0" encoding="UTF-8" standalone="no"?>
<!DOCTYPE svg PUBLIC "-//W3C//DTD SVG 1.1//EN"
 "http://www.w3.org/Graphics/SVG/1.1/DTD/svg11.dtd">
<!-- Generated by graphviz version 2.40.1 (20161225.0304)
 -->
<!-- Title: workflow Pages: 1 -->
<svg width="2865pt" height="194pt"
 viewBox="0.00 0.00 2864.84 194.00" xmlns="http://www.w3.org/2000/svg" xmlns:xlink="http://www.w3.org/1999/xlink">
<g id="graph0" class="graph" transform="scale(1 1) rotate(0) translate(4 190)">
<title>workflow</title>
<polygon fill="#ffffff" stroke="transparent" points="-4,4 -4,-190 2860.8397,-190 2860.8397,4 -4,4"/>
<!-- place_2b020927d3c6eb407223a1baa3d6ce3597a3f88d -->
<g id="node1" class="node">
<title>place_2b020927d3c6eb407223a1baa3d6ce3597a3f88d</title>
<ellipse fill="#add8e6" stroke="#333333" cx="36" cy="-80" rx="36" ry="36"/>
<text text-anchor="middle" x="36" y="-77.8" font-family="Arial" font-size="9.00" fill="#000000">start</text>
</g>
<!-- transition_b6589fc6ab0dc82cf12099d1c2d40ab994e8410c -->
<g id="node13" class="node">
<title>transition_b6589fc6ab0dc82cf12099d1c2d40ab994e8410c</title>
<polygon fill="none" stroke="#333333" points="187,-119.5 108,-119.5 108,-40.5 187,-40.5 187,-119.5"/>
<text text-anchor="middle" x="147.5" y="-77.8" font-family="Arial" font-size="9.00" fill="#000000">CreateManifest</text>
</g>
<!-- place_2b020927d3c6eb407223a1baa3d6ce3597a3f88d&#45;&gt;transition_b6589fc6ab0dc82cf12099d1c2d40ab994e8410c -->
<g id="edge1" class="edge">
<title>place_2b020927d3c6eb407223a1baa3d6ce3597a3f88d&#45;&gt;transition_b6589fc6ab0dc82cf12099d1c2d40ab994e8410c</title>
<path fill="none" stroke="#333333" d="M72.2009,-80C81.8395,-80 92.3707,-80 102.4213,-80"/>
<polygon fill="#333333" stroke="#333333" points="102.6261,-81.7501 107.626,-80 102.626,-78.2501 102.6261,-81.7501"/>
</g>
<!-- place_c5beef2de776a9eb64b6a612abeac7157e1e00a4 -->
<g id="node2" class="node">
<title>place_c5beef2de776a9eb64b6a612abeac7157e1e00a4</title>
<ellipse fill="none" stroke="#333333" cx="259" cy="-80" rx="36" ry="36"/>
<text text-anchor="middle" x="259" y="-77.8" font-family="Arial" font-size="9.00" fill="#000000">manifest</text>
</g>
<!-- transition_356a192b7913b04c54574d18c28d46e6395428ab -->
<g id="node14" class="node">
<title>transition_356a192b7913b04c54574d18c28d46e6395428ab</title>
<polygon fill="none" stroke="#333333" points="431,-130 331,-130 331,-30 431,-30 431,-130"/>
<text text-anchor="middle" x="381" y="-77.8" font-family="Arial" font-size="9.00" fill="#000000">CreateConfiguration</text>
</g>
<!-- place_c5beef2de776a9eb64b6a612abeac7157e1e00a4&#45;&gt;transition_356a192b7913b04c54574d18c28d46e6395428ab -->
<g id="edge3" class="edge">
<title>place_c5beef2de776a9eb64b6a612abeac7157e1e00a4&#45;&gt;transition_356a192b7913b04c54574d18c28d46e6395428ab</title>
<path fill="none" stroke="#333333" d="M295.2737,-80C304.8108,-80 315.3186,-80 325.6115,-80"/>
<polygon fill="#333333" stroke="#333333" points="325.6419,-81.7501 330.6419,-80 325.6419,-78.2501 325.6419,-81.7501"/>
</g>
<!-- place_dfba7aade0868074c2861c98e2a9a92f3178a51b -->
<g id="node3" class="node">
<title>place_dfba7aade0868074c2861c98e2a9a92f3178a51b</title>
<ellipse fill="none" stroke="#333333" cx="503" cy="-80" rx="36" ry="36"/>
<text text-anchor="middle" x="503" y="-77.8" font-family="Arial" font-size="9.00" fill="#000000">config</text>
</g>
<!-- transition_da4b9237bacccdf19c0760cab7aec4a8359010b0 -->
<g id="node15" class="node">
<title>transition_da4b9237bacccdf19c0760cab7aec4a8359010b0</title>
<polygon fill="none" stroke="#333333" points="665,-125 575,-125 575,-35 665,-35 665,-125"/>
<text text-anchor="middle" x="620" y="-77.8" font-family="Arial" font-size="9.00" fill="#000000">CreateTranslation</text>
</g>
<!-- place_dfba7aade0868074c2861c98e2a9a92f3178a51b&#45;&gt;transition_da4b9237bacccdf19c0760cab7aec4a8359010b0 -->
<g id="edge5" class="edge">
<title>place_dfba7aade0868074c2861c98e2a9a92f3178a51b&#45;&gt;transition_da4b9237bacccdf19c0760cab7aec4a8359010b0</title>
<path fill="none" stroke="#333333" d="M539.0585,-80C548.7524,-80 559.4152,-80 569.7298,-80"/>
<polygon fill="#333333" stroke="#333333" points="569.7595,-81.7501 574.7595,-80 569.7595,-78.2501 569.7595,-81.7501"/>
</g>
<!-- place_efd7fd7f2954713c1ee7facf9750fe53e8cf589c -->
<g id="node4" class="node">
<title>place_efd7fd7f2954713c1ee7facf9750fe53e8cf589c</title>
<ellipse fill="none" stroke="#333333" cx="737" cy="-80" rx="36" ry="36"/>
<text text-anchor="middle" x="737" y="-77.8" font-family="Arial" font-size="9.00" fill="#000000">translation</text>
</g>
<!-- transition_77de68daecd823babbb58edb1c8e14d7106e83bb -->
<g id="node16" class="node">
<title>transition_77de68daecd823babbb58edb1c8e14d7106e83bb</title>
<polygon fill="none" stroke="#333333" points="881,-116 809,-116 809,-44 881,-44 881,-116"/>
<text text-anchor="middle" x="845" y="-77.8" font-family="Arial" font-size="9.00" fill="#000000">ValidateACP</text>
</g>
<!-- place_efd7fd7f2954713c1ee7facf9750fe53e8cf589c&#45;&gt;transition_77de68daecd823babbb58edb1c8e14d7106e83bb -->
<g id="edge7" class="edge">
<title>place_efd7fd7f2954713c1ee7facf9750fe53e8cf589c&#45;&gt;transition_77de68daecd823babbb58edb1c8e14d7106e83bb</title>
<path fill="none" stroke="#333333" d="M773.2629,-80C782.969,-80 793.5352,-80 803.5004,-80"/>
<polygon fill="#333333" stroke="#333333" points="803.649,-81.7501 808.649,-80 803.649,-78.2501 803.649,-81.7501"/>
</g>
<!-- place_6ad178e1b5a22bda0fcf162ae0d81e6f1bb89b89 -->
<g id="node5" class="node">
<title>place_6ad178e1b5a22bda0fcf162ae0d81e6f1bb89b89</title>
<ellipse fill="none" stroke="#333333" cx="954.1806" cy="-80" rx="37.3622" ry="37.3622"/>
<text text-anchor="middle" x="954.1806" y="-77.8" font-family="Arial" font-size="9.00" fill="#000000">acp&#45;validated</text>
</g>
<!-- transition_1b6453892473a467d07372d45eb05abc2031647a -->
<g id="node17" class="node">
<title>transition_1b6453892473a467d07372d45eb05abc2031647a</title>
<polygon fill="none" stroke="#333333" points="1107.3613,-120 1027.3613,-120 1027.3613,-40 1107.3613,-40 1107.3613,-120"/>
<text text-anchor="middle" x="1067.3613" y="-77.8" font-family="Arial" font-size="9.00" fill="#000000">CreateOpenApi</text>
</g>
<!-- place_6ad178e1b5a22bda0fcf162ae0d81e6f1bb89b89&#45;&gt;transition_1b6453892473a467d07372d45eb05abc2031647a -->
<g id="edge9" class="edge">
<title>place_6ad178e1b5a22bda0fcf162ae0d81e6f1bb89b89&#45;&gt;transition_1b6453892473a467d07372d45eb05abc2031647a</title>
<path fill="none" stroke="#333333" d="M991.5539,-80C1001.3138,-80 1011.9391,-80 1022.0619,-80"/>
<polygon fill="#333333" stroke="#333333" points="1022.3025,-81.7501 1027.3025,-80 1022.3024,-78.2501 1022.3025,-81.7501"/>
</g>
<!-- place_3101a69a049ac6abaa9e79f841734c3fde77190f -->
<g id="node6" class="node">
<title>place_3101a69a049ac6abaa9e79f841734c3fde77190f</title>
<ellipse fill="none" stroke="#333333" cx="1179.3613" cy="-80" rx="36" ry="36"/>
<text text-anchor="middle" x="1179.3613" y="-77.8" font-family="Arial" font-size="9.00" fill="#000000">openapi</text>
</g>
<!-- transition_ac3478d69a3c81fa62e60f5c3696165a4e5e6ac4 -->
<g id="node18" class="node">
<title>transition_ac3478d69a3c81fa62e60f5c3696165a4e5e6ac4</title>
<polygon fill="none" stroke="#333333" points="1337.3613,-123 1251.3613,-123 1251.3613,-37 1337.3613,-37 1337.3613,-123"/>
<text text-anchor="middle" x="1294.3613" y="-77.8" font-family="Arial" font-size="9.00" fill="#000000">ValidateOpenApi</text>
</g>
<!-- place_3101a69a049ac6abaa9e79f841734c3fde77190f&#45;&gt;transition_ac3478d69a3c81fa62e60f5c3696165a4e5e6ac4 -->
<g id="edge11" class="edge">
<title>place_3101a69a049ac6abaa9e79f841734c3fde77190f&#45;&gt;transition_ac3478d69a3c81fa62e60f5c3696165a4e5e6ac4</title>
<path fill="none" stroke="#333333" d="M1215.4325,-80C1225.169,-80 1235.862,-80 1246.1479,-80"/>
<polygon fill="#333333" stroke="#333333" points="1246.1587,-81.7501 1251.1586,-80 1246.1586,-78.2501 1246.1587,-81.7501"/>
</g>
<!-- place_28a4143c6cf6a51a2b50b25061da23121d1ade49 -->
<g id="node7" class="node">
<title>place_28a4143c6cf6a51a2b50b25061da23121d1ade49</title>
<ellipse fill="none" stroke="#333333" cx="1420.3535" cy="-80" rx="46.9844" ry="46.9844"/>
<text text-anchor="middle" x="1420.3535" y="-77.8" font-family="Arial" font-size="9.00" fill="#000000">openapi&#45;validated</text>
</g>
<!-- transition_c1dfd96eea8cc2b62785275bca38ac261256e278 -->
<g id="node19" class="node">
<title>transition_c1dfd96eea8cc2b62785275bca38ac261256e278</title>
<polygon fill="none" stroke="#333333" points="1594.3457,-125.5 1503.3457,-125.5 1503.3457,-34.5 1594.3457,-34.5 1594.3457,-125.5"/>
<text text-anchor="middle" x="1548.8457" y="-77.8" font-family="Arial" font-size="9.00" fill="#000000">GenerateOpenApi</text>
</g>
<!-- place_28a4143c6cf6a51a2b50b25061da23121d1ade49&#45;&gt;transition_c1dfd96eea8cc2b62785275bca38ac261256e278 -->
<g id="edge13" class="edge">
<title>place_28a4143c6cf6a51a2b50b25061da23121d1ade49&#45;&gt;transition_c1dfd96eea8cc2b62785275bca38ac261256e278</title>
<path fill="none" stroke="#333333" d="M1467.4696,-80C1477.3504,-80 1487.8144,-80 1497.8299,-80"/>
<polygon fill="#333333" stroke="#333333" points="1498.0211,-81.7501 1503.021,-80 1498.021,-78.2501 1498.0211,-81.7501"/>
</g>
<!-- place_62eaf9d719558cab721db86619620e14f62fdfa3 -->
<g id="node8" class="node">
<title>place_62eaf9d719558cab721db86619620e14f62fdfa3</title>
<ellipse fill="none" stroke="#333333" cx="1892.3457" cy="-126" rx="36" ry="36"/>
<text text-anchor="middle" x="1892.3457" y="-123.8" font-family="Arial" font-size="9.00" fill="#000000">asyncapi</text>
</g>
<!-- transition_fe5dbbcea5ce7e2988b8c69bcfdfde8904aabc1f -->
<g id="node21" class="node">
<title>transition_fe5dbbcea5ce7e2988b8c69bcfdfde8904aabc1f</title>
<polygon fill="none" stroke="#333333" points="2052.3457,-169 1964.3457,-169 1964.3457,-81 2052.3457,-81 2052.3457,-169"/>
<text text-anchor="middle" x="2008.3457" y="-122.8" font-family="Arial" font-size="9.00" fill="#000000">ValidateAsyncapi</text>
</g>
<!-- place_62eaf9d719558cab721db86619620e14f62fdfa3&#45;&gt;transition_fe5dbbcea5ce7e2988b8c69bcfdfde8904aabc1f -->
<g id="edge17" class="edge">
<title>place_62eaf9d719558cab721db86619620e14f62fdfa3&#45;&gt;transition_fe5dbbcea5ce7e2988b8c69bcfdfde8904aabc1f</title>
<path fill="none" stroke="#333333" d="M1928.4129,-125.6891C1938.1293,-125.6053 1948.8088,-125.5132 1959.1106,-125.4244"/>
<polygon fill="#333333" stroke="#333333" points="1959.147,-127.1743 1964.1317,-125.3812 1959.1167,-123.6744 1959.147,-127.1743"/>
</g>
<!-- place_f15ff37c44db3a66773086032d26303622a26114 -->
<g id="node9" class="node">
<title>place_f15ff37c44db3a66773086032d26303622a26114</title>
<ellipse fill="none" stroke="#333333" cx="2136.8871" cy="-125" rx="48.5828" ry="48.5828"/>
<text text-anchor="middle" x="2136.8871" y="-122.8" font-family="Arial" font-size="9.00" fill="#000000">asyncapi&#45;validated</text>
</g>
<!-- transition_0ade7c2cf97f75d009975f4d720d1fa6c19f4897 -->
<g id="node22" class="node">
<title>transition_0ade7c2cf97f75d009975f4d720d1fa6c19f4897</title>
<polygon fill="none" stroke="#333333" points="2336.4285,-182.5 2221.4285,-182.5 2221.4285,-67.5 2336.4285,-67.5 2336.4285,-182.5"/>
<text text-anchor="middle" x="2278.9285" y="-122.8" font-family="Arial" font-size="9.00" fill="#000000">GenerateAsyncapiCode</text>
</g>
<!-- place_f15ff37c44db3a66773086032d26303622a26114&#45;&gt;transition_0ade7c2cf97f75d009975f4d720d1fa6c19f4897 -->
<g id="edge19" class="edge">
<title>place_f15ff37c44db3a66773086032d26303622a26114&#45;&gt;transition_0ade7c2cf97f75d009975f4d720d1fa6c19f4897</title>
<path fill="none" stroke="#333333" d="M2185.7697,-125C2195.4735,-125 2205.79,-125 2215.8886,-125"/>
<polygon fill="#333333" stroke="#333333" points="2216.1452,-126.7501 2221.1452,-125 2216.1452,-123.2501 2216.1452,-126.7501"/>
</g>
<!-- place_d3116a051d01a12785250aa160d80030fe53a00f -->
<g id="node10" class="node">
<title>place_d3116a051d01a12785250aa160d80030fe53a00f</title>
<ellipse fill="none" stroke="#333333" cx="2420.4535" cy="-125" rx="48.05" ry="48.05"/>
<text text-anchor="middle" x="2420.4535" y="-122.8" font-family="Arial" font-size="9.00" fill="#000000">asyncapi&#45;generate</text>
</g>
<!-- transition_17ba0791499db908433b80f37c5fbc89b870084b -->
<g id="node24" class="node">
<title>transition_17ba0791499db908433b80f37c5fbc89b870084b</title>
<polygon fill="none" stroke="#333333" points="2626.4784,-186 2504.4784,-186 2504.4784,-64 2626.4784,-64 2626.4784,-186"/>
<text text-anchor="middle" x="2565.4784" y="-122.8" font-family="Arial" font-size="9.00" fill="#000000">ValidatePbcWithAsyncApi</text>
</g>
<!-- place_d3116a051d01a12785250aa160d80030fe53a00f&#45;&gt;transition_17ba0791499db908433b80f37c5fbc89b870084b -->
<g id="edge23" class="edge">
<title>place_d3116a051d01a12785250aa160d80030fe53a00f&#45;&gt;transition_17ba0791499db908433b80f37c5fbc89b870084b</title>
<path fill="none" stroke="#333333" d="M2468.7447,-125C2478.5166,-125 2488.9515,-125 2499.2181,-125"/>
<polygon fill="#333333" stroke="#333333" points="2499.2409,-126.7501 2504.2408,-125 2499.2408,-123.2501 2499.2409,-126.7501"/>
</g>
<!-- place_4fee5c45437e00ac97c799bd8b0030c0bc3001a7 -->
<g id="node11" class="node">
<title>place_4fee5c45437e00ac97c799bd8b0030c0bc3001a7</title>
<ellipse fill="none" stroke="#333333" cx="1666.3457" cy="-80" rx="36" ry="36"/>
<text text-anchor="middle" x="1666.3457" y="-77.8" font-family="Arial" font-size="9.00" fill="#000000">pbc&#45;validate</text>
</g>
<!-- transition_902ba3cda1883801594b6e1b452790cc53948fda -->
<g id="node20" class="node">
<title>transition_902ba3cda1883801594b6e1b452790cc53948fda</title>
<polygon fill="none" stroke="#333333" points="1820.3457,-161 1738.3457,-161 1738.3457,-79 1820.3457,-79 1820.3457,-161"/>
<text text-anchor="middle" x="1779.3457" y="-117.8" font-family="Arial" font-size="9.00" fill="#000000">CreateAsyncapi</text>
</g>
<!-- place_4fee5c45437e00ac97c799bd8b0030c0bc3001a7&#45;&gt;transition_902ba3cda1883801594b6e1b452790cc53948fda -->
<g id="edge15" class="edge">
<title>place_4fee5c45437e00ac97c799bd8b0030c0bc3001a7&#45;&gt;transition_902ba3cda1883801594b6e1b452790cc53948fda</title>
<path fill="none" stroke="#333333" d="M1700.5561,-92.1099C1710.8084,-95.739 1722.2268,-99.7809 1733.1182,-103.6363"/>
<polygon fill="#333333" stroke="#333333" points="1732.7818,-105.3736 1738.0792,-105.3924 1733.9497,-102.0742 1732.7818,-105.3736"/>
</g>
<!-- transition_b1d5781111d84f7b3fe45a0852e59758cd7a87e5 -->
<g id="node23" class="node">
<title>transition_b1d5781111d84f7b3fe45a0852e59758cd7a87e5</title>
<polygon fill="none" stroke="#333333" points="1928.3457,-72 1856.3457,-72 1856.3457,0 1928.3457,0 1928.3457,-72"/>
<text text-anchor="middle" x="1892.3457" y="-33.8" font-family="Arial" font-size="9.00" fill="#000000">validatePbc</text>
</g>
<!-- place_4fee5c45437e00ac97c799bd8b0030c0bc3001a7&#45;&gt;transition_b1d5781111d84f7b3fe45a0852e59758cd7a87e5 -->
<g id="edge21" class="edge">
<title>place_4fee5c45437e00ac97c799bd8b0030c0bc3001a7&#45;&gt;transition_b1d5781111d84f7b3fe45a0852e59758cd7a87e5</title>
<path fill="none" stroke="#333333" d="M1701.9068,-73.0766C1742.4005,-65.1929 1808.4576,-52.3322 1851.1567,-44.0191"/>
<polygon fill="#333333" stroke="#333333" points="1851.6714,-45.7018 1856.2448,-43.0285 1851.0025,-42.2663 1851.6714,-45.7018"/>
</g>
<!-- place_691e1af3c33128ebc6d96a79495c445c116459a4 -->
<g id="node12" class="node">
<title>place_691e1af3c33128ebc6d96a79495c445c116459a4</title>
<ellipse fill="none" stroke="#333333" cx="2699.6591" cy="-80" rx="37.3622" ry="37.3622"/>
<text text-anchor="middle" x="2699.6591" y="-77.8" font-family="Arial" font-size="9.00" fill="#000000">pbc&#45;validated</text>
</g>
<!-- transition_7b52009b64fd0a2a49e6d8a939753077792b0554 -->
<g id="node25" class="node">
<title>transition_7b52009b64fd0a2a49e6d8a939753077792b0554</title>
<polygon fill="none" stroke="#333333" points="2856.8397,-122 2772.8397,-122 2772.8397,-38 2856.8397,-38 2856.8397,-122"/>
<text text-anchor="middle" x="2814.8397" y="-77.8" font-family="Arial" font-size="9.00" fill="#000000">RevalidationPbc</text>
</g>
<!-- place_691e1af3c33128ebc6d96a79495c445c116459a4&#45;&gt;transition_7b52009b64fd0a2a49e6d8a939753077792b0554 -->
<g id="edge25" class="edge">
<title>place_691e1af3c33128ebc6d96a79495c445c116459a4&#45;&gt;transition_7b52009b64fd0a2a49e6d8a939753077792b0554</title>
<path fill="none" stroke="#333333" d="M2736.4196,-73.6588C2746.3774,-73.2511 2757.2955,-73.1484 2767.7374,-73.3505"/>
<polygon fill="#333333" stroke="#333333" points="2767.7778,-75.1019 2772.8189,-73.4742 2767.863,-71.6029 2767.7778,-75.1019"/>
</g>
<!-- transition_b6589fc6ab0dc82cf12099d1c2d40ab994e8410c&#45;&gt;place_c5beef2de776a9eb64b6a612abeac7157e1e00a4 -->
<g id="edge2" class="edge">
<title>transition_b6589fc6ab0dc82cf12099d1c2d40ab994e8410c&#45;&gt;place_c5beef2de776a9eb64b6a612abeac7157e1e00a4</title>
<path fill="none" stroke="#333333" d="M187.1247,-80C197.039,-80 207.6978,-80 217.6916,-80"/>
<polygon fill="#333333" stroke="#333333" points="217.8497,-81.7501 222.8497,-80 217.8497,-78.2501 217.8497,-81.7501"/>
</g>
<!-- transition_356a192b7913b04c54574d18c28d46e6395428ab&#45;&gt;place_dfba7aade0868074c2861c98e2a9a92f3178a51b -->
<g id="edge4" class="edge">
<title>transition_356a192b7913b04c54574d18c28d46e6395428ab&#45;&gt;place_dfba7aade0868074c2861c98e2a9a92f3178a51b</title>
<path fill="none" stroke="#333333" d="M431.3264,-80C441.4992,-80 452.0807,-80 461.8914,-80"/>
<polygon fill="#333333" stroke="#333333" points="461.9452,-81.7501 466.9452,-80 461.9452,-78.2501 461.9452,-81.7501"/>
</g>
<!-- transition_da4b9237bacccdf19c0760cab7aec4a8359010b0&#45;&gt;place_efd7fd7f2954713c1ee7facf9750fe53e8cf589c -->
<g id="edge6" class="edge">
<title>transition_da4b9237bacccdf19c0760cab7aec4a8359010b0&#45;&gt;place_efd7fd7f2954713c1ee7facf9750fe53e8cf589c</title>
<path fill="none" stroke="#333333" d="M665.2353,-80C675.3109,-80 685.9408,-80 695.842,-80"/>
<polygon fill="#333333" stroke="#333333" points="695.9465,-81.7501 700.9464,-80 695.9464,-78.2501 695.9465,-81.7501"/>
</g>
<!-- transition_77de68daecd823babbb58edb1c8e14d7106e83bb&#45;&gt;place_6ad178e1b5a22bda0fcf162ae0d81e6f1bb89b89 -->
<g id="edge8" class="edge">
<title>transition_77de68daecd823babbb58edb1c8e14d7106e83bb&#45;&gt;place_6ad178e1b5a22bda0fcf162ae0d81e6f1bb89b89</title>
<path fill="none" stroke="#333333" d="M881.0524,-80C890.7848,-80 901.4091,-80 911.468,-80"/>
<polygon fill="#333333" stroke="#333333" points="911.669,-81.7501 916.6689,-80 911.6689,-78.2501 911.669,-81.7501"/>
</g>
<!-- transition_1b6453892473a467d07372d45eb05abc2031647a&#45;&gt;place_3101a69a049ac6abaa9e79f841734c3fde77190f -->
<g id="edge10" class="edge">
<title>transition_1b6453892473a467d07372d45eb05abc2031647a&#45;&gt;place_3101a69a049ac6abaa9e79f841734c3fde77190f</title>
<path fill="none" stroke="#333333" d="M1107.4795,-80C1117.4214,-80 1128.0913,-80 1138.0873,-80"/>
<polygon fill="#333333" stroke="#333333" points="1138.2458,-81.7501 1143.2457,-80 1138.2457,-78.2501 1138.2458,-81.7501"/>
</g>
<!-- transition_ac3478d69a3c81fa62e60f5c3696165a4e5e6ac4&#45;&gt;place_28a4143c6cf6a51a2b50b25061da23121d1ade49 -->
<g id="edge12" class="edge">
<title>transition_ac3478d69a3c81fa62e60f5c3696165a4e5e6ac4&#45;&gt;place_28a4143c6cf6a51a2b50b25061da23121d1ade49</title>
<path fill="none" stroke="#333333" d="M1337.3683,-80C1347.2928,-80 1357.9557,-80 1368.2217,-80"/>
<polygon fill="#333333" stroke="#333333" points="1368.2245,-81.7501 1373.2245,-80 1368.2244,-78.2501 1368.2245,-81.7501"/>
</g>
<!-- transition_c1dfd96eea8cc2b62785275bca38ac261256e278&#45;&gt;place_4fee5c45437e00ac97c799bd8b0030c0bc3001a7 -->
<g id="edge14" class="edge">
<title>transition_c1dfd96eea8cc2b62785275bca38ac261256e278&#45;&gt;place_4fee5c45437e00ac97c799bd8b0030c0bc3001a7</title>
<path fill="none" stroke="#333333" d="M1594.6107,-80C1604.7073,-80 1615.3424,-80 1625.2409,-80"/>
<polygon fill="#333333" stroke="#333333" points="1625.3434,-81.7501 1630.3433,-80 1625.3433,-78.2501 1625.3434,-81.7501"/>
</g>
<!-- transition_902ba3cda1883801594b6e1b452790cc53948fda&#45;&gt;place_62eaf9d719558cab721db86619620e14f62fdfa3 -->
<g id="edge16" class="edge">
<title>transition_902ba3cda1883801594b6e1b452790cc53948fda&#45;&gt;place_62eaf9d719558cab721db86619620e14f62fdfa3</title>
<path fill="none" stroke="#333333" d="M1820.4609,-122.1831C1830.4561,-122.7138 1841.1466,-123.2815 1851.1457,-123.8124"/>
<polygon fill="#333333" stroke="#333333" points="1851.2184,-125.5686 1856.3042,-124.0863 1851.404,-122.0735 1851.2184,-125.5686"/>
</g>
<!-- transition_fe5dbbcea5ce7e2988b8c69bcfdfde8904aabc1f&#45;&gt;place_f15ff37c44db3a66773086032d26303622a26114 -->
<g id="edge18" class="edge">
<title>transition_fe5dbbcea5ce7e2988b8c69bcfdfde8904aabc1f&#45;&gt;place_f15ff37c44db3a66773086032d26303622a26114</title>
<path fill="none" stroke="#333333" d="M2052.5823,-125C2062.3534,-125 2072.8109,-125 2082.9192,-125"/>
<polygon fill="#333333" stroke="#333333" points="2083.168,-126.7501 2088.1679,-125 2083.1679,-123.2501 2083.168,-126.7501"/>
</g>
<!-- transition_0ade7c2cf97f75d009975f4d720d1fa6c19f4897&#45;&gt;place_d3116a051d01a12785250aa160d80030fe53a00f -->
<g id="edge20" class="edge">
<title>transition_0ade7c2cf97f75d009975f4d720d1fa6c19f4897&#45;&gt;place_d3116a051d01a12785250aa160d80030fe53a00f</title>
<path fill="none" stroke="#333333" d="M2336.4921,-125C2346.5279,-125 2356.931,-125 2366.8547,-125"/>
<polygon fill="#333333" stroke="#333333" points="2366.9961,-126.7501 2371.9961,-125 2366.996,-123.2501 2366.9961,-126.7501"/>
</g>
<!-- transition_b1d5781111d84f7b3fe45a0852e59758cd7a87e5&#45;&gt;place_691e1af3c33128ebc6d96a79495c445c116459a4 -->
<g id="edge22" class="edge">
<title>transition_b1d5781111d84f7b3fe45a0852e59758cd7a87e5&#45;&gt;place_691e1af3c33128ebc6d96a79495c445c116459a4</title>
<path fill="none" stroke="#333333" d="M1928.3935,-36C1976.0941,-36 2062.8029,-36 2136.8871,-36 2136.8871,-36 2136.8871,-36 2420.4535,-36 2512.4087,-36 2536.5545,-35.7792 2626.4784,-55 2637.5225,-57.3606 2649.2098,-60.8691 2659.9253,-64.5162"/>
<polygon fill="#333333" stroke="#333333" points="2659.477,-66.2129 2664.7744,-66.198 2660.624,-62.9062 2659.477,-66.2129"/>
</g>
<!-- transition_17ba0791499db908433b80f37c5fbc89b870084b&#45;&gt;place_691e1af3c33128ebc6d96a79495c445c116459a4 -->
<g id="edge24" class="edge">
<title>transition_17ba0791499db908433b80f37c5fbc89b870084b&#45;&gt;place_691e1af3c33128ebc6d96a79495c445c116459a4</title>
<path fill="none" stroke="#333333" d="M2626.6789,-104.4753C2637.7271,-100.7701 2648.99,-96.9928 2659.2567,-93.5497"/>
<polygon fill="#333333" stroke="#333333" points="2660.0273,-95.1371 2664.2113,-91.8881 2658.9144,-91.8188 2660.0273,-95.1371"/>
</g>
<!-- transition_7b52009b64fd0a2a49e6d8a939753077792b0554&#45;&gt;place_691e1af3c33128ebc6d96a79495c445c116459a4 -->
<g id="edge26" class="edge">
<title>transition_7b52009b64fd0a2a49e6d8a939753077792b0554&#45;&gt;place_691e1af3c33128ebc6d96a79495c445c116459a4</title>
<path fill="none" stroke="#333333" d="M2772.8189,-86.5258C2762.6644,-86.8249 2751.8117,-86.8247 2741.6581,-86.5252"/>
<polygon fill="#333333" stroke="#333333" points="2741.478,-84.7678 2736.4196,-86.3412 2741.3551,-88.2657 2741.478,-84.7678"/>
</g>
</g>
</svg>
