<?xml version="1.0" encoding="UTF-8" standalone="no"?>
<!DOCTYPE svg PUBLIC "-//W3C//DTD SVG 1.1//EN"
 "http://www.w3.org/Graphics/SVG/1.1/DTD/svg11.dtd">
<!-- Generated by graphviz version 2.40.1 (20161225.0304)
 -->
<!-- Title: workflow Pages: 1 -->
<svg width="2789pt" height="129pt"
 viewBox="0.00 0.00 2788.87 129.00" xmlns="http://www.w3.org/2000/svg" xmlns:xlink="http://www.w3.org/1999/xlink">
<g id="graph0" class="graph" transform="scale(1 1) rotate(0) translate(4 125)">
<title>workflow</title>
<polygon fill="#ffffff" stroke="transparent" points="-4,4 -4,-125 2784.8725,-125 2784.8725,4 -4,4"/>
<!-- place_2b020927d3c6eb407223a1baa3d6ce3597a3f88d -->
<g id="node1" class="node">
<title>place_2b020927d3c6eb407223a1baa3d6ce3597a3f88d</title>
<ellipse fill="#add8e6" stroke="#333333" cx="36" cy="-60.5" rx="36" ry="36"/>
<text text-anchor="middle" x="36" y="-58.3" font-family="Arial" font-size="9.00" fill="#000000">start</text>
</g>
<!-- transition_b6589fc6ab0dc82cf12099d1c2d40ab994e8410c -->
<g id="node13" class="node">
<title>transition_b6589fc6ab0dc82cf12099d1c2d40ab994e8410c</title>
<polygon fill="none" stroke="#333333" points="180,-96.5 108,-96.5 108,-24.5 180,-24.5 180,-96.5"/>
<text text-anchor="middle" x="144" y="-58.3" font-family="Arial" font-size="9.00" fill="#000000">manifest</text>
</g>
<!-- place_2b020927d3c6eb407223a1baa3d6ce3597a3f88d&#45;&gt;transition_b6589fc6ab0dc82cf12099d1c2d40ab994e8410c -->
<g id="edge1" class="edge">
<title>place_2b020927d3c6eb407223a1baa3d6ce3597a3f88d&#45;&gt;transition_b6589fc6ab0dc82cf12099d1c2d40ab994e8410c</title>
<path fill="none" stroke="#333333" d="M72.2629,-60.5C81.969,-60.5 92.5352,-60.5 102.5004,-60.5"/>
<polygon fill="#333333" stroke="#333333" points="102.649,-62.2501 107.649,-60.5 102.649,-58.7501 102.649,-62.2501"/>
</g>
<!-- place_c5beef2de776a9eb64b6a612abeac7157e1e00a4 -->
<g id="node2" class="node">
<title>place_c5beef2de776a9eb64b6a612abeac7157e1e00a4</title>
<ellipse fill="none" stroke="#333333" cx="252" cy="-60.5" rx="36" ry="36"/>
<text text-anchor="middle" x="252" y="-58.3" font-family="Arial" font-size="9.00" fill="#000000">manifest</text>
</g>
<!-- transition_356a192b7913b04c54574d18c28d46e6395428ab -->
<g id="node14" class="node">
<title>transition_356a192b7913b04c54574d18c28d46e6395428ab</title>
<polygon fill="none" stroke="#333333" points="396,-96.5 324,-96.5 324,-24.5 396,-24.5 396,-96.5"/>
<text text-anchor="middle" x="360" y="-58.3" font-family="Arial" font-size="9.00" fill="#000000">config</text>
</g>
<!-- place_c5beef2de776a9eb64b6a612abeac7157e1e00a4&#45;&gt;transition_356a192b7913b04c54574d18c28d46e6395428ab -->
<g id="edge3" class="edge">
<title>place_c5beef2de776a9eb64b6a612abeac7157e1e00a4&#45;&gt;transition_356a192b7913b04c54574d18c28d46e6395428ab</title>
<path fill="none" stroke="#333333" d="M288.2629,-60.5C297.969,-60.5 308.5352,-60.5 318.5004,-60.5"/>
<polygon fill="#333333" stroke="#333333" points="318.649,-62.2501 323.649,-60.5 318.649,-58.7501 318.649,-62.2501"/>
</g>
<!-- place_dfba7aade0868074c2861c98e2a9a92f3178a51b -->
<g id="node3" class="node">
<title>place_dfba7aade0868074c2861c98e2a9a92f3178a51b</title>
<ellipse fill="none" stroke="#333333" cx="468" cy="-60.5" rx="36" ry="36"/>
<text text-anchor="middle" x="468" y="-58.3" font-family="Arial" font-size="9.00" fill="#000000">config</text>
</g>
<!-- transition_da4b9237bacccdf19c0760cab7aec4a8359010b0 -->
<g id="node15" class="node">
<title>transition_da4b9237bacccdf19c0760cab7aec4a8359010b0</title>
<polygon fill="none" stroke="#333333" points="612,-96.5 540,-96.5 540,-24.5 612,-24.5 612,-96.5"/>
<text text-anchor="middle" x="576" y="-58.3" font-family="Arial" font-size="9.00" fill="#000000">translation</text>
</g>
<!-- place_dfba7aade0868074c2861c98e2a9a92f3178a51b&#45;&gt;transition_da4b9237bacccdf19c0760cab7aec4a8359010b0 -->
<g id="edge5" class="edge">
<title>place_dfba7aade0868074c2861c98e2a9a92f3178a51b&#45;&gt;transition_da4b9237bacccdf19c0760cab7aec4a8359010b0</title>
<path fill="none" stroke="#333333" d="M504.2629,-60.5C513.969,-60.5 524.5352,-60.5 534.5004,-60.5"/>
<polygon fill="#333333" stroke="#333333" points="534.649,-62.2501 539.649,-60.5 534.649,-58.7501 534.649,-62.2501"/>
</g>
<!-- place_efd7fd7f2954713c1ee7facf9750fe53e8cf589c -->
<g id="node4" class="node">
<title>place_efd7fd7f2954713c1ee7facf9750fe53e8cf589c</title>
<ellipse fill="none" stroke="#333333" cx="684" cy="-60.5" rx="36" ry="36"/>
<text text-anchor="middle" x="684" y="-58.3" font-family="Arial" font-size="9.00" fill="#000000">translation</text>
</g>
<!-- transition_77de68daecd823babbb58edb1c8e14d7106e83bb -->
<g id="node16" class="node">
<title>transition_77de68daecd823babbb58edb1c8e14d7106e83bb</title>
<polygon fill="none" stroke="#333333" points="828,-96.5 756,-96.5 756,-24.5 828,-24.5 828,-96.5"/>
<text text-anchor="middle" x="792" y="-58.3" font-family="Arial" font-size="9.00" fill="#000000">aop_validate</text>
</g>
<!-- place_efd7fd7f2954713c1ee7facf9750fe53e8cf589c&#45;&gt;transition_77de68daecd823babbb58edb1c8e14d7106e83bb -->
<g id="edge7" class="edge">
<title>place_efd7fd7f2954713c1ee7facf9750fe53e8cf589c&#45;&gt;transition_77de68daecd823babbb58edb1c8e14d7106e83bb</title>
<path fill="none" stroke="#333333" d="M720.2629,-60.5C729.969,-60.5 740.5352,-60.5 750.5004,-60.5"/>
<polygon fill="#333333" stroke="#333333" points="750.649,-62.2501 755.649,-60.5 750.649,-58.7501 750.649,-62.2501"/>
</g>
<!-- place_2dac4fc321f1087d189806b2f225701ceaf4278c -->
<g id="node5" class="node">
<title>place_2dac4fc321f1087d189806b2f225701ceaf4278c</title>
<ellipse fill="none" stroke="#333333" cx="901.697" cy="-60.5" rx="37.8951" ry="37.8951"/>
<text text-anchor="middle" x="901.697" y="-58.3" font-family="Arial" font-size="9.00" fill="#000000">aop&#45;validated</text>
</g>
<!-- transition_1b6453892473a467d07372d45eb05abc2031647a -->
<g id="node17" class="node">
<title>transition_1b6453892473a467d07372d45eb05abc2031647a</title>
<polygon fill="none" stroke="#333333" points="1047.3941,-96.5 975.3941,-96.5 975.3941,-24.5 1047.3941,-24.5 1047.3941,-96.5"/>
<text text-anchor="middle" x="1011.3941" y="-58.3" font-family="Arial" font-size="9.00" fill="#000000">openapi</text>
</g>
<!-- place_2dac4fc321f1087d189806b2f225701ceaf4278c&#45;&gt;transition_1b6453892473a467d07372d45eb05abc2031647a -->
<g id="edge9" class="edge">
<title>place_2dac4fc321f1087d189806b2f225701ceaf4278c&#45;&gt;transition_1b6453892473a467d07372d45eb05abc2031647a</title>
<path fill="none" stroke="#333333" d="M939.4485,-60.5C949.2649,-60.5 959.893,-60.5 969.8912,-60.5"/>
<polygon fill="#333333" stroke="#333333" points="970.0546,-62.2501 975.0546,-60.5 970.0546,-58.7501 970.0546,-62.2501"/>
</g>
<!-- place_3101a69a049ac6abaa9e79f841734c3fde77190f -->
<g id="node6" class="node">
<title>place_3101a69a049ac6abaa9e79f841734c3fde77190f</title>
<ellipse fill="none" stroke="#333333" cx="1119.3941" cy="-60.5" rx="36" ry="36"/>
<text text-anchor="middle" x="1119.3941" y="-58.3" font-family="Arial" font-size="9.00" fill="#000000">openapi</text>
</g>
<!-- transition_ac3478d69a3c81fa62e60f5c3696165a4e5e6ac4 -->
<g id="node18" class="node">
<title>transition_ac3478d69a3c81fa62e60f5c3696165a4e5e6ac4</title>
<polygon fill="none" stroke="#333333" points="1279.3941,-104.5 1191.3941,-104.5 1191.3941,-16.5 1279.3941,-16.5 1279.3941,-104.5"/>
<text text-anchor="middle" x="1235.3941" y="-58.3" font-family="Arial" font-size="9.00" fill="#000000">openapi_validate</text>
</g>
<!-- place_3101a69a049ac6abaa9e79f841734c3fde77190f&#45;&gt;transition_ac3478d69a3c81fa62e60f5c3696165a4e5e6ac4 -->
<g id="edge11" class="edge">
<title>place_3101a69a049ac6abaa9e79f841734c3fde77190f&#45;&gt;transition_ac3478d69a3c81fa62e60f5c3696165a4e5e6ac4</title>
<path fill="none" stroke="#333333" d="M1155.4613,-60.5C1165.1777,-60.5 1175.8572,-60.5 1186.159,-60.5"/>
<polygon fill="#333333" stroke="#333333" points="1186.1801,-62.2501 1191.1801,-60.5 1186.18,-58.7501 1186.1801,-62.2501"/>
</g>
<!-- place_28a4143c6cf6a51a2b50b25061da23121d1ade49 -->
<g id="node7" class="node">
<title>place_28a4143c6cf6a51a2b50b25061da23121d1ade49</title>
<ellipse fill="none" stroke="#333333" cx="1362.3863" cy="-60.5" rx="46.9844" ry="46.9844"/>
<text text-anchor="middle" x="1362.3863" y="-58.3" font-family="Arial" font-size="9.00" fill="#000000">openapi&#45;validated</text>
</g>
<!-- transition_c1dfd96eea8cc2b62785275bca38ac261256e278 -->
<g id="node19" class="node">
<title>transition_c1dfd96eea8cc2b62785275bca38ac261256e278</title>
<polygon fill="none" stroke="#333333" points="1517.3785,-96.5 1445.3785,-96.5 1445.3785,-24.5 1517.3785,-24.5 1517.3785,-96.5"/>
<text text-anchor="middle" x="1481.3785" y="-58.3" font-family="Arial" font-size="9.00" fill="#000000">asyncapi</text>
</g>
<!-- place_28a4143c6cf6a51a2b50b25061da23121d1ade49&#45;&gt;transition_c1dfd96eea8cc2b62785275bca38ac261256e278 -->
<g id="edge13" class="edge">
<title>place_28a4143c6cf6a51a2b50b25061da23121d1ade49&#45;&gt;transition_c1dfd96eea8cc2b62785275bca38ac261256e278</title>
<path fill="none" stroke="#333333" d="M1409.4151,-60.5C1419.5938,-60.5 1430.2822,-60.5 1440.2151,-60.5"/>
<polygon fill="#333333" stroke="#333333" points="1440.3338,-62.2501 1445.3338,-60.5 1440.3337,-58.7501 1440.3338,-62.2501"/>
</g>
<!-- place_62eaf9d719558cab721db86619620e14f62fdfa3 -->
<g id="node8" class="node">
<title>place_62eaf9d719558cab721db86619620e14f62fdfa3</title>
<ellipse fill="none" stroke="#333333" cx="1589.3785" cy="-60.5" rx="36" ry="36"/>
<text text-anchor="middle" x="1589.3785" y="-58.3" font-family="Arial" font-size="9.00" fill="#000000">asyncapi</text>
</g>
<!-- transition_902ba3cda1883801594b6e1b452790cc53948fda -->
<g id="node20" class="node">
<title>transition_902ba3cda1883801594b6e1b452790cc53948fda</title>
<polygon fill="none" stroke="#333333" points="1752.3785,-106 1661.3785,-106 1661.3785,-15 1752.3785,-15 1752.3785,-106"/>
<text text-anchor="middle" x="1706.8785" y="-58.3" font-family="Arial" font-size="9.00" fill="#000000">asyncapi_validate</text>
</g>
<!-- place_62eaf9d719558cab721db86619620e14f62fdfa3&#45;&gt;transition_902ba3cda1883801594b6e1b452790cc53948fda -->
<g id="edge15" class="edge">
<title>place_62eaf9d719558cab721db86619620e14f62fdfa3&#45;&gt;transition_902ba3cda1883801594b6e1b452790cc53948fda</title>
<path fill="none" stroke="#333333" d="M1625.5911,-60.5C1635.123,-60.5 1645.5878,-60.5 1655.7439,-60.5"/>
<polygon fill="#333333" stroke="#333333" points="1656.0201,-62.2501 1661.0201,-60.5 1656.02,-58.7501 1656.0201,-62.2501"/>
</g>
<!-- place_f15ff37c44db3a66773086032d26303622a26114 -->
<g id="node9" class="node">
<title>place_f15ff37c44db3a66773086032d26303622a26114</title>
<ellipse fill="none" stroke="#333333" cx="1836.9199" cy="-60.5" rx="48.5828" ry="48.5828"/>
<text text-anchor="middle" x="1836.9199" y="-58.3" font-family="Arial" font-size="9.00" fill="#000000">asyncapi&#45;validated</text>
</g>
<!-- transition_fe5dbbcea5ce7e2988b8c69bcfdfde8904aabc1f -->
<g id="node21" class="node">
<title>transition_fe5dbbcea5ce7e2988b8c69bcfdfde8904aabc1f</title>
<polygon fill="none" stroke="#333333" points="2042.4613,-121 1921.4613,-121 1921.4613,0 2042.4613,0 2042.4613,-121"/>
<text text-anchor="middle" x="1981.9613" y="-58.3" font-family="Arial" font-size="9.00" fill="#000000">asyncapi_generate_code</text>
</g>
<!-- place_f15ff37c44db3a66773086032d26303622a26114&#45;&gt;transition_fe5dbbcea5ce7e2988b8c69bcfdfde8904aabc1f -->
<g id="edge17" class="edge">
<title>place_f15ff37c44db3a66773086032d26303622a26114&#45;&gt;transition_fe5dbbcea5ce7e2988b8c69bcfdfde8904aabc1f</title>
<path fill="none" stroke="#333333" d="M1885.62,-60.5C1895.4507,-60.5 1905.9382,-60.5 1916.2411,-60.5"/>
<polygon fill="#333333" stroke="#333333" points="1916.2804,-62.2501 1921.2804,-60.5 1916.2803,-58.7501 1916.2804,-62.2501"/>
</g>
<!-- place_d3116a051d01a12785250aa160d80030fe53a00f -->
<g id="node10" class="node">
<title>place_d3116a051d01a12785250aa160d80030fe53a00f</title>
<ellipse fill="none" stroke="#333333" cx="2126.4862" cy="-60.5" rx="48.05" ry="48.05"/>
<text text-anchor="middle" x="2126.4862" y="-58.3" font-family="Arial" font-size="9.00" fill="#000000">asyncapi&#45;generate</text>
</g>
<!-- transition_0ade7c2cf97f75d009975f4d720d1fa6c19f4897 -->
<g id="node22" class="node">
<title>transition_0ade7c2cf97f75d009975f4d720d1fa6c19f4897</title>
<polygon fill="none" stroke="#333333" points="2328.5112,-119.5 2210.5112,-119.5 2210.5112,-1.5 2328.5112,-1.5 2328.5112,-119.5"/>
<text text-anchor="middle" x="2269.5112" y="-58.3" font-family="Arial" font-size="9.00" fill="#000000">openapi_generate_code</text>
</g>
<!-- place_d3116a051d01a12785250aa160d80030fe53a00f&#45;&gt;transition_0ade7c2cf97f75d009975f4d720d1fa6c19f4897 -->
<g id="edge19" class="edge">
<title>place_d3116a051d01a12785250aa160d80030fe53a00f&#45;&gt;transition_0ade7c2cf97f75d009975f4d720d1fa6c19f4897</title>
<path fill="none" stroke="#333333" d="M2174.908,-60.5C2184.7278,-60.5 2195.1983,-60.5 2205.4616,-60.5"/>
<polygon fill="#333333" stroke="#333333" points="2205.4795,-62.2501 2210.4795,-60.5 2205.4794,-58.7501 2205.4795,-62.2501"/>
</g>
<!-- place_4fee5c45437e00ac97c799bd8b0030c0bc3001a7 -->
<g id="node11" class="node">
<title>place_4fee5c45437e00ac97c799bd8b0030c0bc3001a7</title>
<ellipse fill="none" stroke="#333333" cx="2400.5112" cy="-60.5" rx="36" ry="36"/>
<text text-anchor="middle" x="2400.5112" y="-58.3" font-family="Arial" font-size="9.00" fill="#000000">pbc&#45;validate</text>
</g>
<!-- transition_b1d5781111d84f7b3fe45a0852e59758cd7a87e5 -->
<g id="node23" class="node">
<title>transition_b1d5781111d84f7b3fe45a0852e59758cd7a87e5</title>
<polygon fill="none" stroke="#333333" points="2549.5112,-99 2472.5112,-99 2472.5112,-22 2549.5112,-22 2549.5112,-99"/>
<text text-anchor="middle" x="2511.0112" y="-58.3" font-family="Arial" font-size="9.00" fill="#000000">pbc_validation</text>
</g>
<!-- place_4fee5c45437e00ac97c799bd8b0030c0bc3001a7&#45;&gt;transition_b1d5781111d84f7b3fe45a0852e59758cd7a87e5 -->
<g id="edge21" class="edge">
<title>place_4fee5c45437e00ac97c799bd8b0030c0bc3001a7&#45;&gt;transition_b1d5781111d84f7b3fe45a0852e59758cd7a87e5</title>
<path fill="none" stroke="#333333" d="M2436.6931,-60.5C2446.4481,-60.5 2457.1072,-60.5 2467.229,-60.5"/>
<polygon fill="#333333" stroke="#333333" points="2467.4656,-62.2501 2472.4655,-60.5 2467.4655,-58.7501 2467.4656,-62.2501"/>
</g>
<!-- place_691e1af3c33128ebc6d96a79495c445c116459a4 -->
<g id="node12" class="node">
<title>place_691e1af3c33128ebc6d96a79495c445c116459a4</title>
<ellipse fill="none" stroke="#333333" cx="2622.6919" cy="-60.5" rx="37.3622" ry="37.3622"/>
<text text-anchor="middle" x="2622.6919" y="-58.3" font-family="Arial" font-size="9.00" fill="#000000">pbc&#45;validated</text>
</g>
<!-- transition_17ba0791499db908433b80f37c5fbc89b870084b -->
<g id="node24" class="node">
<title>transition_17ba0791499db908433b80f37c5fbc89b870084b</title>
<polygon fill="none" stroke="#333333" points="2780.8725,-103 2695.8725,-103 2695.8725,-18 2780.8725,-18 2780.8725,-103"/>
<text text-anchor="middle" x="2738.3725" y="-58.3" font-family="Arial" font-size="9.00" fill="#000000">pbc_revalidation</text>
</g>
<!-- place_691e1af3c33128ebc6d96a79495c445c116459a4&#45;&gt;transition_17ba0791499db908433b80f37c5fbc89b870084b -->
<g id="edge23" class="edge">
<title>place_691e1af3c33128ebc6d96a79495c445c116459a4&#45;&gt;transition_17ba0791499db908433b80f37c5fbc89b870084b</title>
<path fill="none" stroke="#333333" d="M2659.612,-54.1588C2669.4994,-53.7558 2680.3294,-53.6508 2690.708,-53.8437"/>
<polygon fill="#333333" stroke="#333333" points="2690.7209,-55.5944 2695.7607,-53.9624 2690.8032,-52.0954 2690.7209,-55.5944"/>
</g>
<!-- transition_b6589fc6ab0dc82cf12099d1c2d40ab994e8410c&#45;&gt;place_c5beef2de776a9eb64b6a612abeac7157e1e00a4 -->
<g id="edge2" class="edge">
<title>transition_b6589fc6ab0dc82cf12099d1c2d40ab994e8410c&#45;&gt;place_c5beef2de776a9eb64b6a612abeac7157e1e00a4</title>
<path fill="none" stroke="#333333" d="M180.2629,-60.5C189.969,-60.5 200.5352,-60.5 210.5004,-60.5"/>
<polygon fill="#333333" stroke="#333333" points="210.649,-62.2501 215.649,-60.5 210.649,-58.7501 210.649,-62.2501"/>
</g>
<!-- transition_356a192b7913b04c54574d18c28d46e6395428ab&#45;&gt;place_dfba7aade0868074c2861c98e2a9a92f3178a51b -->
<g id="edge4" class="edge">
<title>transition_356a192b7913b04c54574d18c28d46e6395428ab&#45;&gt;place_dfba7aade0868074c2861c98e2a9a92f3178a51b</title>
<path fill="none" stroke="#333333" d="M396.2629,-60.5C405.969,-60.5 416.5352,-60.5 426.5004,-60.5"/>
<polygon fill="#333333" stroke="#333333" points="426.649,-62.2501 431.649,-60.5 426.649,-58.7501 426.649,-62.2501"/>
</g>
<!-- transition_da4b9237bacccdf19c0760cab7aec4a8359010b0&#45;&gt;place_efd7fd7f2954713c1ee7facf9750fe53e8cf589c -->
<g id="edge6" class="edge">
<title>transition_da4b9237bacccdf19c0760cab7aec4a8359010b0&#45;&gt;place_efd7fd7f2954713c1ee7facf9750fe53e8cf589c</title>
<path fill="none" stroke="#333333" d="M612.2629,-60.5C621.969,-60.5 632.5352,-60.5 642.5004,-60.5"/>
<polygon fill="#333333" stroke="#333333" points="642.649,-62.2501 647.649,-60.5 642.649,-58.7501 642.649,-62.2501"/>
</g>
<!-- transition_77de68daecd823babbb58edb1c8e14d7106e83bb&#45;&gt;place_2dac4fc321f1087d189806b2f225701ceaf4278c -->
<g id="edge8" class="edge">
<title>transition_77de68daecd823babbb58edb1c8e14d7106e83bb&#45;&gt;place_2dac4fc321f1087d189806b2f225701ceaf4278c</title>
<path fill="none" stroke="#333333" d="M828.2229,-60.5C837.895,-60.5 848.444,-60.5 858.4526,-60.5"/>
<polygon fill="#333333" stroke="#333333" points="858.6298,-62.2501 863.6298,-60.5 858.6298,-58.7501 858.6298,-62.2501"/>
</g>
<!-- transition_1b6453892473a467d07372d45eb05abc2031647a&#45;&gt;place_3101a69a049ac6abaa9e79f841734c3fde77190f -->
<g id="edge10" class="edge">
<title>transition_1b6453892473a467d07372d45eb05abc2031647a&#45;&gt;place_3101a69a049ac6abaa9e79f841734c3fde77190f</title>
<path fill="none" stroke="#333333" d="M1047.657,-60.5C1057.3631,-60.5 1067.9292,-60.5 1077.8944,-60.5"/>
<polygon fill="#333333" stroke="#333333" points="1078.0431,-62.2501 1083.0431,-60.5 1078.043,-58.7501 1078.0431,-62.2501"/>
</g>
<!-- transition_ac3478d69a3c81fa62e60f5c3696165a4e5e6ac4&#45;&gt;place_28a4143c6cf6a51a2b50b25061da23121d1ade49 -->
<g id="edge12" class="edge">
<title>transition_ac3478d69a3c81fa62e60f5c3696165a4e5e6ac4&#45;&gt;place_28a4143c6cf6a51a2b50b25061da23121d1ade49</title>
<path fill="none" stroke="#333333" d="M1279.4534,-60.5C1289.4267,-60.5 1300.108,-60.5 1310.3749,-60.5"/>
<polygon fill="#333333" stroke="#333333" points="1310.3768,-62.2501 1315.3768,-60.5 1310.3767,-58.7501 1310.3768,-62.2501"/>
</g>
<!-- transition_c1dfd96eea8cc2b62785275bca38ac261256e278&#45;&gt;place_62eaf9d719558cab721db86619620e14f62fdfa3 -->
<g id="edge14" class="edge">
<title>transition_c1dfd96eea8cc2b62785275bca38ac261256e278&#45;&gt;place_62eaf9d719558cab721db86619620e14f62fdfa3</title>
<path fill="none" stroke="#333333" d="M1517.6414,-60.5C1527.3475,-60.5 1537.9136,-60.5 1547.8788,-60.5"/>
<polygon fill="#333333" stroke="#333333" points="1548.0275,-62.2501 1553.0275,-60.5 1548.0274,-58.7501 1548.0275,-62.2501"/>
</g>
<!-- transition_902ba3cda1883801594b6e1b452790cc53948fda&#45;&gt;place_f15ff37c44db3a66773086032d26303622a26114 -->
<g id="edge16" class="edge">
<title>transition_902ba3cda1883801594b6e1b452790cc53948fda&#45;&gt;place_f15ff37c44db3a66773086032d26303622a26114</title>
<path fill="none" stroke="#333333" d="M1752.7262,-60.5C1762.4403,-60.5 1772.7815,-60.5 1782.7703,-60.5"/>
<polygon fill="#333333" stroke="#333333" points="1782.9566,-62.2501 1787.9566,-60.5 1782.9565,-58.7501 1782.9566,-62.2501"/>
</g>
<!-- transition_fe5dbbcea5ce7e2988b8c69bcfdfde8904aabc1f&#45;&gt;place_d3116a051d01a12785250aa160d80030fe53a00f -->
<g id="edge18" class="edge">
<title>transition_fe5dbbcea5ce7e2988b8c69bcfdfde8904aabc1f&#45;&gt;place_d3116a051d01a12785250aa160d80030fe53a00f</title>
<path fill="none" stroke="#333333" d="M2042.834,-60.5C2052.9507,-60.5 2063.3729,-60.5 2073.2804,-60.5"/>
<polygon fill="#333333" stroke="#333333" points="2073.4102,-62.2501 2078.4102,-60.5 2073.4101,-58.7501 2073.4102,-62.2501"/>
</g>
<!-- transition_0ade7c2cf97f75d009975f4d720d1fa6c19f4897&#45;&gt;place_4fee5c45437e00ac97c799bd8b0030c0bc3001a7 -->
<g id="edge20" class="edge">
<title>transition_0ade7c2cf97f75d009975f4d720d1fa6c19f4897&#45;&gt;place_4fee5c45437e00ac97c799bd8b0030c0bc3001a7</title>
<path fill="none" stroke="#333333" d="M2328.8786,-60.5C2339.0459,-60.5 2349.412,-60.5 2358.9854,-60.5"/>
<polygon fill="#333333" stroke="#333333" points="2359.2162,-62.2501 2364.2161,-60.5 2359.2161,-58.7501 2359.2162,-62.2501"/>
</g>
<!-- transition_b1d5781111d84f7b3fe45a0852e59758cd7a87e5&#45;&gt;place_691e1af3c33128ebc6d96a79495c445c116459a4 -->
<g id="edge22" class="edge">
<title>transition_b1d5781111d84f7b3fe45a0852e59758cd7a87e5&#45;&gt;place_691e1af3c33128ebc6d96a79495c445c116459a4</title>
<path fill="none" stroke="#333333" d="M2549.7583,-60.5C2559.5223,-60.5 2570.058,-60.5 2580.0035,-60.5"/>
<polygon fill="#333333" stroke="#333333" points="2580.1434,-62.2501 2585.1434,-60.5 2580.1433,-58.7501 2580.1434,-62.2501"/>
</g>
<!-- transition_17ba0791499db908433b80f37c5fbc89b870084b&#45;&gt;place_691e1af3c33128ebc6d96a79495c445c116459a4 -->
<g id="edge24" class="edge">
<title>transition_17ba0791499db908433b80f37c5fbc89b870084b&#45;&gt;place_691e1af3c33128ebc6d96a79495c445c116459a4</title>
<path fill="none" stroke="#333333" d="M2695.7607,-67.0376C2685.6597,-67.3255 2674.8916,-67.3207 2664.8127,-67.0234"/>
<polygon fill="#333333" stroke="#333333" points="2664.6702,-65.2674 2659.612,-66.8412 2664.5477,-68.7653 2664.6702,-65.2674"/>
</g>
</g>
</svg>
