<?xml version="1.0" encoding="UTF-8" standalone="no"?>
<!DOCTYPE svg PUBLIC "-//W3C//DTD SVG 1.1//EN"
 "http://www.w3.org/Graphics/SVG/1.1/DTD/svg11.dtd">
<!-- Generated by graphviz version 2.43.0 (0)
 -->
<!-- Title: workflow Pages: 1 -->
<svg width="221pt" height="1572pt"
 viewBox="0.00 0.00 220.72 1571.84" xmlns="http://www.w3.org/2000/svg" xmlns:xlink="http://www.w3.org/1999/xlink">
<g id="graph0" class="graph" transform="scale(1 1) rotate(0) translate(4 1567.84)">
<title>workflow</title>
<polygon fill="white" stroke="transparent" points="-4,4 -4,-1567.84 216.72,-1567.84 216.72,4 -4,4"/>
<!-- place_2b020927d3c6eb407223a1baa3d6ce3597a3f88d -->
<g id="node1" class="node">
<title>place_2b020927d3c6eb407223a1baa3d6ce3597a3f88d</title>
<ellipse fill="lightblue" stroke="#333333" cx="113.54" cy="-1527.84" rx="36" ry="36"/>
<text text-anchor="middle" x="113.54" y="-1525.64" font-family="Arial" font-size="9.00">start</text>
</g>
<!-- place_43a175589acb59cdd1386d0676a0e5c8ba47d3f0 -->
<g id="node2" class="node">
<title>place_43a175589acb59cdd1386d0676a0e5c8ba47d3f0</title>
<ellipse fill="none" stroke="#333333" cx="113.54" cy="-1409.84" rx="36" ry="36"/>
<text text-anchor="middle" x="113.54" y="-1407.64" font-family="Arial" font-size="9.00">pbc&#45;skeleton</text>
</g>
<!-- place_2b020927d3c6eb407223a1baa3d6ce3597a3f88d&#45;&gt;place_43a175589acb59cdd1386d0676a0e5c8ba47d3f0 -->
<g id="edge1" class="edge">
<title>place_2b020927d3c6eb407223a1baa3d6ce3597a3f88d&#45;&gt;place_43a175589acb59cdd1386d0676a0e5c8ba47d3f0</title>
<path fill="none" stroke="#333333" d="M113.54,-1491.72C113.54,-1479.01 113.54,-1464.54 113.54,-1451.4"/>
<polygon fill="#333333" stroke="#333333" points="115.29,-1451.24 113.54,-1446.24 111.79,-1451.24 115.29,-1451.24"/>
<text text-anchor="middle" x="153.54" y="-1466.64" font-family="Arial" font-size="9.00">CreatePbcSkeleton</text>
</g>
<!-- place_c5beef2de776a9eb64b6a612abeac7157e1e00a4 -->
<g id="node3" class="node">
<title>place_c5beef2de776a9eb64b6a612abeac7157e1e00a4</title>
<ellipse fill="none" stroke="#333333" cx="113.54" cy="-1291.84" rx="36" ry="36"/>
<text text-anchor="middle" x="113.54" y="-1289.64" font-family="Arial" font-size="9.00">manifest</text>
</g>
<!-- place_43a175589acb59cdd1386d0676a0e5c8ba47d3f0&#45;&gt;place_c5beef2de776a9eb64b6a612abeac7157e1e00a4 -->
<g id="edge2" class="edge">
<title>place_43a175589acb59cdd1386d0676a0e5c8ba47d3f0&#45;&gt;place_c5beef2de776a9eb64b6a612abeac7157e1e00a4</title>
<path fill="none" stroke="#333333" d="M113.54,-1373.72C113.54,-1361.01 113.54,-1346.54 113.54,-1333.4"/>
<polygon fill="#333333" stroke="#333333" points="115.29,-1333.24 113.54,-1328.24 111.79,-1333.24 115.29,-1333.24"/>
<text text-anchor="middle" x="145.04" y="-1348.64" font-family="Arial" font-size="9.00">CreateManifest</text>
</g>
<!-- place_dfba7aade0868074c2861c98e2a9a92f3178a51b -->
<g id="node4" class="node">
<title>place_dfba7aade0868074c2861c98e2a9a92f3178a51b</title>
<ellipse fill="none" stroke="#333333" cx="113.54" cy="-1173.84" rx="36" ry="36"/>
<text text-anchor="middle" x="113.54" y="-1171.64" font-family="Arial" font-size="9.00">config</text>
</g>
<!-- place_c5beef2de776a9eb64b6a612abeac7157e1e00a4&#45;&gt;place_dfba7aade0868074c2861c98e2a9a92f3178a51b -->
<g id="edge3" class="edge">
<title>place_c5beef2de776a9eb64b6a612abeac7157e1e00a4&#45;&gt;place_dfba7aade0868074c2861c98e2a9a92f3178a51b</title>
<path fill="none" stroke="#333333" d="M113.54,-1255.72C113.54,-1243.01 113.54,-1228.54 113.54,-1215.4"/>
<polygon fill="#333333" stroke="#333333" points="115.29,-1215.24 113.54,-1210.24 111.79,-1215.24 115.29,-1215.24"/>
<text text-anchor="middle" x="155.54" y="-1230.64" font-family="Arial" font-size="9.00">CreateConfiguration</text>
</g>
<!-- place_efd7fd7f2954713c1ee7facf9750fe53e8cf589c -->
<g id="node5" class="node">
<title>place_efd7fd7f2954713c1ee7facf9750fe53e8cf589c</title>
<ellipse fill="none" stroke="#333333" cx="113.54" cy="-1055.84" rx="36" ry="36"/>
<text text-anchor="middle" x="113.54" y="-1053.64" font-family="Arial" font-size="9.00">translation</text>
</g>
<!-- place_dfba7aade0868074c2861c98e2a9a92f3178a51b&#45;&gt;place_efd7fd7f2954713c1ee7facf9750fe53e8cf589c -->
<g id="edge4" class="edge">
<title>place_dfba7aade0868074c2861c98e2a9a92f3178a51b&#45;&gt;place_efd7fd7f2954713c1ee7facf9750fe53e8cf589c</title>
<path fill="none" stroke="#333333" d="M113.54,-1137.72C113.54,-1125.01 113.54,-1110.54 113.54,-1097.4"/>
<polygon fill="#333333" stroke="#333333" points="115.29,-1097.24 113.54,-1092.24 111.79,-1097.24 115.29,-1097.24"/>
<text text-anchor="middle" x="150.54" y="-1112.64" font-family="Arial" font-size="9.00">CreateTranslation</text>
</g>
<!-- place_6ad178e1b5a22bda0fcf162ae0d81e6f1bb89b89 -->
<g id="node6" class="node">
<title>place_6ad178e1b5a22bda0fcf162ae0d81e6f1bb89b89</title>
<ellipse fill="none" stroke="#333333" cx="113.54" cy="-936.66" rx="37.36" ry="37.36"/>
<text text-anchor="middle" x="113.54" y="-934.46" font-family="Arial" font-size="9.00">acp&#45;validated</text>
</g>
<!-- place_efd7fd7f2954713c1ee7facf9750fe53e8cf589c&#45;&gt;place_6ad178e1b5a22bda0fcf162ae0d81e6f1bb89b89 -->
<g id="edge5" class="edge">
<title>place_efd7fd7f2954713c1ee7facf9750fe53e8cf589c&#45;&gt;place_6ad178e1b5a22bda0fcf162ae0d81e6f1bb89b89</title>
<path fill="none" stroke="#333333" d="M113.54,-1019.68C113.54,-1006.95 113.54,-992.44 113.54,-979.21"/>
<polygon fill="#333333" stroke="#333333" points="115.29,-979.01 113.54,-974.01 111.79,-979.01 115.29,-979.01"/>
<text text-anchor="middle" x="139.54" y="-994.64" font-family="Arial" font-size="9.00">ValidateACP</text>
</g>
<!-- place_3101a69a049ac6abaa9e79f841734c3fde77190f -->
<g id="node7" class="node">
<title>place_3101a69a049ac6abaa9e79f841734c3fde77190f</title>
<ellipse fill="none" stroke="#333333" cx="113.54" cy="-817.48" rx="36" ry="36"/>
<text text-anchor="middle" x="113.54" y="-815.28" font-family="Arial" font-size="9.00">openapi</text>
</g>
<!-- place_6ad178e1b5a22bda0fcf162ae0d81e6f1bb89b89&#45;&gt;place_3101a69a049ac6abaa9e79f841734c3fde77190f -->
<g id="edge6" class="edge">
<title>place_6ad178e1b5a22bda0fcf162ae0d81e6f1bb89b89&#45;&gt;place_3101a69a049ac6abaa9e79f841734c3fde77190f</title>
<path fill="none" stroke="#333333" d="M113.54,-899.22C113.54,-886.41 113.54,-871.94 113.54,-858.83"/>
<polygon fill="#333333" stroke="#333333" points="115.29,-858.69 113.54,-853.69 111.79,-858.69 115.29,-858.69"/>
<text text-anchor="middle" x="145.54" y="-874.28" font-family="Arial" font-size="9.00">CreateOpenApi</text>
</g>
<!-- place_28a4143c6cf6a51a2b50b25061da23121d1ade49 -->
<g id="node8" class="node">
<title>place_28a4143c6cf6a51a2b50b25061da23121d1ade49</title>
<ellipse fill="none" stroke="#333333" cx="113.54" cy="-688.49" rx="46.98" ry="46.98"/>
<text text-anchor="middle" x="113.54" y="-686.29" font-family="Arial" font-size="9.00">openapi&#45;validated</text>
</g>
<!-- place_3101a69a049ac6abaa9e79f841734c3fde77190f&#45;&gt;place_28a4143c6cf6a51a2b50b25061da23121d1ade49 -->
<g id="edge7" class="edge">
<title>place_3101a69a049ac6abaa9e79f841734c3fde77190f&#45;&gt;place_28a4143c6cf6a51a2b50b25061da23121d1ade49</title>
<path fill="none" stroke="#333333" d="M113.54,-781.44C113.54,-769 113.54,-754.71 113.54,-741.17"/>
<polygon fill="#333333" stroke="#333333" points="115.29,-740.83 113.54,-735.83 111.79,-740.83 115.29,-740.83"/>
<text text-anchor="middle" x="148.54" y="-756.28" font-family="Arial" font-size="9.00">ValidateOpenApi</text>
</g>
<!-- place_4fee5c45437e00ac97c799bd8b0030c0bc3001a7 -->
<g id="node12" class="node">
<title>place_4fee5c45437e00ac97c799bd8b0030c0bc3001a7</title>
<ellipse fill="none" stroke="#333333" cx="113.54" cy="-559.49" rx="36" ry="36"/>
<text text-anchor="middle" x="113.54" y="-557.29" font-family="Arial" font-size="9.00">pbc&#45;validate</text>
</g>
<!-- place_28a4143c6cf6a51a2b50b25061da23121d1ade49&#45;&gt;place_4fee5c45437e00ac97c799bd8b0030c0bc3001a7 -->
<g id="edge8" class="edge">
<title>place_28a4143c6cf6a51a2b50b25061da23121d1ade49&#45;&gt;place_4fee5c45437e00ac97c799bd8b0030c0bc3001a7</title>
<path fill="none" stroke="#333333" d="M113.54,-641.28C113.54,-628.01 113.54,-613.64 113.54,-600.76"/>
<polygon fill="#333333" stroke="#333333" points="115.29,-600.71 113.54,-595.71 111.79,-600.71 115.29,-600.71"/>
<text text-anchor="middle" x="151.04" y="-616.29" font-family="Arial" font-size="9.00">GenerateOpenApi</text>
</g>
<!-- place_62eaf9d719558cab721db86619620e14f62fdfa3 -->
<g id="node9" class="node">
<title>place_62eaf9d719558cab721db86619620e14f62fdfa3</title>
<ellipse fill="none" stroke="#333333" cx="71.54" cy="-441.49" rx="36" ry="36"/>
<text text-anchor="middle" x="71.54" y="-439.29" font-family="Arial" font-size="9.00">asyncapi</text>
</g>
<!-- place_f15ff37c44db3a66773086032d26303622a26114 -->
<g id="node10" class="node">
<title>place_f15ff37c44db3a66773086032d26303622a26114</title>
<ellipse fill="none" stroke="#333333" cx="48.54" cy="-310.95" rx="48.58" ry="48.58"/>
<text text-anchor="middle" x="48.54" y="-308.75" font-family="Arial" font-size="9.00">asyncapi&#45;validated</text>
</g>
<!-- place_62eaf9d719558cab721db86619620e14f62fdfa3&#45;&gt;place_f15ff37c44db3a66773086032d26303622a26114 -->
<g id="edge11" class="edge">
<title>place_62eaf9d719558cab721db86619620e14f62fdfa3&#45;&gt;place_f15ff37c44db3a66773086032d26303622a26114</title>
<path fill="none" stroke="#333333" d="M65.32,-405.71C63.02,-392.86 60.36,-378.01 57.85,-363.97"/>
<polygon fill="#333333" stroke="#333333" points="59.53,-363.45 56.93,-358.83 56.09,-364.07 59.53,-363.45"/>
<text text-anchor="middle" x="97.04" y="-380.29" font-family="Arial" font-size="9.00">ValidateAsyncapi</text>
</g>
<!-- place_d3116a051d01a12785250aa160d80030fe53a00f -->
<g id="node11" class="node">
<title>place_d3116a051d01a12785250aa160d80030fe53a00f</title>
<ellipse fill="none" stroke="#333333" cx="60.54" cy="-168.39" rx="48.05" ry="48.05"/>
<text text-anchor="middle" x="60.54" y="-166.19" font-family="Arial" font-size="9.00">asyncapi&#45;generate</text>
</g>
<!-- place_f15ff37c44db3a66773086032d26303622a26114&#45;&gt;place_d3116a051d01a12785250aa160d80030fe53a00f -->
<g id="edge12" class="edge">
<title>place_f15ff37c44db3a66773086032d26303622a26114&#45;&gt;place_d3116a051d01a12785250aa160d80030fe53a00f</title>
<path fill="none" stroke="#333333" d="M41.68,-262.72C41.19,-253.32 41.3,-243.54 42.54,-234.41 43.2,-229.54 44.13,-224.51 45.22,-219.52"/>
<polygon fill="#333333" stroke="#333333" points="46.95,-219.8 46.37,-214.54 43.54,-219.02 46.95,-219.8"/>
<text text-anchor="middle" x="92.04" y="-237.21" font-family="Arial" font-size="9.00">GenerateAsyncapiCode</text>
</g>
<!-- place_691e1af3c33128ebc6d96a79495c445c116459a4 -->
<g id="node13" class="node">
<title>place_691e1af3c33128ebc6d96a79495c445c116459a4</title>
<ellipse fill="none" stroke="#333333" cx="108.54" cy="-37.18" rx="37.36" ry="37.36"/>
<text text-anchor="middle" x="108.54" y="-34.98" font-family="Arial" font-size="9.00">pbc&#45;validated</text>
</g>
<!-- place_d3116a051d01a12785250aa160d80030fe53a00f&#45;&gt;place_691e1af3c33128ebc6d96a79495c445c116459a4 -->
<g id="edge14" class="edge">
<title>place_d3116a051d01a12785250aa160d80030fe53a00f&#45;&gt;place_691e1af3c33128ebc6d96a79495c445c116459a4</title>
<path fill="none" stroke="#333333" d="M77.06,-122.92C82.57,-108.1 88.66,-91.71 94,-77.32"/>
<polygon fill="#333333" stroke="#333333" points="95.68,-77.82 95.78,-72.52 92.4,-76.6 95.68,-77.82"/>
<text text-anchor="middle" x="112.04" y="-95.16" font-family="Arial" font-size="9.00">ValidatePbc</text>
</g>
<!-- place_4fee5c45437e00ac97c799bd8b0030c0bc3001a7&#45;&gt;place_62eaf9d719558cab721db86619620e14f62fdfa3 -->
<g id="edge9" class="edge">
<title>place_4fee5c45437e00ac97c799bd8b0030c0bc3001a7&#45;&gt;place_62eaf9d719558cab721db86619620e14f62fdfa3</title>
<path fill="none" stroke="#333333" d="M90.05,-531.83C84.3,-523.86 78.85,-514.77 75.54,-505.49 73,-498.37 71.54,-490.5 70.76,-482.81"/>
<polygon fill="#333333" stroke="#333333" points="72.48,-482.37 70.32,-477.53 68.99,-482.65 72.48,-482.37"/>
<text text-anchor="middle" x="108.54" y="-498.29" font-family="Arial" font-size="9.00">CreateAsyncapi</text>
</g>
<!-- place_4fee5c45437e00ac97c799bd8b0030c0bc3001a7&#45;&gt;place_691e1af3c33128ebc6d96a79495c445c116459a4 -->
<g id="edge10" class="edge">
<title>place_4fee5c45437e00ac97c799bd8b0030c0bc3001a7&#45;&gt;place_691e1af3c33128ebc6d96a79495c445c116459a4</title>
<path fill="none" stroke="#333333" d="M131.41,-528.03C135.14,-520.81 138.78,-513.01 141.54,-505.49 151.44,-478.57 155.54,-471.18 155.54,-442.49 155.54,-442.49 155.54,-442.49 155.54,-167.39 155.54,-133.38 152.69,-124.12 140.54,-92.36 138.08,-85.94 134.9,-79.4 131.5,-73.19"/>
<polygon fill="#333333" stroke="#333333" points="132.84,-72 128.86,-68.51 129.79,-73.72 132.84,-72"/>
<text text-anchor="middle" x="180.04" y="-308.75" font-family="Arial" font-size="9.00">ValidatePbc</text>
</g>
<!-- place_691e1af3c33128ebc6d96a79495c445c116459a4&#45;&gt;place_691e1af3c33128ebc6d96a79495c445c116459a4 -->
<g id="edge13" class="edge">
<title>place_691e1af3c33128ebc6d96a79495c445c116459a4&#45;&gt;place_691e1af3c33128ebc6d96a79495c445c116459a4</title>
<path fill="none" stroke="#333333" d="M144.1,-48.42C155.09,-48.19 163.72,-44.45 163.72,-37.18 163.72,-31.16 157.8,-27.56 149.53,-26.37"/>
<polygon fill="#333333" stroke="#333333" points="149.22,-24.59 144.1,-25.94 148.95,-28.08 149.22,-24.59"/>
<text text-anchor="middle" x="188.22" y="-34.98" font-family="Arial" font-size="9.00">ValidatePbc</text>
</g>
</g>
</svg>
